G04 #@! TF.GenerationSoftware,KiCad,Pcbnew,5.1.4-e60b266~84~ubuntu18.04.1*
G04 #@! TF.CreationDate,2019-11-10T18:42:59+01:00*
G04 #@! TF.ProjectId,LoRaModule,4c6f5261-4d6f-4647-956c-652e6b696361,rev?*
G04 #@! TF.SameCoordinates,Original*
G04 #@! TF.FileFunction,Legend,Bot*
G04 #@! TF.FilePolarity,Positive*
%FSLAX46Y46*%
G04 Gerber Fmt 4.6, Leading zero omitted, Abs format (unit mm)*
G04 Created by KiCad (PCBNEW 5.1.4-e60b266~84~ubuntu18.04.1) date 2019-11-10 18:42:59*
%MOMM*%
%LPD*%
G04 APERTURE LIST*
%ADD10C,0.010000*%
%ADD11C,0.120000*%
%ADD12C,0.150000*%
G04 APERTURE END LIST*
D10*
G36*
X124422957Y-45345835D02*
G01*
X124399935Y-45383245D01*
X124364466Y-45442514D01*
X124318004Y-45521118D01*
X124262004Y-45616538D01*
X124197919Y-45726250D01*
X124127204Y-45847734D01*
X124051313Y-45978468D01*
X123971701Y-46115930D01*
X123889822Y-46257598D01*
X123807130Y-46400951D01*
X123725079Y-46543467D01*
X123645124Y-46682624D01*
X123568719Y-46815901D01*
X123497318Y-46940776D01*
X123432376Y-47054727D01*
X123375347Y-47155233D01*
X123327685Y-47239772D01*
X123290845Y-47305822D01*
X123266280Y-47350862D01*
X123255446Y-47372370D01*
X123255049Y-47373714D01*
X123268499Y-47391965D01*
X123305886Y-47419882D01*
X123362765Y-47454725D01*
X123434688Y-47493754D01*
X123509985Y-47530843D01*
X123612440Y-47575817D01*
X123720183Y-47616226D01*
X123836927Y-47652969D01*
X123966382Y-47686942D01*
X124112260Y-47719044D01*
X124278274Y-47750173D01*
X124468134Y-47781227D01*
X124664531Y-47810145D01*
X124835166Y-47835800D01*
X124978455Y-47861198D01*
X125097992Y-47887602D01*
X125197370Y-47916273D01*
X125280182Y-47948473D01*
X125350022Y-47985465D01*
X125410482Y-48028512D01*
X125465155Y-48078875D01*
X125482786Y-48097583D01*
X125521000Y-48141139D01*
X125549268Y-48176682D01*
X125562382Y-48197583D01*
X125562732Y-48199297D01*
X125567320Y-48209806D01*
X125583242Y-48209924D01*
X125613734Y-48198254D01*
X125662032Y-48173396D01*
X125731373Y-48133952D01*
X125779561Y-48105587D01*
X125851417Y-48061247D01*
X125907258Y-48023279D01*
X125943333Y-47994416D01*
X125955887Y-47977388D01*
X125955879Y-47977264D01*
X125948094Y-47961037D01*
X125926108Y-47920400D01*
X125891197Y-47857567D01*
X125844637Y-47774752D01*
X125787705Y-47674172D01*
X125721677Y-47558040D01*
X125647828Y-47428571D01*
X125567436Y-47287980D01*
X125481776Y-47138482D01*
X125392124Y-46982292D01*
X125299757Y-46821624D01*
X125205951Y-46658693D01*
X125111982Y-46495713D01*
X125019126Y-46334900D01*
X124928660Y-46178468D01*
X124841859Y-46028633D01*
X124760000Y-45887608D01*
X124684359Y-45757609D01*
X124616213Y-45640849D01*
X124556837Y-45539545D01*
X124507507Y-45455911D01*
X124469500Y-45392162D01*
X124444093Y-45350511D01*
X124432560Y-45333175D01*
X124432077Y-45332805D01*
X124422957Y-45345835D01*
X124422957Y-45345835D01*
G37*
X124422957Y-45345835D02*
X124399935Y-45383245D01*
X124364466Y-45442514D01*
X124318004Y-45521118D01*
X124262004Y-45616538D01*
X124197919Y-45726250D01*
X124127204Y-45847734D01*
X124051313Y-45978468D01*
X123971701Y-46115930D01*
X123889822Y-46257598D01*
X123807130Y-46400951D01*
X123725079Y-46543467D01*
X123645124Y-46682624D01*
X123568719Y-46815901D01*
X123497318Y-46940776D01*
X123432376Y-47054727D01*
X123375347Y-47155233D01*
X123327685Y-47239772D01*
X123290845Y-47305822D01*
X123266280Y-47350862D01*
X123255446Y-47372370D01*
X123255049Y-47373714D01*
X123268499Y-47391965D01*
X123305886Y-47419882D01*
X123362765Y-47454725D01*
X123434688Y-47493754D01*
X123509985Y-47530843D01*
X123612440Y-47575817D01*
X123720183Y-47616226D01*
X123836927Y-47652969D01*
X123966382Y-47686942D01*
X124112260Y-47719044D01*
X124278274Y-47750173D01*
X124468134Y-47781227D01*
X124664531Y-47810145D01*
X124835166Y-47835800D01*
X124978455Y-47861198D01*
X125097992Y-47887602D01*
X125197370Y-47916273D01*
X125280182Y-47948473D01*
X125350022Y-47985465D01*
X125410482Y-48028512D01*
X125465155Y-48078875D01*
X125482786Y-48097583D01*
X125521000Y-48141139D01*
X125549268Y-48176682D01*
X125562382Y-48197583D01*
X125562732Y-48199297D01*
X125567320Y-48209806D01*
X125583242Y-48209924D01*
X125613734Y-48198254D01*
X125662032Y-48173396D01*
X125731373Y-48133952D01*
X125779561Y-48105587D01*
X125851417Y-48061247D01*
X125907258Y-48023279D01*
X125943333Y-47994416D01*
X125955887Y-47977388D01*
X125955879Y-47977264D01*
X125948094Y-47961037D01*
X125926108Y-47920400D01*
X125891197Y-47857567D01*
X125844637Y-47774752D01*
X125787705Y-47674172D01*
X125721677Y-47558040D01*
X125647828Y-47428571D01*
X125567436Y-47287980D01*
X125481776Y-47138482D01*
X125392124Y-46982292D01*
X125299757Y-46821624D01*
X125205951Y-46658693D01*
X125111982Y-46495713D01*
X125019126Y-46334900D01*
X124928660Y-46178468D01*
X124841859Y-46028633D01*
X124760000Y-45887608D01*
X124684359Y-45757609D01*
X124616213Y-45640849D01*
X124556837Y-45539545D01*
X124507507Y-45455911D01*
X124469500Y-45392162D01*
X124444093Y-45350511D01*
X124432560Y-45333175D01*
X124432077Y-45332805D01*
X124422957Y-45345835D01*
G36*
X122599472Y-48494619D02*
G01*
X122588092Y-48513693D01*
X122562512Y-48557421D01*
X122523998Y-48623619D01*
X122473814Y-48710102D01*
X122413225Y-48814685D01*
X122343497Y-48935183D01*
X122265893Y-49069412D01*
X122181680Y-49215187D01*
X122092121Y-49370323D01*
X122000002Y-49530000D01*
X121905924Y-49693117D01*
X121815598Y-49849709D01*
X121730335Y-49997506D01*
X121651443Y-50134240D01*
X121580231Y-50257642D01*
X121518009Y-50365444D01*
X121466087Y-50455377D01*
X121425772Y-50525173D01*
X121398376Y-50572564D01*
X121385493Y-50594786D01*
X121364493Y-50632330D01*
X121353075Y-50655831D01*
X121352449Y-50659920D01*
X121366364Y-50652242D01*
X121405059Y-50630203D01*
X121466513Y-50594971D01*
X121548702Y-50547711D01*
X121649604Y-50489589D01*
X121767195Y-50421771D01*
X121899454Y-50345424D01*
X122044358Y-50261714D01*
X122199883Y-50171806D01*
X122364008Y-50076867D01*
X122426451Y-50040732D01*
X122593513Y-49944083D01*
X122752926Y-49851938D01*
X122902645Y-49765475D01*
X123040624Y-49685871D01*
X123164815Y-49614305D01*
X123273173Y-49551955D01*
X123363652Y-49499998D01*
X123434204Y-49459613D01*
X123482785Y-49431978D01*
X123507346Y-49418272D01*
X123509915Y-49416974D01*
X123502431Y-49405220D01*
X123476386Y-49373795D01*
X123434441Y-49325594D01*
X123379254Y-49263510D01*
X123313483Y-49190439D01*
X123239788Y-49109276D01*
X123160827Y-49022916D01*
X123079260Y-48934253D01*
X122997746Y-48846182D01*
X122918943Y-48761599D01*
X122845510Y-48683397D01*
X122780107Y-48614472D01*
X122725392Y-48557719D01*
X122684023Y-48516032D01*
X122669836Y-48502363D01*
X122622820Y-48458201D01*
X122599472Y-48494619D01*
X122599472Y-48494619D01*
G37*
X122599472Y-48494619D02*
X122588092Y-48513693D01*
X122562512Y-48557421D01*
X122523998Y-48623619D01*
X122473814Y-48710102D01*
X122413225Y-48814685D01*
X122343497Y-48935183D01*
X122265893Y-49069412D01*
X122181680Y-49215187D01*
X122092121Y-49370323D01*
X122000002Y-49530000D01*
X121905924Y-49693117D01*
X121815598Y-49849709D01*
X121730335Y-49997506D01*
X121651443Y-50134240D01*
X121580231Y-50257642D01*
X121518009Y-50365444D01*
X121466087Y-50455377D01*
X121425772Y-50525173D01*
X121398376Y-50572564D01*
X121385493Y-50594786D01*
X121364493Y-50632330D01*
X121353075Y-50655831D01*
X121352449Y-50659920D01*
X121366364Y-50652242D01*
X121405059Y-50630203D01*
X121466513Y-50594971D01*
X121548702Y-50547711D01*
X121649604Y-50489589D01*
X121767195Y-50421771D01*
X121899454Y-50345424D01*
X122044358Y-50261714D01*
X122199883Y-50171806D01*
X122364008Y-50076867D01*
X122426451Y-50040732D01*
X122593513Y-49944083D01*
X122752926Y-49851938D01*
X122902645Y-49765475D01*
X123040624Y-49685871D01*
X123164815Y-49614305D01*
X123273173Y-49551955D01*
X123363652Y-49499998D01*
X123434204Y-49459613D01*
X123482785Y-49431978D01*
X123507346Y-49418272D01*
X123509915Y-49416974D01*
X123502431Y-49405220D01*
X123476386Y-49373795D01*
X123434441Y-49325594D01*
X123379254Y-49263510D01*
X123313483Y-49190439D01*
X123239788Y-49109276D01*
X123160827Y-49022916D01*
X123079260Y-48934253D01*
X122997746Y-48846182D01*
X122918943Y-48761599D01*
X122845510Y-48683397D01*
X122780107Y-48614472D01*
X122725392Y-48557719D01*
X122684023Y-48516032D01*
X122669836Y-48502363D01*
X122622820Y-48458201D01*
X122599472Y-48494619D01*
G36*
X126264906Y-48551158D02*
G01*
X126232381Y-48563736D01*
X126182807Y-48588712D01*
X126111626Y-48627876D01*
X126106084Y-48630988D01*
X126040526Y-48668476D01*
X125985202Y-48701319D01*
X125945545Y-48726205D01*
X125926988Y-48739820D01*
X125926469Y-48740487D01*
X125930952Y-48759390D01*
X125951514Y-48801605D01*
X125986817Y-48864832D01*
X126035520Y-48946772D01*
X126096282Y-49045122D01*
X126167764Y-49157585D01*
X126185555Y-49185165D01*
X126231907Y-49261699D01*
X126265658Y-49327556D01*
X126283847Y-49376782D01*
X126285714Y-49386507D01*
X126284885Y-49429312D01*
X126275606Y-49497209D01*
X126259032Y-49585843D01*
X126236320Y-49690859D01*
X126208627Y-49807902D01*
X126177110Y-49932616D01*
X126142925Y-50060645D01*
X126107229Y-50187634D01*
X126071179Y-50309228D01*
X126035932Y-50421072D01*
X126002644Y-50518810D01*
X125972472Y-50598087D01*
X125951439Y-50645122D01*
X125926663Y-50695225D01*
X125903270Y-50743168D01*
X125902003Y-50745793D01*
X125863301Y-50794220D01*
X125806816Y-50826828D01*
X125741061Y-50842454D01*
X125674549Y-50839937D01*
X125615795Y-50818114D01*
X125582742Y-50789382D01*
X125535141Y-50710583D01*
X125500261Y-50612378D01*
X125481123Y-50504779D01*
X125478412Y-50443780D01*
X125489330Y-50329935D01*
X125521376Y-50235660D01*
X125576274Y-50156379D01*
X125593393Y-50138733D01*
X125644339Y-50089235D01*
X125647837Y-49739362D01*
X125651336Y-49389489D01*
X125562182Y-49254531D01*
X125520346Y-49193445D01*
X125480055Y-49138493D01*
X125447057Y-49097336D01*
X125432874Y-49082192D01*
X125392719Y-49044810D01*
X125338335Y-49074098D01*
X125303961Y-49095084D01*
X125285154Y-49111378D01*
X125283951Y-49114307D01*
X125271097Y-49126728D01*
X125249104Y-49135977D01*
X125227850Y-49144313D01*
X125195306Y-49160149D01*
X125148678Y-49185033D01*
X125085171Y-49220509D01*
X125001992Y-49268123D01*
X124896347Y-49329422D01*
X124838938Y-49362932D01*
X124771406Y-49403071D01*
X124727115Y-49431659D01*
X124702145Y-49452039D01*
X124692577Y-49467553D01*
X124694492Y-49481546D01*
X124696089Y-49484796D01*
X124711624Y-49505266D01*
X124744864Y-49543665D01*
X124791938Y-49595696D01*
X124848972Y-49657066D01*
X124898300Y-49709090D01*
X125011970Y-49832567D01*
X125100895Y-49939591D01*
X125165866Y-50031240D01*
X125207679Y-50108588D01*
X125221783Y-50147866D01*
X125227608Y-50182249D01*
X125233625Y-50240899D01*
X125239304Y-50317117D01*
X125244116Y-50404202D01*
X125246381Y-50459268D01*
X125249541Y-50554464D01*
X125250931Y-50624062D01*
X125250142Y-50673409D01*
X125246765Y-50707854D01*
X125240392Y-50732743D01*
X125230613Y-50753425D01*
X125222933Y-50766053D01*
X125178579Y-50814726D01*
X125121426Y-50848645D01*
X125061292Y-50863438D01*
X125016227Y-50858086D01*
X124975424Y-50834930D01*
X124924276Y-50793462D01*
X124869958Y-50740912D01*
X124819643Y-50684516D01*
X124780506Y-50631505D01*
X124766095Y-50605889D01*
X124744509Y-50570814D01*
X124705247Y-50517389D01*
X124651898Y-50449789D01*
X124588048Y-50372190D01*
X124517285Y-50288768D01*
X124443196Y-50203698D01*
X124369368Y-50121155D01*
X124299389Y-50045316D01*
X124236845Y-49980356D01*
X124187740Y-49932669D01*
X124133221Y-49885032D01*
X124087358Y-49849908D01*
X124055189Y-49830949D01*
X124044511Y-49828864D01*
X124028147Y-49837274D01*
X123987329Y-49859846D01*
X123924414Y-49895224D01*
X123841756Y-49942054D01*
X123741711Y-49998981D01*
X123626634Y-50064649D01*
X123498881Y-50137703D01*
X123360806Y-50216788D01*
X123214766Y-50300548D01*
X123063116Y-50387629D01*
X122908210Y-50476676D01*
X122752405Y-50566332D01*
X122598056Y-50655243D01*
X122447518Y-50742054D01*
X122303146Y-50825409D01*
X122167296Y-50903954D01*
X122042323Y-50976333D01*
X121930583Y-51041190D01*
X121834430Y-51097171D01*
X121756221Y-51142920D01*
X121698311Y-51177083D01*
X121663054Y-51198304D01*
X121652835Y-51204963D01*
X121666598Y-51206280D01*
X121709896Y-51207559D01*
X121781286Y-51208796D01*
X121879327Y-51209983D01*
X122002578Y-51211115D01*
X122149597Y-51212186D01*
X122318943Y-51213189D01*
X122509174Y-51214119D01*
X122718849Y-51214968D01*
X122946527Y-51215732D01*
X123190765Y-51216403D01*
X123450123Y-51216976D01*
X123723159Y-51217444D01*
X124008432Y-51217802D01*
X124304500Y-51218042D01*
X124609921Y-51218159D01*
X124738076Y-51218171D01*
X127838030Y-51218171D01*
X127616947Y-50834847D01*
X127570144Y-50753680D01*
X127509898Y-50649166D01*
X127438222Y-50524801D01*
X127357131Y-50384082D01*
X127268638Y-50230503D01*
X127174760Y-50067562D01*
X127077509Y-49898754D01*
X126978900Y-49727575D01*
X126880947Y-49557521D01*
X126856175Y-49514512D01*
X126765848Y-49357857D01*
X126679711Y-49208803D01*
X126599058Y-49069568D01*
X126525184Y-48942371D01*
X126459383Y-48829432D01*
X126402950Y-48732968D01*
X126357179Y-48655200D01*
X126323365Y-48598346D01*
X126302802Y-48564625D01*
X126297047Y-48556040D01*
X126284942Y-48549189D01*
X126264906Y-48551158D01*
X126264906Y-48551158D01*
G37*
X126264906Y-48551158D02*
X126232381Y-48563736D01*
X126182807Y-48588712D01*
X126111626Y-48627876D01*
X126106084Y-48630988D01*
X126040526Y-48668476D01*
X125985202Y-48701319D01*
X125945545Y-48726205D01*
X125926988Y-48739820D01*
X125926469Y-48740487D01*
X125930952Y-48759390D01*
X125951514Y-48801605D01*
X125986817Y-48864832D01*
X126035520Y-48946772D01*
X126096282Y-49045122D01*
X126167764Y-49157585D01*
X126185555Y-49185165D01*
X126231907Y-49261699D01*
X126265658Y-49327556D01*
X126283847Y-49376782D01*
X126285714Y-49386507D01*
X126284885Y-49429312D01*
X126275606Y-49497209D01*
X126259032Y-49585843D01*
X126236320Y-49690859D01*
X126208627Y-49807902D01*
X126177110Y-49932616D01*
X126142925Y-50060645D01*
X126107229Y-50187634D01*
X126071179Y-50309228D01*
X126035932Y-50421072D01*
X126002644Y-50518810D01*
X125972472Y-50598087D01*
X125951439Y-50645122D01*
X125926663Y-50695225D01*
X125903270Y-50743168D01*
X125902003Y-50745793D01*
X125863301Y-50794220D01*
X125806816Y-50826828D01*
X125741061Y-50842454D01*
X125674549Y-50839937D01*
X125615795Y-50818114D01*
X125582742Y-50789382D01*
X125535141Y-50710583D01*
X125500261Y-50612378D01*
X125481123Y-50504779D01*
X125478412Y-50443780D01*
X125489330Y-50329935D01*
X125521376Y-50235660D01*
X125576274Y-50156379D01*
X125593393Y-50138733D01*
X125644339Y-50089235D01*
X125647837Y-49739362D01*
X125651336Y-49389489D01*
X125562182Y-49254531D01*
X125520346Y-49193445D01*
X125480055Y-49138493D01*
X125447057Y-49097336D01*
X125432874Y-49082192D01*
X125392719Y-49044810D01*
X125338335Y-49074098D01*
X125303961Y-49095084D01*
X125285154Y-49111378D01*
X125283951Y-49114307D01*
X125271097Y-49126728D01*
X125249104Y-49135977D01*
X125227850Y-49144313D01*
X125195306Y-49160149D01*
X125148678Y-49185033D01*
X125085171Y-49220509D01*
X125001992Y-49268123D01*
X124896347Y-49329422D01*
X124838938Y-49362932D01*
X124771406Y-49403071D01*
X124727115Y-49431659D01*
X124702145Y-49452039D01*
X124692577Y-49467553D01*
X124694492Y-49481546D01*
X124696089Y-49484796D01*
X124711624Y-49505266D01*
X124744864Y-49543665D01*
X124791938Y-49595696D01*
X124848972Y-49657066D01*
X124898300Y-49709090D01*
X125011970Y-49832567D01*
X125100895Y-49939591D01*
X125165866Y-50031240D01*
X125207679Y-50108588D01*
X125221783Y-50147866D01*
X125227608Y-50182249D01*
X125233625Y-50240899D01*
X125239304Y-50317117D01*
X125244116Y-50404202D01*
X125246381Y-50459268D01*
X125249541Y-50554464D01*
X125250931Y-50624062D01*
X125250142Y-50673409D01*
X125246765Y-50707854D01*
X125240392Y-50732743D01*
X125230613Y-50753425D01*
X125222933Y-50766053D01*
X125178579Y-50814726D01*
X125121426Y-50848645D01*
X125061292Y-50863438D01*
X125016227Y-50858086D01*
X124975424Y-50834930D01*
X124924276Y-50793462D01*
X124869958Y-50740912D01*
X124819643Y-50684516D01*
X124780506Y-50631505D01*
X124766095Y-50605889D01*
X124744509Y-50570814D01*
X124705247Y-50517389D01*
X124651898Y-50449789D01*
X124588048Y-50372190D01*
X124517285Y-50288768D01*
X124443196Y-50203698D01*
X124369368Y-50121155D01*
X124299389Y-50045316D01*
X124236845Y-49980356D01*
X124187740Y-49932669D01*
X124133221Y-49885032D01*
X124087358Y-49849908D01*
X124055189Y-49830949D01*
X124044511Y-49828864D01*
X124028147Y-49837274D01*
X123987329Y-49859846D01*
X123924414Y-49895224D01*
X123841756Y-49942054D01*
X123741711Y-49998981D01*
X123626634Y-50064649D01*
X123498881Y-50137703D01*
X123360806Y-50216788D01*
X123214766Y-50300548D01*
X123063116Y-50387629D01*
X122908210Y-50476676D01*
X122752405Y-50566332D01*
X122598056Y-50655243D01*
X122447518Y-50742054D01*
X122303146Y-50825409D01*
X122167296Y-50903954D01*
X122042323Y-50976333D01*
X121930583Y-51041190D01*
X121834430Y-51097171D01*
X121756221Y-51142920D01*
X121698311Y-51177083D01*
X121663054Y-51198304D01*
X121652835Y-51204963D01*
X121666598Y-51206280D01*
X121709896Y-51207559D01*
X121781286Y-51208796D01*
X121879327Y-51209983D01*
X122002578Y-51211115D01*
X122149597Y-51212186D01*
X122318943Y-51213189D01*
X122509174Y-51214119D01*
X122718849Y-51214968D01*
X122946527Y-51215732D01*
X123190765Y-51216403D01*
X123450123Y-51216976D01*
X123723159Y-51217444D01*
X124008432Y-51217802D01*
X124304500Y-51218042D01*
X124609921Y-51218159D01*
X124738076Y-51218171D01*
X127838030Y-51218171D01*
X127616947Y-50834847D01*
X127570144Y-50753680D01*
X127509898Y-50649166D01*
X127438222Y-50524801D01*
X127357131Y-50384082D01*
X127268638Y-50230503D01*
X127174760Y-50067562D01*
X127077509Y-49898754D01*
X126978900Y-49727575D01*
X126880947Y-49557521D01*
X126856175Y-49514512D01*
X126765848Y-49357857D01*
X126679711Y-49208803D01*
X126599058Y-49069568D01*
X126525184Y-48942371D01*
X126459383Y-48829432D01*
X126402950Y-48732968D01*
X126357179Y-48655200D01*
X126323365Y-48598346D01*
X126302802Y-48564625D01*
X126297047Y-48556040D01*
X126284942Y-48549189D01*
X126264906Y-48551158D01*
G36*
X124213036Y-36467076D02*
G01*
X124137487Y-36867822D01*
X123579959Y-37097654D01*
X123245535Y-36870248D01*
X123151878Y-36806931D01*
X123067218Y-36750396D01*
X122995505Y-36703227D01*
X122940689Y-36668002D01*
X122906720Y-36647305D01*
X122897470Y-36642842D01*
X122880805Y-36654320D01*
X122845194Y-36686051D01*
X122794629Y-36733983D01*
X122733100Y-36794062D01*
X122664601Y-36862233D01*
X122593121Y-36934445D01*
X122522653Y-37006642D01*
X122457189Y-37074773D01*
X122400720Y-37134783D01*
X122357237Y-37182619D01*
X122330732Y-37214227D01*
X122324395Y-37224805D01*
X122333514Y-37244306D01*
X122359080Y-37287031D01*
X122398403Y-37348798D01*
X122448797Y-37425431D01*
X122507573Y-37512748D01*
X122541632Y-37562552D01*
X122603711Y-37653493D01*
X122658874Y-37735559D01*
X122704446Y-37804663D01*
X122737750Y-37856722D01*
X122756110Y-37887650D01*
X122758869Y-37894150D01*
X122752615Y-37912621D01*
X122735566Y-37955672D01*
X122710297Y-38017249D01*
X122679378Y-38091299D01*
X122645382Y-38171770D01*
X122610882Y-38252607D01*
X122578449Y-38327758D01*
X122550657Y-38391171D01*
X122530077Y-38436793D01*
X122519281Y-38458569D01*
X122518644Y-38459426D01*
X122501693Y-38463584D01*
X122456549Y-38472861D01*
X122387890Y-38486344D01*
X122300398Y-38503121D01*
X122198750Y-38522281D01*
X122139444Y-38533330D01*
X122030828Y-38554010D01*
X121932723Y-38573689D01*
X121850091Y-38591289D01*
X121787896Y-38605733D01*
X121751101Y-38615946D01*
X121743704Y-38619186D01*
X121736460Y-38641117D01*
X121730615Y-38690647D01*
X121726165Y-38761985D01*
X121723107Y-38849339D01*
X121721435Y-38946917D01*
X121721147Y-39048926D01*
X121722239Y-39149575D01*
X121724706Y-39243072D01*
X121728544Y-39323625D01*
X121733750Y-39385442D01*
X121740319Y-39422730D01*
X121744259Y-39430493D01*
X121767812Y-39439798D01*
X121817718Y-39453100D01*
X121887377Y-39468837D01*
X121970187Y-39485446D01*
X121999095Y-39490819D01*
X122138469Y-39516348D01*
X122248564Y-39536908D01*
X122333018Y-39553315D01*
X122395470Y-39566387D01*
X122439556Y-39576941D01*
X122468915Y-39585794D01*
X122487185Y-39593763D01*
X122498002Y-39601665D01*
X122499515Y-39603227D01*
X122514623Y-39628386D01*
X122537671Y-39677350D01*
X122566356Y-39744121D01*
X122598378Y-39822705D01*
X122631435Y-39907107D01*
X122663227Y-39991330D01*
X122691451Y-40069379D01*
X122713807Y-40135259D01*
X122727993Y-40182973D01*
X122731707Y-40206527D01*
X122731398Y-40207352D01*
X122718811Y-40226604D01*
X122690256Y-40268963D01*
X122648733Y-40330021D01*
X122597244Y-40405368D01*
X122538789Y-40490596D01*
X122522142Y-40514815D01*
X122462785Y-40602623D01*
X122410553Y-40682738D01*
X122368292Y-40750562D01*
X122338847Y-40801493D01*
X122325063Y-40830931D01*
X122324395Y-40834548D01*
X122335976Y-40853557D01*
X122367976Y-40891214D01*
X122416282Y-40943473D01*
X122476780Y-41006286D01*
X122545356Y-41075606D01*
X122617896Y-41147385D01*
X122690288Y-41217577D01*
X122758416Y-41282135D01*
X122818168Y-41337010D01*
X122865429Y-41378156D01*
X122896087Y-41401526D01*
X122904568Y-41405342D01*
X122924309Y-41396355D01*
X122964726Y-41372116D01*
X123019237Y-41336709D01*
X123061177Y-41308211D01*
X123137171Y-41255918D01*
X123227166Y-41194345D01*
X123317436Y-41132870D01*
X123365968Y-41099969D01*
X123530238Y-40988859D01*
X123668131Y-41063416D01*
X123730951Y-41096078D01*
X123784371Y-41121466D01*
X123820516Y-41135946D01*
X123829716Y-41137960D01*
X123840779Y-41123084D01*
X123862606Y-41081047D01*
X123893566Y-41015727D01*
X123932030Y-40931000D01*
X123976368Y-40830745D01*
X124024953Y-40718839D01*
X124076154Y-40599159D01*
X124128341Y-40475584D01*
X124179887Y-40351991D01*
X124229160Y-40232257D01*
X124274533Y-40120259D01*
X124314375Y-40019877D01*
X124347058Y-39934986D01*
X124370951Y-39869465D01*
X124384426Y-39827190D01*
X124386594Y-39812672D01*
X124369417Y-39794153D01*
X124331810Y-39764090D01*
X124281634Y-39728732D01*
X124277422Y-39725934D01*
X124147736Y-39622125D01*
X124043166Y-39501015D01*
X123964619Y-39366476D01*
X123913001Y-39222382D01*
X123889218Y-39072605D01*
X123894177Y-38921017D01*
X123928783Y-38771492D01*
X123993943Y-38627900D01*
X124013114Y-38596484D01*
X124112826Y-38469625D01*
X124230623Y-38367755D01*
X124362429Y-38291404D01*
X124504167Y-38241102D01*
X124651758Y-38217379D01*
X124801127Y-38220765D01*
X124948197Y-38251788D01*
X125088889Y-38310980D01*
X125219127Y-38398869D01*
X125259414Y-38434542D01*
X125361945Y-38546206D01*
X125436659Y-38663757D01*
X125487910Y-38795520D01*
X125516454Y-38926007D01*
X125523500Y-39072716D01*
X125500004Y-39220153D01*
X125448351Y-39363334D01*
X125370929Y-39497277D01*
X125270125Y-39616998D01*
X125148324Y-39717514D01*
X125132316Y-39728109D01*
X125081602Y-39762806D01*
X125043050Y-39792870D01*
X125024619Y-39812065D01*
X125024351Y-39812672D01*
X125028308Y-39833436D01*
X125043993Y-39880562D01*
X125069778Y-39950173D01*
X125104031Y-40038393D01*
X125145123Y-40141344D01*
X125191424Y-40255150D01*
X125241304Y-40375935D01*
X125293133Y-40499821D01*
X125345281Y-40622932D01*
X125396118Y-40741391D01*
X125444013Y-40851323D01*
X125487338Y-40948849D01*
X125524462Y-41030093D01*
X125553756Y-41091179D01*
X125573588Y-41128230D01*
X125581574Y-41137960D01*
X125605979Y-41130383D01*
X125651642Y-41110060D01*
X125710690Y-41080625D01*
X125743160Y-41063416D01*
X125881053Y-40988859D01*
X126045323Y-41099969D01*
X126129179Y-41156890D01*
X126220987Y-41219530D01*
X126307020Y-41278511D01*
X126350113Y-41308211D01*
X126410723Y-41348910D01*
X126462045Y-41381163D01*
X126497385Y-41400884D01*
X126508863Y-41405054D01*
X126525570Y-41393807D01*
X126562546Y-41362411D01*
X126616205Y-41314124D01*
X126682962Y-41252208D01*
X126759234Y-41179921D01*
X126807473Y-41133508D01*
X126891867Y-41050587D01*
X126964803Y-40976420D01*
X127023331Y-40914180D01*
X127064503Y-40867041D01*
X127085372Y-40838173D01*
X127087374Y-40832315D01*
X127078083Y-40810032D01*
X127052409Y-40764977D01*
X127013200Y-40701711D01*
X126963303Y-40624795D01*
X126905567Y-40538792D01*
X126889149Y-40514815D01*
X126829323Y-40427670D01*
X126775650Y-40349210D01*
X126731130Y-40283845D01*
X126698765Y-40235984D01*
X126681555Y-40210035D01*
X126679893Y-40207352D01*
X126682379Y-40186672D01*
X126695577Y-40141204D01*
X126717186Y-40076944D01*
X126744904Y-39999887D01*
X126776430Y-39916029D01*
X126809463Y-39831366D01*
X126841701Y-39751892D01*
X126870843Y-39683604D01*
X126894588Y-39632497D01*
X126910635Y-39604567D01*
X126911775Y-39603227D01*
X126921588Y-39595245D01*
X126938161Y-39587351D01*
X126965132Y-39578729D01*
X127006139Y-39568562D01*
X127064820Y-39556031D01*
X127144813Y-39540321D01*
X127249755Y-39520613D01*
X127383285Y-39496092D01*
X127412196Y-39490819D01*
X127497882Y-39474264D01*
X127572582Y-39458069D01*
X127629694Y-39443796D01*
X127662617Y-39433008D01*
X127667031Y-39430493D01*
X127674306Y-39408196D01*
X127680219Y-39358369D01*
X127684766Y-39286804D01*
X127687945Y-39199293D01*
X127689749Y-39101628D01*
X127690177Y-38999601D01*
X127689223Y-38899003D01*
X127686884Y-38805627D01*
X127683156Y-38725265D01*
X127678034Y-38663709D01*
X127671516Y-38626750D01*
X127667586Y-38619186D01*
X127645708Y-38611556D01*
X127595891Y-38599142D01*
X127523097Y-38583022D01*
X127432289Y-38564273D01*
X127328431Y-38543971D01*
X127271846Y-38533330D01*
X127164486Y-38513260D01*
X127068746Y-38495080D01*
X126989306Y-38479699D01*
X126930846Y-38468031D01*
X126898045Y-38460988D01*
X126892646Y-38459426D01*
X126883522Y-38441822D01*
X126864235Y-38399418D01*
X126837355Y-38338272D01*
X126805454Y-38264443D01*
X126771102Y-38183989D01*
X126736871Y-38102968D01*
X126705331Y-38027437D01*
X126679054Y-37963455D01*
X126660611Y-37917080D01*
X126652571Y-37894369D01*
X126652422Y-37893376D01*
X126661535Y-37875461D01*
X126687086Y-37834233D01*
X126726388Y-37773791D01*
X126776757Y-37698231D01*
X126835506Y-37611652D01*
X126869658Y-37561921D01*
X126931890Y-37470736D01*
X126987164Y-37387949D01*
X127032782Y-37317749D01*
X127066048Y-37264324D01*
X127084264Y-37231861D01*
X127086895Y-37224583D01*
X127075586Y-37207645D01*
X127044319Y-37171478D01*
X126997090Y-37120135D01*
X126937892Y-37057667D01*
X126870719Y-36988126D01*
X126799566Y-36915565D01*
X126728426Y-36844035D01*
X126661293Y-36777587D01*
X126602161Y-36720274D01*
X126555025Y-36676147D01*
X126523877Y-36649259D01*
X126513457Y-36642842D01*
X126496491Y-36651865D01*
X126455911Y-36677215D01*
X126395663Y-36716310D01*
X126319693Y-36766571D01*
X126231946Y-36825417D01*
X126165756Y-36870248D01*
X125831332Y-37097654D01*
X125552567Y-36982738D01*
X125273803Y-36867822D01*
X125198254Y-36467076D01*
X125122706Y-36066329D01*
X124288585Y-36066329D01*
X124213036Y-36467076D01*
X124213036Y-36467076D01*
G37*
X124213036Y-36467076D02*
X124137487Y-36867822D01*
X123579959Y-37097654D01*
X123245535Y-36870248D01*
X123151878Y-36806931D01*
X123067218Y-36750396D01*
X122995505Y-36703227D01*
X122940689Y-36668002D01*
X122906720Y-36647305D01*
X122897470Y-36642842D01*
X122880805Y-36654320D01*
X122845194Y-36686051D01*
X122794629Y-36733983D01*
X122733100Y-36794062D01*
X122664601Y-36862233D01*
X122593121Y-36934445D01*
X122522653Y-37006642D01*
X122457189Y-37074773D01*
X122400720Y-37134783D01*
X122357237Y-37182619D01*
X122330732Y-37214227D01*
X122324395Y-37224805D01*
X122333514Y-37244306D01*
X122359080Y-37287031D01*
X122398403Y-37348798D01*
X122448797Y-37425431D01*
X122507573Y-37512748D01*
X122541632Y-37562552D01*
X122603711Y-37653493D01*
X122658874Y-37735559D01*
X122704446Y-37804663D01*
X122737750Y-37856722D01*
X122756110Y-37887650D01*
X122758869Y-37894150D01*
X122752615Y-37912621D01*
X122735566Y-37955672D01*
X122710297Y-38017249D01*
X122679378Y-38091299D01*
X122645382Y-38171770D01*
X122610882Y-38252607D01*
X122578449Y-38327758D01*
X122550657Y-38391171D01*
X122530077Y-38436793D01*
X122519281Y-38458569D01*
X122518644Y-38459426D01*
X122501693Y-38463584D01*
X122456549Y-38472861D01*
X122387890Y-38486344D01*
X122300398Y-38503121D01*
X122198750Y-38522281D01*
X122139444Y-38533330D01*
X122030828Y-38554010D01*
X121932723Y-38573689D01*
X121850091Y-38591289D01*
X121787896Y-38605733D01*
X121751101Y-38615946D01*
X121743704Y-38619186D01*
X121736460Y-38641117D01*
X121730615Y-38690647D01*
X121726165Y-38761985D01*
X121723107Y-38849339D01*
X121721435Y-38946917D01*
X121721147Y-39048926D01*
X121722239Y-39149575D01*
X121724706Y-39243072D01*
X121728544Y-39323625D01*
X121733750Y-39385442D01*
X121740319Y-39422730D01*
X121744259Y-39430493D01*
X121767812Y-39439798D01*
X121817718Y-39453100D01*
X121887377Y-39468837D01*
X121970187Y-39485446D01*
X121999095Y-39490819D01*
X122138469Y-39516348D01*
X122248564Y-39536908D01*
X122333018Y-39553315D01*
X122395470Y-39566387D01*
X122439556Y-39576941D01*
X122468915Y-39585794D01*
X122487185Y-39593763D01*
X122498002Y-39601665D01*
X122499515Y-39603227D01*
X122514623Y-39628386D01*
X122537671Y-39677350D01*
X122566356Y-39744121D01*
X122598378Y-39822705D01*
X122631435Y-39907107D01*
X122663227Y-39991330D01*
X122691451Y-40069379D01*
X122713807Y-40135259D01*
X122727993Y-40182973D01*
X122731707Y-40206527D01*
X122731398Y-40207352D01*
X122718811Y-40226604D01*
X122690256Y-40268963D01*
X122648733Y-40330021D01*
X122597244Y-40405368D01*
X122538789Y-40490596D01*
X122522142Y-40514815D01*
X122462785Y-40602623D01*
X122410553Y-40682738D01*
X122368292Y-40750562D01*
X122338847Y-40801493D01*
X122325063Y-40830931D01*
X122324395Y-40834548D01*
X122335976Y-40853557D01*
X122367976Y-40891214D01*
X122416282Y-40943473D01*
X122476780Y-41006286D01*
X122545356Y-41075606D01*
X122617896Y-41147385D01*
X122690288Y-41217577D01*
X122758416Y-41282135D01*
X122818168Y-41337010D01*
X122865429Y-41378156D01*
X122896087Y-41401526D01*
X122904568Y-41405342D01*
X122924309Y-41396355D01*
X122964726Y-41372116D01*
X123019237Y-41336709D01*
X123061177Y-41308211D01*
X123137171Y-41255918D01*
X123227166Y-41194345D01*
X123317436Y-41132870D01*
X123365968Y-41099969D01*
X123530238Y-40988859D01*
X123668131Y-41063416D01*
X123730951Y-41096078D01*
X123784371Y-41121466D01*
X123820516Y-41135946D01*
X123829716Y-41137960D01*
X123840779Y-41123084D01*
X123862606Y-41081047D01*
X123893566Y-41015727D01*
X123932030Y-40931000D01*
X123976368Y-40830745D01*
X124024953Y-40718839D01*
X124076154Y-40599159D01*
X124128341Y-40475584D01*
X124179887Y-40351991D01*
X124229160Y-40232257D01*
X124274533Y-40120259D01*
X124314375Y-40019877D01*
X124347058Y-39934986D01*
X124370951Y-39869465D01*
X124384426Y-39827190D01*
X124386594Y-39812672D01*
X124369417Y-39794153D01*
X124331810Y-39764090D01*
X124281634Y-39728732D01*
X124277422Y-39725934D01*
X124147736Y-39622125D01*
X124043166Y-39501015D01*
X123964619Y-39366476D01*
X123913001Y-39222382D01*
X123889218Y-39072605D01*
X123894177Y-38921017D01*
X123928783Y-38771492D01*
X123993943Y-38627900D01*
X124013114Y-38596484D01*
X124112826Y-38469625D01*
X124230623Y-38367755D01*
X124362429Y-38291404D01*
X124504167Y-38241102D01*
X124651758Y-38217379D01*
X124801127Y-38220765D01*
X124948197Y-38251788D01*
X125088889Y-38310980D01*
X125219127Y-38398869D01*
X125259414Y-38434542D01*
X125361945Y-38546206D01*
X125436659Y-38663757D01*
X125487910Y-38795520D01*
X125516454Y-38926007D01*
X125523500Y-39072716D01*
X125500004Y-39220153D01*
X125448351Y-39363334D01*
X125370929Y-39497277D01*
X125270125Y-39616998D01*
X125148324Y-39717514D01*
X125132316Y-39728109D01*
X125081602Y-39762806D01*
X125043050Y-39792870D01*
X125024619Y-39812065D01*
X125024351Y-39812672D01*
X125028308Y-39833436D01*
X125043993Y-39880562D01*
X125069778Y-39950173D01*
X125104031Y-40038393D01*
X125145123Y-40141344D01*
X125191424Y-40255150D01*
X125241304Y-40375935D01*
X125293133Y-40499821D01*
X125345281Y-40622932D01*
X125396118Y-40741391D01*
X125444013Y-40851323D01*
X125487338Y-40948849D01*
X125524462Y-41030093D01*
X125553756Y-41091179D01*
X125573588Y-41128230D01*
X125581574Y-41137960D01*
X125605979Y-41130383D01*
X125651642Y-41110060D01*
X125710690Y-41080625D01*
X125743160Y-41063416D01*
X125881053Y-40988859D01*
X126045323Y-41099969D01*
X126129179Y-41156890D01*
X126220987Y-41219530D01*
X126307020Y-41278511D01*
X126350113Y-41308211D01*
X126410723Y-41348910D01*
X126462045Y-41381163D01*
X126497385Y-41400884D01*
X126508863Y-41405054D01*
X126525570Y-41393807D01*
X126562546Y-41362411D01*
X126616205Y-41314124D01*
X126682962Y-41252208D01*
X126759234Y-41179921D01*
X126807473Y-41133508D01*
X126891867Y-41050587D01*
X126964803Y-40976420D01*
X127023331Y-40914180D01*
X127064503Y-40867041D01*
X127085372Y-40838173D01*
X127087374Y-40832315D01*
X127078083Y-40810032D01*
X127052409Y-40764977D01*
X127013200Y-40701711D01*
X126963303Y-40624795D01*
X126905567Y-40538792D01*
X126889149Y-40514815D01*
X126829323Y-40427670D01*
X126775650Y-40349210D01*
X126731130Y-40283845D01*
X126698765Y-40235984D01*
X126681555Y-40210035D01*
X126679893Y-40207352D01*
X126682379Y-40186672D01*
X126695577Y-40141204D01*
X126717186Y-40076944D01*
X126744904Y-39999887D01*
X126776430Y-39916029D01*
X126809463Y-39831366D01*
X126841701Y-39751892D01*
X126870843Y-39683604D01*
X126894588Y-39632497D01*
X126910635Y-39604567D01*
X126911775Y-39603227D01*
X126921588Y-39595245D01*
X126938161Y-39587351D01*
X126965132Y-39578729D01*
X127006139Y-39568562D01*
X127064820Y-39556031D01*
X127144813Y-39540321D01*
X127249755Y-39520613D01*
X127383285Y-39496092D01*
X127412196Y-39490819D01*
X127497882Y-39474264D01*
X127572582Y-39458069D01*
X127629694Y-39443796D01*
X127662617Y-39433008D01*
X127667031Y-39430493D01*
X127674306Y-39408196D01*
X127680219Y-39358369D01*
X127684766Y-39286804D01*
X127687945Y-39199293D01*
X127689749Y-39101628D01*
X127690177Y-38999601D01*
X127689223Y-38899003D01*
X127686884Y-38805627D01*
X127683156Y-38725265D01*
X127678034Y-38663709D01*
X127671516Y-38626750D01*
X127667586Y-38619186D01*
X127645708Y-38611556D01*
X127595891Y-38599142D01*
X127523097Y-38583022D01*
X127432289Y-38564273D01*
X127328431Y-38543971D01*
X127271846Y-38533330D01*
X127164486Y-38513260D01*
X127068746Y-38495080D01*
X126989306Y-38479699D01*
X126930846Y-38468031D01*
X126898045Y-38460988D01*
X126892646Y-38459426D01*
X126883522Y-38441822D01*
X126864235Y-38399418D01*
X126837355Y-38338272D01*
X126805454Y-38264443D01*
X126771102Y-38183989D01*
X126736871Y-38102968D01*
X126705331Y-38027437D01*
X126679054Y-37963455D01*
X126660611Y-37917080D01*
X126652571Y-37894369D01*
X126652422Y-37893376D01*
X126661535Y-37875461D01*
X126687086Y-37834233D01*
X126726388Y-37773791D01*
X126776757Y-37698231D01*
X126835506Y-37611652D01*
X126869658Y-37561921D01*
X126931890Y-37470736D01*
X126987164Y-37387949D01*
X127032782Y-37317749D01*
X127066048Y-37264324D01*
X127084264Y-37231861D01*
X127086895Y-37224583D01*
X127075586Y-37207645D01*
X127044319Y-37171478D01*
X126997090Y-37120135D01*
X126937892Y-37057667D01*
X126870719Y-36988126D01*
X126799566Y-36915565D01*
X126728426Y-36844035D01*
X126661293Y-36777587D01*
X126602161Y-36720274D01*
X126555025Y-36676147D01*
X126523877Y-36649259D01*
X126513457Y-36642842D01*
X126496491Y-36651865D01*
X126455911Y-36677215D01*
X126395663Y-36716310D01*
X126319693Y-36766571D01*
X126231946Y-36825417D01*
X126165756Y-36870248D01*
X125831332Y-37097654D01*
X125552567Y-36982738D01*
X125273803Y-36867822D01*
X125198254Y-36467076D01*
X125122706Y-36066329D01*
X124288585Y-36066329D01*
X124213036Y-36467076D01*
G36*
X122322612Y-42006145D02*
G01*
X122265135Y-42023706D01*
X122228128Y-42045895D01*
X122216073Y-42063442D01*
X122219391Y-42084242D01*
X122240921Y-42116919D01*
X122259126Y-42140062D01*
X122296656Y-42181902D01*
X122324852Y-42199505D01*
X122348889Y-42198356D01*
X122420192Y-42180210D01*
X122472558Y-42181034D01*
X122515082Y-42201598D01*
X122529358Y-42213634D01*
X122575053Y-42255983D01*
X122575053Y-42809026D01*
X122758869Y-42809026D01*
X122758869Y-42006921D01*
X122666961Y-42006921D01*
X122611781Y-42009103D01*
X122583312Y-42016851D01*
X122575057Y-42031968D01*
X122575053Y-42032416D01*
X122571155Y-42048249D01*
X122553526Y-42046184D01*
X122529099Y-42034761D01*
X122478650Y-42013505D01*
X122437684Y-42000716D01*
X122384972Y-41997438D01*
X122322612Y-42006145D01*
X122322612Y-42006145D01*
G37*
X122322612Y-42006145D02*
X122265135Y-42023706D01*
X122228128Y-42045895D01*
X122216073Y-42063442D01*
X122219391Y-42084242D01*
X122240921Y-42116919D01*
X122259126Y-42140062D01*
X122296656Y-42181902D01*
X122324852Y-42199505D01*
X122348889Y-42198356D01*
X122420192Y-42180210D01*
X122472558Y-42181034D01*
X122515082Y-42201598D01*
X122529358Y-42213634D01*
X122575053Y-42255983D01*
X122575053Y-42809026D01*
X122758869Y-42809026D01*
X122758869Y-42006921D01*
X122666961Y-42006921D01*
X122611781Y-42009103D01*
X122583312Y-42016851D01*
X122575057Y-42031968D01*
X122575053Y-42032416D01*
X122571155Y-42048249D01*
X122553526Y-42046184D01*
X122529099Y-42034761D01*
X122478650Y-42013505D01*
X122437684Y-42000716D01*
X122384972Y-41997438D01*
X122322612Y-42006145D01*
G36*
X125716043Y-42020726D02*
G01*
X125674454Y-42040590D01*
X125634175Y-42069284D01*
X125603490Y-42102309D01*
X125581139Y-42144431D01*
X125565864Y-42200415D01*
X125556408Y-42275028D01*
X125551513Y-42373035D01*
X125549919Y-42499202D01*
X125549894Y-42512414D01*
X125549527Y-42809026D01*
X125733343Y-42809026D01*
X125733343Y-42535581D01*
X125733473Y-42434277D01*
X125734379Y-42360853D01*
X125736827Y-42309771D01*
X125741586Y-42275490D01*
X125749426Y-42252471D01*
X125761115Y-42235173D01*
X125777398Y-42218081D01*
X125834366Y-42181357D01*
X125896555Y-42174542D01*
X125955801Y-42197761D01*
X125976405Y-42215043D01*
X125991530Y-42231291D01*
X126002390Y-42248691D01*
X126009690Y-42272712D01*
X126014137Y-42308822D01*
X126016436Y-42362488D01*
X126017296Y-42439180D01*
X126017422Y-42532543D01*
X126017422Y-42809026D01*
X126201237Y-42809026D01*
X126201237Y-42006921D01*
X126109329Y-42006921D01*
X126054149Y-42009103D01*
X126025680Y-42016851D01*
X126017425Y-42031968D01*
X126017422Y-42032416D01*
X126013592Y-42047220D01*
X125996699Y-42045540D01*
X125963112Y-42029273D01*
X125886937Y-42005340D01*
X125799800Y-42002678D01*
X125716043Y-42020726D01*
X125716043Y-42020726D01*
G37*
X125716043Y-42020726D02*
X125674454Y-42040590D01*
X125634175Y-42069284D01*
X125603490Y-42102309D01*
X125581139Y-42144431D01*
X125565864Y-42200415D01*
X125556408Y-42275028D01*
X125551513Y-42373035D01*
X125549919Y-42499202D01*
X125549894Y-42512414D01*
X125549527Y-42809026D01*
X125733343Y-42809026D01*
X125733343Y-42535581D01*
X125733473Y-42434277D01*
X125734379Y-42360853D01*
X125736827Y-42309771D01*
X125741586Y-42275490D01*
X125749426Y-42252471D01*
X125761115Y-42235173D01*
X125777398Y-42218081D01*
X125834366Y-42181357D01*
X125896555Y-42174542D01*
X125955801Y-42197761D01*
X125976405Y-42215043D01*
X125991530Y-42231291D01*
X126002390Y-42248691D01*
X126009690Y-42272712D01*
X126014137Y-42308822D01*
X126016436Y-42362488D01*
X126017296Y-42439180D01*
X126017422Y-42532543D01*
X126017422Y-42809026D01*
X126201237Y-42809026D01*
X126201237Y-42006921D01*
X126109329Y-42006921D01*
X126054149Y-42009103D01*
X126025680Y-42016851D01*
X126017425Y-42031968D01*
X126017422Y-42032416D01*
X126013592Y-42047220D01*
X125996699Y-42045540D01*
X125963112Y-42029273D01*
X125886937Y-42005340D01*
X125799800Y-42002678D01*
X125716043Y-42020726D01*
G36*
X121155216Y-42004054D02*
G01*
X121112426Y-42014449D01*
X121030391Y-42052513D01*
X120960243Y-42110649D01*
X120911695Y-42180352D01*
X120905025Y-42196002D01*
X120895876Y-42236996D01*
X120889471Y-42297638D01*
X120887290Y-42358930D01*
X120887290Y-42474816D01*
X121129593Y-42474816D01*
X121229529Y-42475193D01*
X121299931Y-42477487D01*
X121344687Y-42483438D01*
X121367685Y-42494785D01*
X121372811Y-42513271D01*
X121363952Y-42540636D01*
X121348083Y-42572655D01*
X121303816Y-42626092D01*
X121242301Y-42652715D01*
X121167115Y-42651847D01*
X121081947Y-42622871D01*
X121008341Y-42587111D01*
X120947266Y-42635404D01*
X120886190Y-42683697D01*
X120943649Y-42736785D01*
X121020359Y-42786945D01*
X121114698Y-42817188D01*
X121216173Y-42825651D01*
X121314289Y-42810474D01*
X121330119Y-42805324D01*
X121416353Y-42760291D01*
X121480499Y-42693152D01*
X121523909Y-42601905D01*
X121547936Y-42484544D01*
X121548216Y-42482029D01*
X121550367Y-42354127D01*
X121541671Y-42308497D01*
X121371895Y-42308497D01*
X121356303Y-42315513D01*
X121313971Y-42320888D01*
X121251566Y-42323957D01*
X121212019Y-42324421D01*
X121138272Y-42324130D01*
X121092160Y-42322283D01*
X121067900Y-42317412D01*
X121059706Y-42308055D01*
X121061794Y-42292745D01*
X121063545Y-42286822D01*
X121093440Y-42231168D01*
X121140458Y-42186315D01*
X121181951Y-42166605D01*
X121237074Y-42167795D01*
X121292932Y-42192375D01*
X121339788Y-42233070D01*
X121367906Y-42282608D01*
X121371895Y-42308497D01*
X121541671Y-42308497D01*
X121528926Y-42241633D01*
X121486389Y-42147227D01*
X121425253Y-42073588D01*
X121348015Y-42023393D01*
X121257170Y-41999322D01*
X121155216Y-42004054D01*
X121155216Y-42004054D01*
G37*
X121155216Y-42004054D02*
X121112426Y-42014449D01*
X121030391Y-42052513D01*
X120960243Y-42110649D01*
X120911695Y-42180352D01*
X120905025Y-42196002D01*
X120895876Y-42236996D01*
X120889471Y-42297638D01*
X120887290Y-42358930D01*
X120887290Y-42474816D01*
X121129593Y-42474816D01*
X121229529Y-42475193D01*
X121299931Y-42477487D01*
X121344687Y-42483438D01*
X121367685Y-42494785D01*
X121372811Y-42513271D01*
X121363952Y-42540636D01*
X121348083Y-42572655D01*
X121303816Y-42626092D01*
X121242301Y-42652715D01*
X121167115Y-42651847D01*
X121081947Y-42622871D01*
X121008341Y-42587111D01*
X120947266Y-42635404D01*
X120886190Y-42683697D01*
X120943649Y-42736785D01*
X121020359Y-42786945D01*
X121114698Y-42817188D01*
X121216173Y-42825651D01*
X121314289Y-42810474D01*
X121330119Y-42805324D01*
X121416353Y-42760291D01*
X121480499Y-42693152D01*
X121523909Y-42601905D01*
X121547936Y-42484544D01*
X121548216Y-42482029D01*
X121550367Y-42354127D01*
X121541671Y-42308497D01*
X121371895Y-42308497D01*
X121356303Y-42315513D01*
X121313971Y-42320888D01*
X121251566Y-42323957D01*
X121212019Y-42324421D01*
X121138272Y-42324130D01*
X121092160Y-42322283D01*
X121067900Y-42317412D01*
X121059706Y-42308055D01*
X121061794Y-42292745D01*
X121063545Y-42286822D01*
X121093440Y-42231168D01*
X121140458Y-42186315D01*
X121181951Y-42166605D01*
X121237074Y-42167795D01*
X121292932Y-42192375D01*
X121339788Y-42233070D01*
X121367906Y-42282608D01*
X121371895Y-42308497D01*
X121541671Y-42308497D01*
X121528926Y-42241633D01*
X121486389Y-42147227D01*
X121425253Y-42073588D01*
X121348015Y-42023393D01*
X121257170Y-41999322D01*
X121155216Y-42004054D01*
G36*
X121767424Y-42013919D02*
G01*
X121670605Y-42055049D01*
X121640110Y-42075071D01*
X121601135Y-42105840D01*
X121576669Y-42130033D01*
X121572422Y-42137913D01*
X121584416Y-42155399D01*
X121615113Y-42185070D01*
X121639688Y-42205779D01*
X121706954Y-42259836D01*
X121760070Y-42215142D01*
X121801116Y-42186289D01*
X121841137Y-42176329D01*
X121886941Y-42178761D01*
X121959676Y-42196845D01*
X122009744Y-42234381D01*
X122040171Y-42295062D01*
X122053983Y-42382581D01*
X122053987Y-42382636D01*
X122052792Y-42480458D01*
X122034228Y-42552230D01*
X121997196Y-42601095D01*
X121971950Y-42617643D01*
X121904903Y-42638249D01*
X121833291Y-42638262D01*
X121770985Y-42618268D01*
X121756237Y-42608500D01*
X121719250Y-42583547D01*
X121690332Y-42579458D01*
X121659144Y-42598030D01*
X121624664Y-42631387D01*
X121570088Y-42687696D01*
X121630682Y-42737642D01*
X121724302Y-42794013D01*
X121829875Y-42821793D01*
X121940202Y-42819782D01*
X122012657Y-42801362D01*
X122097344Y-42755810D01*
X122165073Y-42684150D01*
X122195843Y-42633566D01*
X122220764Y-42560988D01*
X122233234Y-42469069D01*
X122233330Y-42369448D01*
X122221130Y-42273767D01*
X122196710Y-42193669D01*
X122192864Y-42185456D01*
X122135907Y-42104913D01*
X122058791Y-42046271D01*
X121967610Y-42010747D01*
X121868457Y-41999557D01*
X121767424Y-42013919D01*
X121767424Y-42013919D01*
G37*
X121767424Y-42013919D02*
X121670605Y-42055049D01*
X121640110Y-42075071D01*
X121601135Y-42105840D01*
X121576669Y-42130033D01*
X121572422Y-42137913D01*
X121584416Y-42155399D01*
X121615113Y-42185070D01*
X121639688Y-42205779D01*
X121706954Y-42259836D01*
X121760070Y-42215142D01*
X121801116Y-42186289D01*
X121841137Y-42176329D01*
X121886941Y-42178761D01*
X121959676Y-42196845D01*
X122009744Y-42234381D01*
X122040171Y-42295062D01*
X122053983Y-42382581D01*
X122053987Y-42382636D01*
X122052792Y-42480458D01*
X122034228Y-42552230D01*
X121997196Y-42601095D01*
X121971950Y-42617643D01*
X121904903Y-42638249D01*
X121833291Y-42638262D01*
X121770985Y-42618268D01*
X121756237Y-42608500D01*
X121719250Y-42583547D01*
X121690332Y-42579458D01*
X121659144Y-42598030D01*
X121624664Y-42631387D01*
X121570088Y-42687696D01*
X121630682Y-42737642D01*
X121724302Y-42794013D01*
X121829875Y-42821793D01*
X121940202Y-42819782D01*
X122012657Y-42801362D01*
X122097344Y-42755810D01*
X122165073Y-42684150D01*
X122195843Y-42633566D01*
X122220764Y-42560988D01*
X122233234Y-42469069D01*
X122233330Y-42369448D01*
X122221130Y-42273767D01*
X122196710Y-42193669D01*
X122192864Y-42185456D01*
X122135907Y-42104913D01*
X122058791Y-42046271D01*
X121967610Y-42010747D01*
X121868457Y-41999557D01*
X121767424Y-42013919D01*
G36*
X123393869Y-42267033D02*
G01*
X123392290Y-42389589D01*
X123386519Y-42482679D01*
X123375009Y-42550151D01*
X123356210Y-42595855D01*
X123328574Y-42623639D01*
X123290552Y-42637354D01*
X123243474Y-42640858D01*
X123194168Y-42636932D01*
X123156717Y-42622589D01*
X123129572Y-42593978D01*
X123111185Y-42547251D01*
X123100007Y-42478558D01*
X123094489Y-42384050D01*
X123093079Y-42267033D01*
X123093079Y-42006921D01*
X122909264Y-42006921D01*
X122909264Y-42809026D01*
X123001172Y-42809026D01*
X123056578Y-42806781D01*
X123085109Y-42798896D01*
X123093079Y-42783928D01*
X123097880Y-42770597D01*
X123116986Y-42773417D01*
X123155496Y-42792283D01*
X123243761Y-42821387D01*
X123337377Y-42819325D01*
X123427079Y-42787721D01*
X123469796Y-42762757D01*
X123502379Y-42735726D01*
X123526183Y-42701905D01*
X123542561Y-42656568D01*
X123552869Y-42594989D01*
X123558459Y-42512443D01*
X123560688Y-42404205D01*
X123560974Y-42320504D01*
X123560974Y-42006921D01*
X123393869Y-42006921D01*
X123393869Y-42267033D01*
X123393869Y-42267033D01*
G37*
X123393869Y-42267033D02*
X123392290Y-42389589D01*
X123386519Y-42482679D01*
X123375009Y-42550151D01*
X123356210Y-42595855D01*
X123328574Y-42623639D01*
X123290552Y-42637354D01*
X123243474Y-42640858D01*
X123194168Y-42636932D01*
X123156717Y-42622589D01*
X123129572Y-42593978D01*
X123111185Y-42547251D01*
X123100007Y-42478558D01*
X123094489Y-42384050D01*
X123093079Y-42267033D01*
X123093079Y-42006921D01*
X122909264Y-42006921D01*
X122909264Y-42809026D01*
X123001172Y-42809026D01*
X123056578Y-42806781D01*
X123085109Y-42798896D01*
X123093079Y-42783928D01*
X123097880Y-42770597D01*
X123116986Y-42773417D01*
X123155496Y-42792283D01*
X123243761Y-42821387D01*
X123337377Y-42819325D01*
X123427079Y-42787721D01*
X123469796Y-42762757D01*
X123502379Y-42735726D01*
X123526183Y-42701905D01*
X123542561Y-42656568D01*
X123552869Y-42594989D01*
X123558459Y-42512443D01*
X123560688Y-42404205D01*
X123560974Y-42320504D01*
X123560974Y-42006921D01*
X123393869Y-42006921D01*
X123393869Y-42267033D01*
G36*
X123902331Y-42016810D02*
G01*
X123817808Y-42062840D01*
X123751679Y-42135506D01*
X123720522Y-42194606D01*
X123707145Y-42246805D01*
X123698478Y-42321219D01*
X123694763Y-42406942D01*
X123696246Y-42493069D01*
X123703169Y-42568693D01*
X123711255Y-42609084D01*
X123738535Y-42664340D01*
X123785780Y-42723030D01*
X123842718Y-42774352D01*
X123899076Y-42807505D01*
X123900450Y-42808031D01*
X123970384Y-42822518D01*
X124053263Y-42822877D01*
X124132023Y-42809688D01*
X124162434Y-42799117D01*
X124240761Y-42754701D01*
X124296857Y-42696507D01*
X124333714Y-42619465D01*
X124354320Y-42518501D01*
X124358982Y-42465616D01*
X124358387Y-42399163D01*
X124179264Y-42399163D01*
X124173230Y-42496130D01*
X124155862Y-42570023D01*
X124128260Y-42617236D01*
X124108596Y-42630737D01*
X124058213Y-42640151D01*
X123998327Y-42637364D01*
X123946551Y-42623816D01*
X123932973Y-42616362D01*
X123897151Y-42572951D01*
X123873507Y-42506514D01*
X123863442Y-42425661D01*
X123868358Y-42339002D01*
X123879345Y-42286849D01*
X123910891Y-42226451D01*
X123960689Y-42188697D01*
X124020663Y-42175643D01*
X124082736Y-42189349D01*
X124130418Y-42222872D01*
X124155475Y-42250531D01*
X124170100Y-42277794D01*
X124177071Y-42314690D01*
X124179167Y-42371250D01*
X124179264Y-42399163D01*
X124358387Y-42399163D01*
X124357718Y-42324494D01*
X124334735Y-42208771D01*
X124290028Y-42118441D01*
X124223595Y-42053500D01*
X124135435Y-42013945D01*
X124116505Y-42009358D01*
X124002734Y-41998590D01*
X123902331Y-42016810D01*
X123902331Y-42016810D01*
G37*
X123902331Y-42016810D02*
X123817808Y-42062840D01*
X123751679Y-42135506D01*
X123720522Y-42194606D01*
X123707145Y-42246805D01*
X123698478Y-42321219D01*
X123694763Y-42406942D01*
X123696246Y-42493069D01*
X123703169Y-42568693D01*
X123711255Y-42609084D01*
X123738535Y-42664340D01*
X123785780Y-42723030D01*
X123842718Y-42774352D01*
X123899076Y-42807505D01*
X123900450Y-42808031D01*
X123970384Y-42822518D01*
X124053263Y-42822877D01*
X124132023Y-42809688D01*
X124162434Y-42799117D01*
X124240761Y-42754701D01*
X124296857Y-42696507D01*
X124333714Y-42619465D01*
X124354320Y-42518501D01*
X124358982Y-42465616D01*
X124358387Y-42399163D01*
X124179264Y-42399163D01*
X124173230Y-42496130D01*
X124155862Y-42570023D01*
X124128260Y-42617236D01*
X124108596Y-42630737D01*
X124058213Y-42640151D01*
X123998327Y-42637364D01*
X123946551Y-42623816D01*
X123932973Y-42616362D01*
X123897151Y-42572951D01*
X123873507Y-42506514D01*
X123863442Y-42425661D01*
X123868358Y-42339002D01*
X123879345Y-42286849D01*
X123910891Y-42226451D01*
X123960689Y-42188697D01*
X124020663Y-42175643D01*
X124082736Y-42189349D01*
X124130418Y-42222872D01*
X124155475Y-42250531D01*
X124170100Y-42277794D01*
X124177071Y-42314690D01*
X124179167Y-42371250D01*
X124179264Y-42399163D01*
X124358387Y-42399163D01*
X124357718Y-42324494D01*
X124334735Y-42208771D01*
X124290028Y-42118441D01*
X124223595Y-42053500D01*
X124135435Y-42013945D01*
X124116505Y-42009358D01*
X124002734Y-41998590D01*
X123902331Y-42016810D01*
G36*
X124695372Y-42004047D02*
G01*
X124632092Y-42016048D01*
X124566443Y-42041148D01*
X124559428Y-42044348D01*
X124509644Y-42070526D01*
X124475166Y-42094853D01*
X124464022Y-42110437D01*
X124474634Y-42135853D01*
X124500412Y-42173353D01*
X124511854Y-42187352D01*
X124559008Y-42242454D01*
X124619799Y-42206586D01*
X124677653Y-42182692D01*
X124744500Y-42169920D01*
X124808606Y-42169113D01*
X124858236Y-42181115D01*
X124870146Y-42188605D01*
X124892828Y-42222950D01*
X124895584Y-42262513D01*
X124878612Y-42293420D01*
X124868573Y-42299413D01*
X124838490Y-42306857D01*
X124785611Y-42315606D01*
X124720425Y-42323967D01*
X124708400Y-42325278D01*
X124603703Y-42343388D01*
X124527768Y-42374151D01*
X124477408Y-42420407D01*
X124449436Y-42484997D01*
X124440722Y-42563887D01*
X124452760Y-42653565D01*
X124491849Y-42723986D01*
X124558145Y-42775277D01*
X124651806Y-42807567D01*
X124755777Y-42820307D01*
X124840562Y-42820154D01*
X124909335Y-42808583D01*
X124956303Y-42792609D01*
X125015650Y-42764775D01*
X125070494Y-42732473D01*
X125089987Y-42718255D01*
X125140119Y-42677335D01*
X125019197Y-42554977D01*
X124950457Y-42600467D01*
X124881512Y-42634633D01*
X124807889Y-42652504D01*
X124737117Y-42654389D01*
X124676726Y-42640601D01*
X124634243Y-42611449D01*
X124620526Y-42586852D01*
X124622583Y-42547404D01*
X124656670Y-42517237D01*
X124722692Y-42496406D01*
X124795026Y-42486779D01*
X124906348Y-42468410D01*
X124989048Y-42433754D01*
X125044235Y-42381797D01*
X125073012Y-42311523D01*
X125076999Y-42228207D01*
X125057307Y-42141181D01*
X125012411Y-42075402D01*
X124941909Y-42030568D01*
X124845399Y-42006379D01*
X124773900Y-42001637D01*
X124695372Y-42004047D01*
X124695372Y-42004047D01*
G37*
X124695372Y-42004047D02*
X124632092Y-42016048D01*
X124566443Y-42041148D01*
X124559428Y-42044348D01*
X124509644Y-42070526D01*
X124475166Y-42094853D01*
X124464022Y-42110437D01*
X124474634Y-42135853D01*
X124500412Y-42173353D01*
X124511854Y-42187352D01*
X124559008Y-42242454D01*
X124619799Y-42206586D01*
X124677653Y-42182692D01*
X124744500Y-42169920D01*
X124808606Y-42169113D01*
X124858236Y-42181115D01*
X124870146Y-42188605D01*
X124892828Y-42222950D01*
X124895584Y-42262513D01*
X124878612Y-42293420D01*
X124868573Y-42299413D01*
X124838490Y-42306857D01*
X124785611Y-42315606D01*
X124720425Y-42323967D01*
X124708400Y-42325278D01*
X124603703Y-42343388D01*
X124527768Y-42374151D01*
X124477408Y-42420407D01*
X124449436Y-42484997D01*
X124440722Y-42563887D01*
X124452760Y-42653565D01*
X124491849Y-42723986D01*
X124558145Y-42775277D01*
X124651806Y-42807567D01*
X124755777Y-42820307D01*
X124840562Y-42820154D01*
X124909335Y-42808583D01*
X124956303Y-42792609D01*
X125015650Y-42764775D01*
X125070494Y-42732473D01*
X125089987Y-42718255D01*
X125140119Y-42677335D01*
X125019197Y-42554977D01*
X124950457Y-42600467D01*
X124881512Y-42634633D01*
X124807889Y-42652504D01*
X124737117Y-42654389D01*
X124676726Y-42640601D01*
X124634243Y-42611449D01*
X124620526Y-42586852D01*
X124622583Y-42547404D01*
X124656670Y-42517237D01*
X124722692Y-42496406D01*
X124795026Y-42486779D01*
X124906348Y-42468410D01*
X124989048Y-42433754D01*
X125044235Y-42381797D01*
X125073012Y-42311523D01*
X125076999Y-42228207D01*
X125057307Y-42141181D01*
X125012411Y-42075402D01*
X124941909Y-42030568D01*
X124845399Y-42006379D01*
X124773900Y-42001637D01*
X124695372Y-42004047D01*
G36*
X126516982Y-42025527D02*
G01*
X126500330Y-42033366D01*
X126442695Y-42075586D01*
X126388195Y-42137200D01*
X126347501Y-42205043D01*
X126335926Y-42236234D01*
X126325366Y-42291949D01*
X126319069Y-42359281D01*
X126318304Y-42387085D01*
X126318211Y-42474816D01*
X126823150Y-42474816D01*
X126812387Y-42520770D01*
X126785967Y-42575120D01*
X126739778Y-42622091D01*
X126684828Y-42652348D01*
X126649811Y-42658631D01*
X126602323Y-42651006D01*
X126545665Y-42631883D01*
X126526418Y-42623084D01*
X126455241Y-42587536D01*
X126394498Y-42633867D01*
X126359448Y-42665203D01*
X126340798Y-42691067D01*
X126339853Y-42698658D01*
X126356515Y-42717056D01*
X126393030Y-42745015D01*
X126426172Y-42766827D01*
X126515607Y-42806037D01*
X126615871Y-42823785D01*
X126715246Y-42819170D01*
X126794461Y-42795051D01*
X126876120Y-42743384D01*
X126934151Y-42675356D01*
X126970454Y-42587343D01*
X126986928Y-42475716D01*
X126988389Y-42424638D01*
X126982543Y-42307591D01*
X126981825Y-42304186D01*
X126814511Y-42304186D01*
X126809903Y-42315162D01*
X126790964Y-42321215D01*
X126751902Y-42323810D01*
X126686923Y-42324410D01*
X126661903Y-42324421D01*
X126585779Y-42323514D01*
X126537504Y-42320220D01*
X126511540Y-42313681D01*
X126502352Y-42303037D01*
X126502027Y-42299619D01*
X126512513Y-42272456D01*
X126538758Y-42234403D01*
X126550041Y-42221079D01*
X126591928Y-42183396D01*
X126635591Y-42168580D01*
X126659115Y-42167342D01*
X126722757Y-42182829D01*
X126776127Y-42224430D01*
X126809981Y-42284853D01*
X126810581Y-42286822D01*
X126814511Y-42304186D01*
X126981825Y-42304186D01*
X126963101Y-42215428D01*
X126928078Y-42141690D01*
X126885244Y-42089348D01*
X126806052Y-42032592D01*
X126712960Y-42002262D01*
X126613945Y-41999521D01*
X126516982Y-42025527D01*
X126516982Y-42025527D01*
G37*
X126516982Y-42025527D02*
X126500330Y-42033366D01*
X126442695Y-42075586D01*
X126388195Y-42137200D01*
X126347501Y-42205043D01*
X126335926Y-42236234D01*
X126325366Y-42291949D01*
X126319069Y-42359281D01*
X126318304Y-42387085D01*
X126318211Y-42474816D01*
X126823150Y-42474816D01*
X126812387Y-42520770D01*
X126785967Y-42575120D01*
X126739778Y-42622091D01*
X126684828Y-42652348D01*
X126649811Y-42658631D01*
X126602323Y-42651006D01*
X126545665Y-42631883D01*
X126526418Y-42623084D01*
X126455241Y-42587536D01*
X126394498Y-42633867D01*
X126359448Y-42665203D01*
X126340798Y-42691067D01*
X126339853Y-42698658D01*
X126356515Y-42717056D01*
X126393030Y-42745015D01*
X126426172Y-42766827D01*
X126515607Y-42806037D01*
X126615871Y-42823785D01*
X126715246Y-42819170D01*
X126794461Y-42795051D01*
X126876120Y-42743384D01*
X126934151Y-42675356D01*
X126970454Y-42587343D01*
X126986928Y-42475716D01*
X126988389Y-42424638D01*
X126982543Y-42307591D01*
X126981825Y-42304186D01*
X126814511Y-42304186D01*
X126809903Y-42315162D01*
X126790964Y-42321215D01*
X126751902Y-42323810D01*
X126686923Y-42324410D01*
X126661903Y-42324421D01*
X126585779Y-42323514D01*
X126537504Y-42320220D01*
X126511540Y-42313681D01*
X126502352Y-42303037D01*
X126502027Y-42299619D01*
X126512513Y-42272456D01*
X126538758Y-42234403D01*
X126550041Y-42221079D01*
X126591928Y-42183396D01*
X126635591Y-42168580D01*
X126659115Y-42167342D01*
X126722757Y-42182829D01*
X126776127Y-42224430D01*
X126809981Y-42284853D01*
X126810581Y-42286822D01*
X126814511Y-42304186D01*
X126981825Y-42304186D01*
X126963101Y-42215428D01*
X126928078Y-42141690D01*
X126885244Y-42089348D01*
X126806052Y-42032592D01*
X126712960Y-42002262D01*
X126613945Y-41999521D01*
X126516982Y-42025527D01*
G36*
X128087216Y-42015604D02*
G01*
X127999795Y-42054254D01*
X127933430Y-42118790D01*
X127888024Y-42209312D01*
X127863482Y-42325918D01*
X127861723Y-42344124D01*
X127860344Y-42472484D01*
X127878216Y-42584996D01*
X127914250Y-42676188D01*
X127933545Y-42705522D01*
X128000755Y-42767606D01*
X128086350Y-42807816D01*
X128182110Y-42824503D01*
X128279813Y-42816017D01*
X128354083Y-42789880D01*
X128417953Y-42745835D01*
X128470154Y-42688087D01*
X128471057Y-42686736D01*
X128492256Y-42651093D01*
X128506033Y-42615252D01*
X128514376Y-42570019D01*
X128519273Y-42506201D01*
X128521431Y-42453868D01*
X128522329Y-42406410D01*
X128355257Y-42406410D01*
X128353624Y-42453654D01*
X128347696Y-42516546D01*
X128337239Y-42556907D01*
X128318381Y-42585622D01*
X128300719Y-42602396D01*
X128238106Y-42637516D01*
X128172592Y-42642210D01*
X128111579Y-42616940D01*
X128081072Y-42588624D01*
X128059089Y-42560089D01*
X128046231Y-42532784D01*
X128040588Y-42497250D01*
X128040249Y-42444024D01*
X128041988Y-42395006D01*
X128045729Y-42324982D01*
X128051659Y-42279564D01*
X128062347Y-42249940D01*
X128080361Y-42227297D01*
X128094637Y-42214355D01*
X128154349Y-42180360D01*
X128218766Y-42178665D01*
X128272781Y-42198801D01*
X128318860Y-42240852D01*
X128346311Y-42309928D01*
X128355257Y-42406410D01*
X128522329Y-42406410D01*
X128523401Y-42349799D01*
X128520036Y-42271968D01*
X128509955Y-42213430D01*
X128491774Y-42167237D01*
X128464110Y-42126442D01*
X128453854Y-42114328D01*
X128389722Y-42053974D01*
X128320934Y-42018720D01*
X128236811Y-42003950D01*
X128195791Y-42002743D01*
X128087216Y-42015604D01*
X128087216Y-42015604D01*
G37*
X128087216Y-42015604D02*
X127999795Y-42054254D01*
X127933430Y-42118790D01*
X127888024Y-42209312D01*
X127863482Y-42325918D01*
X127861723Y-42344124D01*
X127860344Y-42472484D01*
X127878216Y-42584996D01*
X127914250Y-42676188D01*
X127933545Y-42705522D01*
X128000755Y-42767606D01*
X128086350Y-42807816D01*
X128182110Y-42824503D01*
X128279813Y-42816017D01*
X128354083Y-42789880D01*
X128417953Y-42745835D01*
X128470154Y-42688087D01*
X128471057Y-42686736D01*
X128492256Y-42651093D01*
X128506033Y-42615252D01*
X128514376Y-42570019D01*
X128519273Y-42506201D01*
X128521431Y-42453868D01*
X128522329Y-42406410D01*
X128355257Y-42406410D01*
X128353624Y-42453654D01*
X128347696Y-42516546D01*
X128337239Y-42556907D01*
X128318381Y-42585622D01*
X128300719Y-42602396D01*
X128238106Y-42637516D01*
X128172592Y-42642210D01*
X128111579Y-42616940D01*
X128081072Y-42588624D01*
X128059089Y-42560089D01*
X128046231Y-42532784D01*
X128040588Y-42497250D01*
X128040249Y-42444024D01*
X128041988Y-42395006D01*
X128045729Y-42324982D01*
X128051659Y-42279564D01*
X128062347Y-42249940D01*
X128080361Y-42227297D01*
X128094637Y-42214355D01*
X128154349Y-42180360D01*
X128218766Y-42178665D01*
X128272781Y-42198801D01*
X128318860Y-42240852D01*
X128346311Y-42309928D01*
X128355257Y-42406410D01*
X128522329Y-42406410D01*
X128523401Y-42349799D01*
X128520036Y-42271968D01*
X128509955Y-42213430D01*
X128491774Y-42167237D01*
X128464110Y-42126442D01*
X128453854Y-42114328D01*
X128389722Y-42053974D01*
X128320934Y-42018720D01*
X128236811Y-42003950D01*
X128195791Y-42002743D01*
X128087216Y-42015604D01*
G36*
X122012807Y-43264578D02*
G01*
X121932932Y-43285345D01*
X121866038Y-43328205D01*
X121833649Y-43360223D01*
X121780555Y-43435913D01*
X121750127Y-43523716D01*
X121739673Y-43631650D01*
X121739620Y-43640375D01*
X121739527Y-43728105D01*
X122244466Y-43728105D01*
X122233702Y-43774059D01*
X122214268Y-43815678D01*
X122180255Y-43859044D01*
X122173140Y-43865967D01*
X122111997Y-43903435D01*
X122042271Y-43909789D01*
X121962013Y-43885138D01*
X121948408Y-43878500D01*
X121906681Y-43858319D01*
X121878732Y-43846821D01*
X121873855Y-43845758D01*
X121856832Y-43856083D01*
X121824367Y-43881345D01*
X121807886Y-43895150D01*
X121773736Y-43926861D01*
X121762522Y-43947799D01*
X121770305Y-43967060D01*
X121774465Y-43972327D01*
X121802643Y-43995378D01*
X121849138Y-44023392D01*
X121881566Y-44039746D01*
X121973615Y-44068559D01*
X122075524Y-44077895D01*
X122172037Y-44066832D01*
X122199066Y-44058912D01*
X122282724Y-44014081D01*
X122344734Y-43945098D01*
X122385455Y-43851294D01*
X122405245Y-43731998D01*
X122407418Y-43669618D01*
X122401074Y-43578798D01*
X122240843Y-43578798D01*
X122225345Y-43585512D01*
X122183688Y-43590780D01*
X122123124Y-43593889D01*
X122082093Y-43594421D01*
X122008289Y-43593908D01*
X121961707Y-43591506D01*
X121936152Y-43585922D01*
X121925431Y-43575861D01*
X121923343Y-43561263D01*
X121937669Y-43516296D01*
X121973738Y-43471853D01*
X122021185Y-43437742D01*
X122068651Y-43423788D01*
X122133121Y-43436166D01*
X122188930Y-43471952D01*
X122227626Y-43523533D01*
X122240843Y-43578798D01*
X122401074Y-43578798D01*
X122398179Y-43537366D01*
X122369664Y-43431998D01*
X122321271Y-43352678D01*
X122252396Y-43298571D01*
X122162435Y-43268843D01*
X122113700Y-43263118D01*
X122012807Y-43264578D01*
X122012807Y-43264578D01*
G37*
X122012807Y-43264578D02*
X121932932Y-43285345D01*
X121866038Y-43328205D01*
X121833649Y-43360223D01*
X121780555Y-43435913D01*
X121750127Y-43523716D01*
X121739673Y-43631650D01*
X121739620Y-43640375D01*
X121739527Y-43728105D01*
X122244466Y-43728105D01*
X122233702Y-43774059D01*
X122214268Y-43815678D01*
X122180255Y-43859044D01*
X122173140Y-43865967D01*
X122111997Y-43903435D01*
X122042271Y-43909789D01*
X121962013Y-43885138D01*
X121948408Y-43878500D01*
X121906681Y-43858319D01*
X121878732Y-43846821D01*
X121873855Y-43845758D01*
X121856832Y-43856083D01*
X121824367Y-43881345D01*
X121807886Y-43895150D01*
X121773736Y-43926861D01*
X121762522Y-43947799D01*
X121770305Y-43967060D01*
X121774465Y-43972327D01*
X121802643Y-43995378D01*
X121849138Y-44023392D01*
X121881566Y-44039746D01*
X121973615Y-44068559D01*
X122075524Y-44077895D01*
X122172037Y-44066832D01*
X122199066Y-44058912D01*
X122282724Y-44014081D01*
X122344734Y-43945098D01*
X122385455Y-43851294D01*
X122405245Y-43731998D01*
X122407418Y-43669618D01*
X122401074Y-43578798D01*
X122240843Y-43578798D01*
X122225345Y-43585512D01*
X122183688Y-43590780D01*
X122123124Y-43593889D01*
X122082093Y-43594421D01*
X122008289Y-43593908D01*
X121961707Y-43591506D01*
X121936152Y-43585922D01*
X121925431Y-43575861D01*
X121923343Y-43561263D01*
X121937669Y-43516296D01*
X121973738Y-43471853D01*
X122021185Y-43437742D01*
X122068651Y-43423788D01*
X122133121Y-43436166D01*
X122188930Y-43471952D01*
X122227626Y-43523533D01*
X122240843Y-43578798D01*
X122401074Y-43578798D01*
X122398179Y-43537366D01*
X122369664Y-43431998D01*
X122321271Y-43352678D01*
X122252396Y-43298571D01*
X122162435Y-43268843D01*
X122113700Y-43263118D01*
X122012807Y-43264578D01*
G36*
X122540833Y-43259947D02*
G01*
X122476592Y-43272612D01*
X122440020Y-43291364D01*
X122401547Y-43322517D01*
X122456283Y-43391627D01*
X122490031Y-43433479D01*
X122512947Y-43453898D01*
X122535721Y-43457017D01*
X122569044Y-43446972D01*
X122584686Y-43441289D01*
X122648458Y-43432904D01*
X122706860Y-43450878D01*
X122749736Y-43491482D01*
X122756701Y-43504429D01*
X122764287Y-43538724D01*
X122770141Y-43601927D01*
X122773989Y-43689560D01*
X122775557Y-43797140D01*
X122775579Y-43812444D01*
X122775579Y-44079026D01*
X122959395Y-44079026D01*
X122959395Y-43260210D01*
X122867487Y-43260210D01*
X122814493Y-43261594D01*
X122786885Y-43267752D01*
X122776676Y-43281694D01*
X122775579Y-43294844D01*
X122775579Y-43329478D01*
X122731550Y-43294844D01*
X122681063Y-43271216D01*
X122613240Y-43259533D01*
X122540833Y-43259947D01*
X122540833Y-43259947D01*
G37*
X122540833Y-43259947D02*
X122476592Y-43272612D01*
X122440020Y-43291364D01*
X122401547Y-43322517D01*
X122456283Y-43391627D01*
X122490031Y-43433479D01*
X122512947Y-43453898D01*
X122535721Y-43457017D01*
X122569044Y-43446972D01*
X122584686Y-43441289D01*
X122648458Y-43432904D01*
X122706860Y-43450878D01*
X122749736Y-43491482D01*
X122756701Y-43504429D01*
X122764287Y-43538724D01*
X122770141Y-43601927D01*
X122773989Y-43689560D01*
X122775557Y-43797140D01*
X122775579Y-43812444D01*
X122775579Y-44079026D01*
X122959395Y-44079026D01*
X122959395Y-43260210D01*
X122867487Y-43260210D01*
X122814493Y-43261594D01*
X122786885Y-43267752D01*
X122776676Y-43281694D01*
X122775579Y-43294844D01*
X122775579Y-43329478D01*
X122731550Y-43294844D01*
X122681063Y-43271216D01*
X122613240Y-43259533D01*
X122540833Y-43259947D01*
G36*
X123334008Y-43265173D02*
G01*
X123263573Y-43282280D01*
X123243213Y-43291344D01*
X123203747Y-43315083D01*
X123173459Y-43341821D01*
X123151048Y-43376199D01*
X123135214Y-43422860D01*
X123124657Y-43486446D01*
X123118076Y-43571599D01*
X123114172Y-43682962D01*
X123112690Y-43757349D01*
X123107235Y-44079026D01*
X123200420Y-44079026D01*
X123256953Y-44076656D01*
X123286078Y-44068555D01*
X123293606Y-44054951D01*
X123297580Y-44040241D01*
X123315348Y-44043054D01*
X123339560Y-44054848D01*
X123400172Y-44072927D01*
X123478071Y-44077799D01*
X123560005Y-44069830D01*
X123632719Y-44049389D01*
X123639241Y-44046551D01*
X123705698Y-43999865D01*
X123749509Y-43934964D01*
X123769668Y-43859100D01*
X123768128Y-43831844D01*
X123603655Y-43831844D01*
X123589163Y-43868524D01*
X123546195Y-43894809D01*
X123476871Y-43908917D01*
X123439823Y-43910790D01*
X123378081Y-43905994D01*
X123337040Y-43887358D01*
X123327027Y-43878500D01*
X123299900Y-43830306D01*
X123293606Y-43786592D01*
X123293606Y-43728105D01*
X123375070Y-43728105D01*
X123469766Y-43732932D01*
X123536187Y-43748113D01*
X123578154Y-43774700D01*
X123587551Y-43786552D01*
X123603655Y-43831844D01*
X123768128Y-43831844D01*
X123765171Y-43779526D01*
X123735015Y-43703495D01*
X123693869Y-43652112D01*
X123668948Y-43629897D01*
X123644552Y-43615298D01*
X123612809Y-43606397D01*
X123565848Y-43601275D01*
X123495796Y-43598015D01*
X123468010Y-43597077D01*
X123293606Y-43591379D01*
X123293862Y-43538591D01*
X123300616Y-43483103D01*
X123325036Y-43449552D01*
X123374370Y-43428118D01*
X123375694Y-43427736D01*
X123445640Y-43419308D01*
X123514086Y-43430316D01*
X123564953Y-43457085D01*
X123585363Y-43470303D01*
X123607346Y-43468474D01*
X123641174Y-43449324D01*
X123661039Y-43435808D01*
X123699894Y-43406932D01*
X123723962Y-43385286D01*
X123727824Y-43379089D01*
X123711921Y-43347019D01*
X123664935Y-43308719D01*
X123644527Y-43295797D01*
X123585857Y-43273541D01*
X123506788Y-43260932D01*
X123418959Y-43258100D01*
X123334008Y-43265173D01*
X123334008Y-43265173D01*
G37*
X123334008Y-43265173D02*
X123263573Y-43282280D01*
X123243213Y-43291344D01*
X123203747Y-43315083D01*
X123173459Y-43341821D01*
X123151048Y-43376199D01*
X123135214Y-43422860D01*
X123124657Y-43486446D01*
X123118076Y-43571599D01*
X123114172Y-43682962D01*
X123112690Y-43757349D01*
X123107235Y-44079026D01*
X123200420Y-44079026D01*
X123256953Y-44076656D01*
X123286078Y-44068555D01*
X123293606Y-44054951D01*
X123297580Y-44040241D01*
X123315348Y-44043054D01*
X123339560Y-44054848D01*
X123400172Y-44072927D01*
X123478071Y-44077799D01*
X123560005Y-44069830D01*
X123632719Y-44049389D01*
X123639241Y-44046551D01*
X123705698Y-43999865D01*
X123749509Y-43934964D01*
X123769668Y-43859100D01*
X123768128Y-43831844D01*
X123603655Y-43831844D01*
X123589163Y-43868524D01*
X123546195Y-43894809D01*
X123476871Y-43908917D01*
X123439823Y-43910790D01*
X123378081Y-43905994D01*
X123337040Y-43887358D01*
X123327027Y-43878500D01*
X123299900Y-43830306D01*
X123293606Y-43786592D01*
X123293606Y-43728105D01*
X123375070Y-43728105D01*
X123469766Y-43732932D01*
X123536187Y-43748113D01*
X123578154Y-43774700D01*
X123587551Y-43786552D01*
X123603655Y-43831844D01*
X123768128Y-43831844D01*
X123765171Y-43779526D01*
X123735015Y-43703495D01*
X123693869Y-43652112D01*
X123668948Y-43629897D01*
X123644552Y-43615298D01*
X123612809Y-43606397D01*
X123565848Y-43601275D01*
X123495796Y-43598015D01*
X123468010Y-43597077D01*
X123293606Y-43591379D01*
X123293862Y-43538591D01*
X123300616Y-43483103D01*
X123325036Y-43449552D01*
X123374370Y-43428118D01*
X123375694Y-43427736D01*
X123445640Y-43419308D01*
X123514086Y-43430316D01*
X123564953Y-43457085D01*
X123585363Y-43470303D01*
X123607346Y-43468474D01*
X123641174Y-43449324D01*
X123661039Y-43435808D01*
X123699894Y-43406932D01*
X123723962Y-43385286D01*
X123727824Y-43379089D01*
X123711921Y-43347019D01*
X123664935Y-43308719D01*
X123644527Y-43295797D01*
X123585857Y-43273541D01*
X123506788Y-43260932D01*
X123418959Y-43258100D01*
X123334008Y-43265173D01*
G36*
X124339870Y-43263604D02*
G01*
X124273780Y-43268566D01*
X124187374Y-43527579D01*
X124100969Y-43786592D01*
X124073876Y-43694684D01*
X124057572Y-43637884D01*
X124036125Y-43561125D01*
X124012965Y-43476751D01*
X124000720Y-43431493D01*
X123954656Y-43260210D01*
X123764613Y-43260210D01*
X123821418Y-43439849D01*
X123849393Y-43528204D01*
X123883187Y-43634781D01*
X123918480Y-43745954D01*
X123949987Y-43845079D01*
X124021750Y-44070671D01*
X124176714Y-44080753D01*
X124218730Y-43942028D01*
X124244641Y-43855851D01*
X124272917Y-43760847D01*
X124297631Y-43676941D01*
X124298606Y-43673602D01*
X124317065Y-43616748D01*
X124333351Y-43577956D01*
X124344758Y-43563287D01*
X124347102Y-43564983D01*
X124355329Y-43587725D01*
X124370962Y-43636440D01*
X124392096Y-43705002D01*
X124416830Y-43787285D01*
X124430213Y-43832546D01*
X124502689Y-44079026D01*
X124656505Y-44079026D01*
X124779469Y-43690506D01*
X124814012Y-43581522D01*
X124845479Y-43482548D01*
X124872384Y-43398236D01*
X124893241Y-43333234D01*
X124906562Y-43292192D01*
X124910612Y-43280201D01*
X124907406Y-43267923D01*
X124882235Y-43262546D01*
X124829854Y-43263084D01*
X124821655Y-43263490D01*
X124724518Y-43268566D01*
X124660900Y-43502513D01*
X124637516Y-43587833D01*
X124616619Y-43662835D01*
X124600049Y-43721007D01*
X124589646Y-43755837D01*
X124587724Y-43761516D01*
X124579759Y-43754986D01*
X124563696Y-43721154D01*
X124541379Y-43664627D01*
X124514655Y-43590010D01*
X124492063Y-43522607D01*
X124405959Y-43258643D01*
X124339870Y-43263604D01*
X124339870Y-43263604D01*
G37*
X124339870Y-43263604D02*
X124273780Y-43268566D01*
X124187374Y-43527579D01*
X124100969Y-43786592D01*
X124073876Y-43694684D01*
X124057572Y-43637884D01*
X124036125Y-43561125D01*
X124012965Y-43476751D01*
X124000720Y-43431493D01*
X123954656Y-43260210D01*
X123764613Y-43260210D01*
X123821418Y-43439849D01*
X123849393Y-43528204D01*
X123883187Y-43634781D01*
X123918480Y-43745954D01*
X123949987Y-43845079D01*
X124021750Y-44070671D01*
X124176714Y-44080753D01*
X124218730Y-43942028D01*
X124244641Y-43855851D01*
X124272917Y-43760847D01*
X124297631Y-43676941D01*
X124298606Y-43673602D01*
X124317065Y-43616748D01*
X124333351Y-43577956D01*
X124344758Y-43563287D01*
X124347102Y-43564983D01*
X124355329Y-43587725D01*
X124370962Y-43636440D01*
X124392096Y-43705002D01*
X124416830Y-43787285D01*
X124430213Y-43832546D01*
X124502689Y-44079026D01*
X124656505Y-44079026D01*
X124779469Y-43690506D01*
X124814012Y-43581522D01*
X124845479Y-43482548D01*
X124872384Y-43398236D01*
X124893241Y-43333234D01*
X124906562Y-43292192D01*
X124910612Y-43280201D01*
X124907406Y-43267923D01*
X124882235Y-43262546D01*
X124829854Y-43263084D01*
X124821655Y-43263490D01*
X124724518Y-43268566D01*
X124660900Y-43502513D01*
X124637516Y-43587833D01*
X124616619Y-43662835D01*
X124600049Y-43721007D01*
X124589646Y-43755837D01*
X124587724Y-43761516D01*
X124579759Y-43754986D01*
X124563696Y-43721154D01*
X124541379Y-43664627D01*
X124514655Y-43590010D01*
X124492063Y-43522607D01*
X124405959Y-43258643D01*
X124339870Y-43263604D01*
G36*
X124981369Y-44079026D02*
G01*
X125073277Y-44079026D01*
X125126623Y-44077462D01*
X125154407Y-44070985D01*
X125164410Y-44056918D01*
X125165185Y-44047406D01*
X125166872Y-44028332D01*
X125177510Y-44024674D01*
X125205465Y-44036432D01*
X125227205Y-44047406D01*
X125310668Y-44073411D01*
X125401396Y-44074916D01*
X125475158Y-44055521D01*
X125543846Y-44008665D01*
X125596206Y-43939504D01*
X125624878Y-43857927D01*
X125625608Y-43853366D01*
X125629868Y-43803601D01*
X125631986Y-43732159D01*
X125631816Y-43678126D01*
X125449280Y-43678126D01*
X125445051Y-43749941D01*
X125435432Y-43809134D01*
X125422410Y-43842560D01*
X125373144Y-43888240D01*
X125314650Y-43904615D01*
X125254329Y-43891373D01*
X125202783Y-43851873D01*
X125183262Y-43825307D01*
X125171848Y-43793606D01*
X125166502Y-43747332D01*
X125165185Y-43677828D01*
X125167542Y-43608999D01*
X125173767Y-43548526D01*
X125182592Y-43508056D01*
X125184063Y-43504429D01*
X125219653Y-43461302D01*
X125271600Y-43437624D01*
X125329722Y-43433801D01*
X125383840Y-43450238D01*
X125423774Y-43487340D01*
X125427917Y-43494722D01*
X125440884Y-43539739D01*
X125447948Y-43604467D01*
X125449280Y-43678126D01*
X125631816Y-43678126D01*
X125631729Y-43650730D01*
X125630528Y-43606905D01*
X125622355Y-43498488D01*
X125605370Y-43417088D01*
X125577113Y-43356912D01*
X125535128Y-43312166D01*
X125494368Y-43285900D01*
X125437419Y-43267435D01*
X125366589Y-43261102D01*
X125294059Y-43266260D01*
X125232014Y-43282269D01*
X125199232Y-43301420D01*
X125165185Y-43332232D01*
X125165185Y-42942710D01*
X124981369Y-42942710D01*
X124981369Y-44079026D01*
X124981369Y-44079026D01*
G37*
X124981369Y-44079026D02*
X125073277Y-44079026D01*
X125126623Y-44077462D01*
X125154407Y-44070985D01*
X125164410Y-44056918D01*
X125165185Y-44047406D01*
X125166872Y-44028332D01*
X125177510Y-44024674D01*
X125205465Y-44036432D01*
X125227205Y-44047406D01*
X125310668Y-44073411D01*
X125401396Y-44074916D01*
X125475158Y-44055521D01*
X125543846Y-44008665D01*
X125596206Y-43939504D01*
X125624878Y-43857927D01*
X125625608Y-43853366D01*
X125629868Y-43803601D01*
X125631986Y-43732159D01*
X125631816Y-43678126D01*
X125449280Y-43678126D01*
X125445051Y-43749941D01*
X125435432Y-43809134D01*
X125422410Y-43842560D01*
X125373144Y-43888240D01*
X125314650Y-43904615D01*
X125254329Y-43891373D01*
X125202783Y-43851873D01*
X125183262Y-43825307D01*
X125171848Y-43793606D01*
X125166502Y-43747332D01*
X125165185Y-43677828D01*
X125167542Y-43608999D01*
X125173767Y-43548526D01*
X125182592Y-43508056D01*
X125184063Y-43504429D01*
X125219653Y-43461302D01*
X125271600Y-43437624D01*
X125329722Y-43433801D01*
X125383840Y-43450238D01*
X125423774Y-43487340D01*
X125427917Y-43494722D01*
X125440884Y-43539739D01*
X125447948Y-43604467D01*
X125449280Y-43678126D01*
X125631816Y-43678126D01*
X125631729Y-43650730D01*
X125630528Y-43606905D01*
X125622355Y-43498488D01*
X125605370Y-43417088D01*
X125577113Y-43356912D01*
X125535128Y-43312166D01*
X125494368Y-43285900D01*
X125437419Y-43267435D01*
X125366589Y-43261102D01*
X125294059Y-43266260D01*
X125232014Y-43282269D01*
X125199232Y-43301420D01*
X125165185Y-43332232D01*
X125165185Y-42942710D01*
X124981369Y-42942710D01*
X124981369Y-44079026D01*
G36*
X126034119Y-43261986D02*
G01*
X126009112Y-43269482D01*
X126001050Y-43285951D01*
X126000711Y-43293386D01*
X125999264Y-43314094D01*
X125989302Y-43317345D01*
X125962388Y-43303148D01*
X125946402Y-43293448D01*
X125895967Y-43272675D01*
X125835728Y-43262404D01*
X125772566Y-43261614D01*
X125713363Y-43269286D01*
X125664998Y-43284398D01*
X125634354Y-43305932D01*
X125628311Y-43332866D01*
X125631361Y-43340160D01*
X125653594Y-43370437D01*
X125688070Y-43407675D01*
X125694306Y-43413695D01*
X125727167Y-43441375D01*
X125755520Y-43450318D01*
X125795173Y-43444076D01*
X125811058Y-43439929D01*
X125860491Y-43429967D01*
X125895248Y-43434447D01*
X125924600Y-43450246D01*
X125951487Y-43471449D01*
X125971290Y-43498114D01*
X125985052Y-43535327D01*
X125993816Y-43588173D01*
X125998626Y-43661737D01*
X126000526Y-43761105D01*
X126000711Y-43821101D01*
X126000711Y-44079026D01*
X126167816Y-44079026D01*
X126167816Y-43260210D01*
X126084264Y-43260210D01*
X126034119Y-43261986D01*
X126034119Y-43261986D01*
G37*
X126034119Y-43261986D02*
X126009112Y-43269482D01*
X126001050Y-43285951D01*
X126000711Y-43293386D01*
X125999264Y-43314094D01*
X125989302Y-43317345D01*
X125962388Y-43303148D01*
X125946402Y-43293448D01*
X125895967Y-43272675D01*
X125835728Y-43262404D01*
X125772566Y-43261614D01*
X125713363Y-43269286D01*
X125664998Y-43284398D01*
X125634354Y-43305932D01*
X125628311Y-43332866D01*
X125631361Y-43340160D01*
X125653594Y-43370437D01*
X125688070Y-43407675D01*
X125694306Y-43413695D01*
X125727167Y-43441375D01*
X125755520Y-43450318D01*
X125795173Y-43444076D01*
X125811058Y-43439929D01*
X125860491Y-43429967D01*
X125895248Y-43434447D01*
X125924600Y-43450246D01*
X125951487Y-43471449D01*
X125971290Y-43498114D01*
X125985052Y-43535327D01*
X125993816Y-43588173D01*
X125998626Y-43661737D01*
X126000526Y-43761105D01*
X126000711Y-43821101D01*
X126000711Y-44079026D01*
X126167816Y-44079026D01*
X126167816Y-43260210D01*
X126084264Y-43260210D01*
X126034119Y-43261986D01*
G36*
X126553543Y-43266684D02*
G01*
X126474930Y-43287660D01*
X126415084Y-43325680D01*
X126372853Y-43375478D01*
X126359725Y-43396730D01*
X126350032Y-43418992D01*
X126343256Y-43447470D01*
X126338877Y-43487371D01*
X126336376Y-43543901D01*
X126335232Y-43622267D01*
X126334928Y-43727676D01*
X126334922Y-43755642D01*
X126334922Y-44079026D01*
X126415132Y-44079026D01*
X126466294Y-44075443D01*
X126504123Y-44066366D01*
X126513601Y-44060768D01*
X126539512Y-44051106D01*
X126565976Y-44060768D01*
X126609548Y-44072830D01*
X126672840Y-44077685D01*
X126742990Y-44075578D01*
X126807140Y-44066756D01*
X126844593Y-44055437D01*
X126917067Y-44008912D01*
X126962360Y-43944346D01*
X126982722Y-43858500D01*
X126982912Y-43856296D01*
X126981125Y-43818213D01*
X126819527Y-43818213D01*
X126805399Y-43861530D01*
X126782388Y-43885908D01*
X126736196Y-43904345D01*
X126675225Y-43911705D01*
X126613051Y-43908083D01*
X126563249Y-43893574D01*
X126549297Y-43884265D01*
X126524915Y-43841253D01*
X126518737Y-43792357D01*
X126518737Y-43728105D01*
X126611182Y-43728105D01*
X126699005Y-43734866D01*
X126765582Y-43754020D01*
X126806998Y-43783876D01*
X126819527Y-43818213D01*
X126981125Y-43818213D01*
X126978510Y-43762504D01*
X126947576Y-43688347D01*
X126889419Y-43632267D01*
X126881380Y-43627165D01*
X126846837Y-43610555D01*
X126804082Y-43600496D01*
X126744314Y-43595607D01*
X126673310Y-43594483D01*
X126518737Y-43594421D01*
X126518737Y-43529625D01*
X126525294Y-43479350D01*
X126542025Y-43445669D01*
X126543984Y-43443876D01*
X126581217Y-43429142D01*
X126637420Y-43423431D01*
X126699533Y-43426237D01*
X126754490Y-43437056D01*
X126787101Y-43453282D01*
X126804772Y-43466280D01*
X126823431Y-43468762D01*
X126849181Y-43458113D01*
X126888127Y-43431718D01*
X126946370Y-43386965D01*
X126951716Y-43382773D01*
X126948977Y-43367260D01*
X126926124Y-43341460D01*
X126891391Y-43312789D01*
X126853010Y-43288666D01*
X126840952Y-43282970D01*
X126796966Y-43271603D01*
X126732513Y-43263495D01*
X126660503Y-43260243D01*
X126657136Y-43260236D01*
X126553543Y-43266684D01*
X126553543Y-43266684D01*
G37*
X126553543Y-43266684D02*
X126474930Y-43287660D01*
X126415084Y-43325680D01*
X126372853Y-43375478D01*
X126359725Y-43396730D01*
X126350032Y-43418992D01*
X126343256Y-43447470D01*
X126338877Y-43487371D01*
X126336376Y-43543901D01*
X126335232Y-43622267D01*
X126334928Y-43727676D01*
X126334922Y-43755642D01*
X126334922Y-44079026D01*
X126415132Y-44079026D01*
X126466294Y-44075443D01*
X126504123Y-44066366D01*
X126513601Y-44060768D01*
X126539512Y-44051106D01*
X126565976Y-44060768D01*
X126609548Y-44072830D01*
X126672840Y-44077685D01*
X126742990Y-44075578D01*
X126807140Y-44066756D01*
X126844593Y-44055437D01*
X126917067Y-44008912D01*
X126962360Y-43944346D01*
X126982722Y-43858500D01*
X126982912Y-43856296D01*
X126981125Y-43818213D01*
X126819527Y-43818213D01*
X126805399Y-43861530D01*
X126782388Y-43885908D01*
X126736196Y-43904345D01*
X126675225Y-43911705D01*
X126613051Y-43908083D01*
X126563249Y-43893574D01*
X126549297Y-43884265D01*
X126524915Y-43841253D01*
X126518737Y-43792357D01*
X126518737Y-43728105D01*
X126611182Y-43728105D01*
X126699005Y-43734866D01*
X126765582Y-43754020D01*
X126806998Y-43783876D01*
X126819527Y-43818213D01*
X126981125Y-43818213D01*
X126978510Y-43762504D01*
X126947576Y-43688347D01*
X126889419Y-43632267D01*
X126881380Y-43627165D01*
X126846837Y-43610555D01*
X126804082Y-43600496D01*
X126744314Y-43595607D01*
X126673310Y-43594483D01*
X126518737Y-43594421D01*
X126518737Y-43529625D01*
X126525294Y-43479350D01*
X126542025Y-43445669D01*
X126543984Y-43443876D01*
X126581217Y-43429142D01*
X126637420Y-43423431D01*
X126699533Y-43426237D01*
X126754490Y-43437056D01*
X126787101Y-43453282D01*
X126804772Y-43466280D01*
X126823431Y-43468762D01*
X126849181Y-43458113D01*
X126888127Y-43431718D01*
X126946370Y-43386965D01*
X126951716Y-43382773D01*
X126948977Y-43367260D01*
X126926124Y-43341460D01*
X126891391Y-43312789D01*
X126853010Y-43288666D01*
X126840952Y-43282970D01*
X126796966Y-43271603D01*
X126732513Y-43263495D01*
X126660503Y-43260243D01*
X126657136Y-43260236D01*
X126553543Y-43266684D01*
G36*
X127250640Y-42020968D02*
G01*
X127215408Y-42038374D01*
X127171960Y-42068706D01*
X127140294Y-42101783D01*
X127118606Y-42143317D01*
X127105097Y-42199022D01*
X127097962Y-42274611D01*
X127095400Y-42375796D01*
X127095250Y-42419297D01*
X127095688Y-42514635D01*
X127097504Y-42582771D01*
X127101455Y-42629918D01*
X127108298Y-42662290D01*
X127118789Y-42686100D01*
X127129704Y-42702343D01*
X127199381Y-42771452D01*
X127281434Y-42813021D01*
X127369950Y-42825523D01*
X127459019Y-42807434D01*
X127487237Y-42794642D01*
X127554790Y-42759431D01*
X127554790Y-43311200D01*
X127505488Y-43285705D01*
X127440527Y-43265980D01*
X127360680Y-43260927D01*
X127280948Y-43270256D01*
X127220735Y-43291214D01*
X127170792Y-43331127D01*
X127128119Y-43388241D01*
X127124910Y-43394105D01*
X127111378Y-43421727D01*
X127101495Y-43449568D01*
X127094691Y-43483294D01*
X127090399Y-43528571D01*
X127088049Y-43591062D01*
X127087072Y-43676435D01*
X127086895Y-43772510D01*
X127086895Y-44079026D01*
X127270711Y-44079026D01*
X127270711Y-43513839D01*
X127322125Y-43470577D01*
X127375534Y-43435972D01*
X127426112Y-43429680D01*
X127476970Y-43445872D01*
X127504075Y-43461727D01*
X127524249Y-43484310D01*
X127538597Y-43518440D01*
X127548224Y-43568934D01*
X127554237Y-43640611D01*
X127557740Y-43738288D01*
X127558974Y-43803302D01*
X127563145Y-44070671D01*
X127650875Y-44075722D01*
X127738606Y-44080773D01*
X127738606Y-42421601D01*
X127554790Y-42421601D01*
X127550104Y-42514100D01*
X127534312Y-42578309D01*
X127504817Y-42618259D01*
X127459020Y-42637980D01*
X127412750Y-42641921D01*
X127360372Y-42637392D01*
X127325610Y-42619569D01*
X127303872Y-42596019D01*
X127286760Y-42570689D01*
X127276573Y-42542469D01*
X127272040Y-42502931D01*
X127271891Y-42443642D01*
X127273416Y-42393998D01*
X127276919Y-42319210D01*
X127282133Y-42270111D01*
X127290913Y-42238967D01*
X127305114Y-42218045D01*
X127318516Y-42205952D01*
X127374513Y-42179581D01*
X127440789Y-42175322D01*
X127478844Y-42184406D01*
X127516523Y-42216696D01*
X127541481Y-42279506D01*
X127553578Y-42372394D01*
X127554790Y-42421601D01*
X127738606Y-42421601D01*
X127738606Y-42006921D01*
X127646698Y-42006921D01*
X127591517Y-42009103D01*
X127563048Y-42016851D01*
X127554794Y-42031968D01*
X127554790Y-42032416D01*
X127550960Y-42047220D01*
X127534067Y-42045539D01*
X127500481Y-42029272D01*
X127422222Y-42004387D01*
X127334173Y-42001771D01*
X127250640Y-42020968D01*
X127250640Y-42020968D01*
G37*
X127250640Y-42020968D02*
X127215408Y-42038374D01*
X127171960Y-42068706D01*
X127140294Y-42101783D01*
X127118606Y-42143317D01*
X127105097Y-42199022D01*
X127097962Y-42274611D01*
X127095400Y-42375796D01*
X127095250Y-42419297D01*
X127095688Y-42514635D01*
X127097504Y-42582771D01*
X127101455Y-42629918D01*
X127108298Y-42662290D01*
X127118789Y-42686100D01*
X127129704Y-42702343D01*
X127199381Y-42771452D01*
X127281434Y-42813021D01*
X127369950Y-42825523D01*
X127459019Y-42807434D01*
X127487237Y-42794642D01*
X127554790Y-42759431D01*
X127554790Y-43311200D01*
X127505488Y-43285705D01*
X127440527Y-43265980D01*
X127360680Y-43260927D01*
X127280948Y-43270256D01*
X127220735Y-43291214D01*
X127170792Y-43331127D01*
X127128119Y-43388241D01*
X127124910Y-43394105D01*
X127111378Y-43421727D01*
X127101495Y-43449568D01*
X127094691Y-43483294D01*
X127090399Y-43528571D01*
X127088049Y-43591062D01*
X127087072Y-43676435D01*
X127086895Y-43772510D01*
X127086895Y-44079026D01*
X127270711Y-44079026D01*
X127270711Y-43513839D01*
X127322125Y-43470577D01*
X127375534Y-43435972D01*
X127426112Y-43429680D01*
X127476970Y-43445872D01*
X127504075Y-43461727D01*
X127524249Y-43484310D01*
X127538597Y-43518440D01*
X127548224Y-43568934D01*
X127554237Y-43640611D01*
X127557740Y-43738288D01*
X127558974Y-43803302D01*
X127563145Y-44070671D01*
X127650875Y-44075722D01*
X127738606Y-44080773D01*
X127738606Y-42421601D01*
X127554790Y-42421601D01*
X127550104Y-42514100D01*
X127534312Y-42578309D01*
X127504817Y-42618259D01*
X127459020Y-42637980D01*
X127412750Y-42641921D01*
X127360372Y-42637392D01*
X127325610Y-42619569D01*
X127303872Y-42596019D01*
X127286760Y-42570689D01*
X127276573Y-42542469D01*
X127272040Y-42502931D01*
X127271891Y-42443642D01*
X127273416Y-42393998D01*
X127276919Y-42319210D01*
X127282133Y-42270111D01*
X127290913Y-42238967D01*
X127305114Y-42218045D01*
X127318516Y-42205952D01*
X127374513Y-42179581D01*
X127440789Y-42175322D01*
X127478844Y-42184406D01*
X127516523Y-42216696D01*
X127541481Y-42279506D01*
X127553578Y-42372394D01*
X127554790Y-42421601D01*
X127738606Y-42421601D01*
X127738606Y-42006921D01*
X127646698Y-42006921D01*
X127591517Y-42009103D01*
X127563048Y-42016851D01*
X127554794Y-42031968D01*
X127554790Y-42032416D01*
X127550960Y-42047220D01*
X127534067Y-42045539D01*
X127500481Y-42029272D01*
X127422222Y-42004387D01*
X127334173Y-42001771D01*
X127250640Y-42020968D01*
D11*
X102397600Y-43398400D02*
X100497600Y-43398400D01*
X102397600Y-45298400D02*
X102397600Y-43398400D01*
X100497600Y-45298400D02*
X102397600Y-45298400D01*
X100497600Y-43398400D02*
X100497600Y-45298400D01*
X104988400Y-43398400D02*
X103088400Y-43398400D01*
X104988400Y-45298400D02*
X104988400Y-43398400D01*
X103088400Y-45298400D02*
X104988400Y-45298400D01*
X103088400Y-43398400D02*
X103088400Y-45298400D01*
X107579200Y-43398400D02*
X105679200Y-43398400D01*
X107579200Y-45298400D02*
X107579200Y-43398400D01*
X105679200Y-45298400D02*
X107579200Y-45298400D01*
X105679200Y-43398400D02*
X105679200Y-45298400D01*
X108270000Y-45298400D02*
X110170000Y-45298400D01*
X108270000Y-43398400D02*
X108270000Y-45298400D01*
X110170000Y-43398400D02*
X108270000Y-43398400D01*
X110170000Y-45298400D02*
X110170000Y-43398400D01*
X128665200Y-60315600D02*
X127265200Y-60315600D01*
X126565200Y-61015600D02*
X126565200Y-61615600D01*
X127265200Y-62315600D02*
X128665200Y-62315600D01*
X129365200Y-61615600D02*
X129365200Y-61015600D01*
X129365200Y-61015600D02*
G75*
G03X128665200Y-60315600I-700000J0D01*
G01*
X128665200Y-62315600D02*
G75*
G03X129365200Y-61615600I0J700000D01*
G01*
X126565200Y-61615600D02*
G75*
G03X127265200Y-62315600I700000J0D01*
G01*
X127265200Y-60315600D02*
G75*
G03X126565200Y-61015600I0J-700000D01*
G01*
X128741400Y-65878200D02*
X127341400Y-65878200D01*
X126641400Y-66578200D02*
X126641400Y-67178200D01*
X127341400Y-67878200D02*
X128741400Y-67878200D01*
X129441400Y-67178200D02*
X129441400Y-66578200D01*
X129441400Y-66578200D02*
G75*
G03X128741400Y-65878200I-700000J0D01*
G01*
X128741400Y-67878200D02*
G75*
G03X129441400Y-67178200I0J700000D01*
G01*
X126641400Y-67178200D02*
G75*
G03X127341400Y-67878200I700000J0D01*
G01*
X127341400Y-65878200D02*
G75*
G03X126641400Y-66578200I0J-700000D01*
G01*
X128781800Y-68697600D02*
X127381800Y-68697600D01*
X126681800Y-69397600D02*
X126681800Y-69997600D01*
X127381800Y-70697600D02*
X128781800Y-70697600D01*
X129481800Y-69997600D02*
X129481800Y-69397600D01*
X129481800Y-69397600D02*
G75*
G03X128781800Y-68697600I-700000J0D01*
G01*
X128781800Y-70697600D02*
G75*
G03X129481800Y-69997600I0J700000D01*
G01*
X126681800Y-69997600D02*
G75*
G03X127381800Y-70697600I700000J0D01*
G01*
X127381800Y-68697600D02*
G75*
G03X126681800Y-69397600I0J-700000D01*
G01*
X128716000Y-63084200D02*
X127316000Y-63084200D01*
X126616000Y-63784200D02*
X126616000Y-64384200D01*
X127316000Y-65084200D02*
X128716000Y-65084200D01*
X129416000Y-64384200D02*
X129416000Y-63784200D01*
X129416000Y-63784200D02*
G75*
G03X128716000Y-63084200I-700000J0D01*
G01*
X128716000Y-65084200D02*
G75*
G03X129416000Y-64384200I0J700000D01*
G01*
X126616000Y-64384200D02*
G75*
G03X127316000Y-65084200I700000J0D01*
G01*
X127316000Y-63084200D02*
G75*
G03X126616000Y-63784200I0J-700000D01*
G01*
D12*
X100973000Y-40113104D02*
X100925380Y-40017866D01*
X100925380Y-39875009D01*
X100973000Y-39732152D01*
X101068238Y-39636914D01*
X101163476Y-39589295D01*
X101353952Y-39541676D01*
X101496809Y-39541676D01*
X101687285Y-39589295D01*
X101782523Y-39636914D01*
X101877761Y-39732152D01*
X101925380Y-39875009D01*
X101925380Y-39970247D01*
X101877761Y-40113104D01*
X101830142Y-40160723D01*
X101496809Y-40160723D01*
X101496809Y-39970247D01*
X101925380Y-40589295D02*
X100925380Y-40589295D01*
X101925380Y-41160723D01*
X100925380Y-41160723D01*
X101925380Y-41636914D02*
X100925380Y-41636914D01*
X100925380Y-41875009D01*
X100973000Y-42017866D01*
X101068238Y-42113104D01*
X101163476Y-42160723D01*
X101353952Y-42208342D01*
X101496809Y-42208342D01*
X101687285Y-42160723D01*
X101782523Y-42113104D01*
X101877761Y-42017866D01*
X101925380Y-41875009D01*
X101925380Y-41636914D01*
X101925380Y-43160723D02*
X101925380Y-42589295D01*
X101925380Y-42875009D02*
X100925380Y-42875009D01*
X101068238Y-42779771D01*
X101163476Y-42684533D01*
X101211095Y-42589295D01*
X104544761Y-39609923D02*
X104592380Y-39752780D01*
X104592380Y-39990876D01*
X104544761Y-40086114D01*
X104497142Y-40133733D01*
X104401904Y-40181352D01*
X104306666Y-40181352D01*
X104211428Y-40133733D01*
X104163809Y-40086114D01*
X104116190Y-39990876D01*
X104068571Y-39800400D01*
X104020952Y-39705161D01*
X103973333Y-39657542D01*
X103878095Y-39609923D01*
X103782857Y-39609923D01*
X103687619Y-39657542D01*
X103640000Y-39705161D01*
X103592380Y-39800400D01*
X103592380Y-40038495D01*
X103640000Y-40181352D01*
X104592380Y-40609923D02*
X103592380Y-40609923D01*
X103592380Y-40848019D01*
X103640000Y-40990876D01*
X103735238Y-41086114D01*
X103830476Y-41133733D01*
X104020952Y-41181352D01*
X104163809Y-41181352D01*
X104354285Y-41133733D01*
X104449523Y-41086114D01*
X104544761Y-40990876D01*
X104592380Y-40848019D01*
X104592380Y-40609923D01*
X104306666Y-41562304D02*
X104306666Y-42038495D01*
X104592380Y-41467066D02*
X103592380Y-41800400D01*
X104592380Y-42133733D01*
X104592380Y-42990876D02*
X104592380Y-42419447D01*
X104592380Y-42705161D02*
X103592380Y-42705161D01*
X103735238Y-42609923D01*
X103830476Y-42514685D01*
X103878095Y-42419447D01*
X107211761Y-39659133D02*
X107259380Y-39801990D01*
X107259380Y-40040085D01*
X107211761Y-40135323D01*
X107164142Y-40182942D01*
X107068904Y-40230561D01*
X106973666Y-40230561D01*
X106878428Y-40182942D01*
X106830809Y-40135323D01*
X106783190Y-40040085D01*
X106735571Y-39849609D01*
X106687952Y-39754371D01*
X106640333Y-39706752D01*
X106545095Y-39659133D01*
X106449857Y-39659133D01*
X106354619Y-39706752D01*
X106307000Y-39754371D01*
X106259380Y-39849609D01*
X106259380Y-40087704D01*
X106307000Y-40230561D01*
X107164142Y-41230561D02*
X107211761Y-41182942D01*
X107259380Y-41040085D01*
X107259380Y-40944847D01*
X107211761Y-40801990D01*
X107116523Y-40706752D01*
X107021285Y-40659133D01*
X106830809Y-40611514D01*
X106687952Y-40611514D01*
X106497476Y-40659133D01*
X106402238Y-40706752D01*
X106307000Y-40801990D01*
X106259380Y-40944847D01*
X106259380Y-41040085D01*
X106307000Y-41182942D01*
X106354619Y-41230561D01*
X107259380Y-42135323D02*
X107259380Y-41659133D01*
X106259380Y-41659133D01*
X107259380Y-42992466D02*
X107259380Y-42421038D01*
X107259380Y-42706752D02*
X106259380Y-42706752D01*
X106402238Y-42611514D01*
X106497476Y-42516276D01*
X106545095Y-42421038D01*
X109367628Y-39030495D02*
X109367628Y-39792400D01*
X109748580Y-39411447D02*
X108986676Y-39411447D01*
X108748580Y-40173352D02*
X108748580Y-40792400D01*
X109129533Y-40459066D01*
X109129533Y-40601923D01*
X109177152Y-40697161D01*
X109224771Y-40744780D01*
X109320009Y-40792400D01*
X109558104Y-40792400D01*
X109653342Y-40744780D01*
X109700961Y-40697161D01*
X109748580Y-40601923D01*
X109748580Y-40316209D01*
X109700961Y-40220971D01*
X109653342Y-40173352D01*
X108748580Y-41078114D02*
X109748580Y-41411447D01*
X108748580Y-41744780D01*
X108748580Y-41982876D02*
X108748580Y-42601923D01*
X109129533Y-42268590D01*
X109129533Y-42411447D01*
X109177152Y-42506685D01*
X109224771Y-42554304D01*
X109320009Y-42601923D01*
X109558104Y-42601923D01*
X109653342Y-42554304D01*
X109700961Y-42506685D01*
X109748580Y-42411447D01*
X109748580Y-42125733D01*
X109700961Y-42030495D01*
X109653342Y-41982876D01*
X125769500Y-61729880D02*
X125769500Y-60729880D01*
X125531404Y-60729880D01*
X125388547Y-60777500D01*
X125293309Y-60872738D01*
X125245690Y-60967976D01*
X125198071Y-61158452D01*
X125198071Y-61301309D01*
X125245690Y-61491785D01*
X125293309Y-61587023D01*
X125388547Y-61682261D01*
X125531404Y-61729880D01*
X125769500Y-61729880D01*
X124769500Y-61729880D02*
X124769500Y-60729880D01*
X124102833Y-60729880D02*
X123912357Y-60729880D01*
X123817119Y-60777500D01*
X123721880Y-60872738D01*
X123674261Y-61063214D01*
X123674261Y-61396547D01*
X123721880Y-61587023D01*
X123817119Y-61682261D01*
X123912357Y-61729880D01*
X124102833Y-61729880D01*
X124198071Y-61682261D01*
X124293309Y-61587023D01*
X124340928Y-61396547D01*
X124340928Y-61063214D01*
X124293309Y-60872738D01*
X124198071Y-60777500D01*
X124102833Y-60729880D01*
X123293309Y-60825119D02*
X123245690Y-60777500D01*
X123150452Y-60729880D01*
X122912357Y-60729880D01*
X122817119Y-60777500D01*
X122769500Y-60825119D01*
X122721880Y-60920357D01*
X122721880Y-61015595D01*
X122769500Y-61158452D01*
X123340928Y-61729880D01*
X122721880Y-61729880D01*
X125769500Y-67381380D02*
X125769500Y-66381380D01*
X125531404Y-66381380D01*
X125388547Y-66429000D01*
X125293309Y-66524238D01*
X125245690Y-66619476D01*
X125198071Y-66809952D01*
X125198071Y-66952809D01*
X125245690Y-67143285D01*
X125293309Y-67238523D01*
X125388547Y-67333761D01*
X125531404Y-67381380D01*
X125769500Y-67381380D01*
X124769500Y-67381380D02*
X124769500Y-66381380D01*
X124102833Y-66381380D02*
X123912357Y-66381380D01*
X123817119Y-66429000D01*
X123721880Y-66524238D01*
X123674261Y-66714714D01*
X123674261Y-67048047D01*
X123721880Y-67238523D01*
X123817119Y-67333761D01*
X123912357Y-67381380D01*
X124102833Y-67381380D01*
X124198071Y-67333761D01*
X124293309Y-67238523D01*
X124340928Y-67048047D01*
X124340928Y-66714714D01*
X124293309Y-66524238D01*
X124198071Y-66429000D01*
X124102833Y-66381380D01*
X123340928Y-66381380D02*
X122721880Y-66381380D01*
X123055214Y-66762333D01*
X122912357Y-66762333D01*
X122817119Y-66809952D01*
X122769500Y-66857571D01*
X122721880Y-66952809D01*
X122721880Y-67190904D01*
X122769500Y-67286142D01*
X122817119Y-67333761D01*
X122912357Y-67381380D01*
X123198071Y-67381380D01*
X123293309Y-67333761D01*
X123340928Y-67286142D01*
X125769500Y-70175380D02*
X125769500Y-69175380D01*
X125531404Y-69175380D01*
X125388547Y-69223000D01*
X125293309Y-69318238D01*
X125245690Y-69413476D01*
X125198071Y-69603952D01*
X125198071Y-69746809D01*
X125245690Y-69937285D01*
X125293309Y-70032523D01*
X125388547Y-70127761D01*
X125531404Y-70175380D01*
X125769500Y-70175380D01*
X124769500Y-70175380D02*
X124769500Y-69175380D01*
X124102833Y-69175380D02*
X123912357Y-69175380D01*
X123817119Y-69223000D01*
X123721880Y-69318238D01*
X123674261Y-69508714D01*
X123674261Y-69842047D01*
X123721880Y-70032523D01*
X123817119Y-70127761D01*
X123912357Y-70175380D01*
X124102833Y-70175380D01*
X124198071Y-70127761D01*
X124293309Y-70032523D01*
X124340928Y-69842047D01*
X124340928Y-69508714D01*
X124293309Y-69318238D01*
X124198071Y-69223000D01*
X124102833Y-69175380D01*
X122769500Y-69175380D02*
X123245690Y-69175380D01*
X123293309Y-69651571D01*
X123245690Y-69603952D01*
X123150452Y-69556333D01*
X122912357Y-69556333D01*
X122817119Y-69603952D01*
X122769500Y-69651571D01*
X122721880Y-69746809D01*
X122721880Y-69984904D01*
X122769500Y-70080142D01*
X122817119Y-70127761D01*
X122912357Y-70175380D01*
X123150452Y-70175380D01*
X123245690Y-70127761D01*
X123293309Y-70080142D01*
X125769500Y-64587380D02*
X125769500Y-63587380D01*
X125531404Y-63587380D01*
X125388547Y-63635000D01*
X125293309Y-63730238D01*
X125245690Y-63825476D01*
X125198071Y-64015952D01*
X125198071Y-64158809D01*
X125245690Y-64349285D01*
X125293309Y-64444523D01*
X125388547Y-64539761D01*
X125531404Y-64587380D01*
X125769500Y-64587380D01*
X124769500Y-64587380D02*
X124769500Y-63587380D01*
X124102833Y-63587380D02*
X123912357Y-63587380D01*
X123817119Y-63635000D01*
X123721880Y-63730238D01*
X123674261Y-63920714D01*
X123674261Y-64254047D01*
X123721880Y-64444523D01*
X123817119Y-64539761D01*
X123912357Y-64587380D01*
X124102833Y-64587380D01*
X124198071Y-64539761D01*
X124293309Y-64444523D01*
X124340928Y-64254047D01*
X124340928Y-63920714D01*
X124293309Y-63730238D01*
X124198071Y-63635000D01*
X124102833Y-63587380D01*
X122721880Y-64587380D02*
X123293309Y-64587380D01*
X123007595Y-64587380D02*
X123007595Y-63587380D01*
X123102833Y-63730238D01*
X123198071Y-63825476D01*
X123293309Y-63873095D01*
M02*
