G04 #@! TF.GenerationSoftware,KiCad,Pcbnew,5.1.4-e60b266~84~ubuntu18.04.1*
G04 #@! TF.CreationDate,2019-11-10T18:42:59+01:00*
G04 #@! TF.ProjectId,LoRaModule,4c6f5261-4d6f-4647-956c-652e6b696361,rev?*
G04 #@! TF.SameCoordinates,Original*
G04 #@! TF.FileFunction,Legend,Top*
G04 #@! TF.FilePolarity,Positive*
%FSLAX46Y46*%
G04 Gerber Fmt 4.6, Leading zero omitted, Abs format (unit mm)*
G04 Created by KiCad (PCBNEW 5.1.4-e60b266~84~ubuntu18.04.1) date 2019-11-10 18:42:59*
%MOMM*%
%LPD*%
G04 APERTURE LIST*
%ADD10C,0.150000*%
%ADD11C,0.120000*%
%ADD12C,0.203200*%
G04 APERTURE END LIST*
D10*
X102600833Y-33472380D02*
X102600833Y-32472380D01*
X102600833Y-32853333D02*
X102696071Y-32805714D01*
X102886547Y-32805714D01*
X102981785Y-32853333D01*
X103029404Y-32900952D01*
X103077023Y-32996190D01*
X103077023Y-33281904D01*
X103029404Y-33377142D01*
X102981785Y-33424761D01*
X102886547Y-33472380D01*
X102696071Y-33472380D01*
X102600833Y-33424761D01*
X103410357Y-32805714D02*
X103648452Y-33472380D01*
X103886547Y-32805714D02*
X103648452Y-33472380D01*
X103553214Y-33710476D01*
X103505595Y-33758095D01*
X103410357Y-33805714D01*
X105648452Y-32996190D02*
X105600833Y-32948571D01*
X105505595Y-32900952D01*
X105410357Y-32900952D01*
X105315119Y-32948571D01*
X105267500Y-32996190D01*
X105219880Y-33091428D01*
X105219880Y-33186666D01*
X105267500Y-33281904D01*
X105315119Y-33329523D01*
X105410357Y-33377142D01*
X105505595Y-33377142D01*
X105600833Y-33329523D01*
X105648452Y-33281904D01*
X105648452Y-32900952D02*
X105648452Y-33281904D01*
X105696071Y-33329523D01*
X105743690Y-33329523D01*
X105838928Y-33281904D01*
X105886547Y-33186666D01*
X105886547Y-32948571D01*
X105791309Y-32805714D01*
X105648452Y-32710476D01*
X105457976Y-32662857D01*
X105267500Y-32710476D01*
X105124642Y-32805714D01*
X105029404Y-32948571D01*
X104981785Y-33139047D01*
X105029404Y-33329523D01*
X105124642Y-33472380D01*
X105267500Y-33567619D01*
X105457976Y-33615238D01*
X105648452Y-33567619D01*
X105791309Y-33472380D01*
X106315119Y-33472380D02*
X106315119Y-32805714D01*
X106315119Y-32900952D02*
X106362738Y-32853333D01*
X106457976Y-32805714D01*
X106600833Y-32805714D01*
X106696071Y-32853333D01*
X106743690Y-32948571D01*
X106743690Y-33472380D01*
X106743690Y-32948571D02*
X106791309Y-32853333D01*
X106886547Y-32805714D01*
X107029404Y-32805714D01*
X107124642Y-32853333D01*
X107172261Y-32948571D01*
X107172261Y-33472380D01*
X108029404Y-33424761D02*
X107934166Y-33472380D01*
X107743690Y-33472380D01*
X107648452Y-33424761D01*
X107600833Y-33329523D01*
X107600833Y-32948571D01*
X107648452Y-32853333D01*
X107743690Y-32805714D01*
X107934166Y-32805714D01*
X108029404Y-32853333D01*
X108077023Y-32948571D01*
X108077023Y-33043809D01*
X107600833Y-33139047D01*
X108362738Y-32805714D02*
X108743690Y-32805714D01*
X108505595Y-32472380D02*
X108505595Y-33329523D01*
X108553214Y-33424761D01*
X108648452Y-33472380D01*
X108743690Y-33472380D01*
X109505595Y-33472380D02*
X109505595Y-32948571D01*
X109457976Y-32853333D01*
X109362738Y-32805714D01*
X109172261Y-32805714D01*
X109077023Y-32853333D01*
X109505595Y-33424761D02*
X109410357Y-33472380D01*
X109172261Y-33472380D01*
X109077023Y-33424761D01*
X109029404Y-33329523D01*
X109029404Y-33234285D01*
X109077023Y-33139047D01*
X109172261Y-33091428D01*
X109410357Y-33091428D01*
X109505595Y-33043809D01*
X110124642Y-33472380D02*
X110029404Y-33424761D01*
X109981785Y-33329523D01*
X109981785Y-32472380D01*
X110410357Y-32805714D02*
X110934166Y-32805714D01*
X110410357Y-33472380D01*
X110934166Y-33472380D01*
X111457976Y-33472380D02*
X111362738Y-33424761D01*
X111315119Y-33377142D01*
X111267500Y-33281904D01*
X111267500Y-32996190D01*
X111315119Y-32900952D01*
X111362738Y-32853333D01*
X111457976Y-32805714D01*
X111600833Y-32805714D01*
X111696071Y-32853333D01*
X111743690Y-32900952D01*
X111791309Y-32996190D01*
X111791309Y-33281904D01*
X111743690Y-33377142D01*
X111696071Y-33424761D01*
X111600833Y-33472380D01*
X111457976Y-33472380D01*
X112219880Y-32805714D02*
X112219880Y-33472380D01*
X112219880Y-32900952D02*
X112267500Y-32853333D01*
X112362738Y-32805714D01*
X112505595Y-32805714D01*
X112600833Y-32853333D01*
X112648452Y-32948571D01*
X112648452Y-33472380D01*
X113124642Y-33472380D02*
X113124642Y-32805714D01*
X113124642Y-32472380D02*
X113077023Y-32520000D01*
X113124642Y-32567619D01*
X113172261Y-32520000D01*
X113124642Y-32472380D01*
X113124642Y-32567619D01*
X113505595Y-33472380D02*
X114029404Y-32805714D01*
X113505595Y-32805714D02*
X114029404Y-33472380D01*
X97194142Y-31251500D02*
X97765571Y-31251500D01*
X97079857Y-31594357D02*
X97479857Y-30394357D01*
X97879857Y-31594357D01*
X98908428Y-30451500D02*
X98794142Y-30394357D01*
X98622714Y-30394357D01*
X98451285Y-30451500D01*
X98337000Y-30565785D01*
X98279857Y-30680071D01*
X98222714Y-30908642D01*
X98222714Y-31080071D01*
X98279857Y-31308642D01*
X98337000Y-31422928D01*
X98451285Y-31537214D01*
X98622714Y-31594357D01*
X98737000Y-31594357D01*
X98908428Y-31537214D01*
X98965571Y-31480071D01*
X98965571Y-31080071D01*
X98737000Y-31080071D01*
X100165571Y-31594357D02*
X99765571Y-31022928D01*
X99479857Y-31594357D02*
X99479857Y-30394357D01*
X99937000Y-30394357D01*
X100051285Y-30451500D01*
X100108428Y-30508642D01*
X100165571Y-30622928D01*
X100165571Y-30794357D01*
X100108428Y-30908642D01*
X100051285Y-30965785D01*
X99937000Y-31022928D01*
X99479857Y-31022928D01*
X100679857Y-31594357D02*
X100679857Y-30394357D01*
X101479857Y-30394357D02*
X101708428Y-30394357D01*
X101822714Y-30451500D01*
X101937000Y-30565785D01*
X101994142Y-30794357D01*
X101994142Y-31194357D01*
X101937000Y-31422928D01*
X101822714Y-31537214D01*
X101708428Y-31594357D01*
X101479857Y-31594357D01*
X101365571Y-31537214D01*
X101251285Y-31422928D01*
X101194142Y-31194357D01*
X101194142Y-30794357D01*
X101251285Y-30565785D01*
X101365571Y-30451500D01*
X101479857Y-30394357D01*
X102337000Y-30394357D02*
X103022714Y-30394357D01*
X102679857Y-31594357D02*
X102679857Y-30394357D01*
X104279857Y-31537214D02*
X104451285Y-31594357D01*
X104737000Y-31594357D01*
X104851285Y-31537214D01*
X104908428Y-31480071D01*
X104965571Y-31365785D01*
X104965571Y-31251500D01*
X104908428Y-31137214D01*
X104851285Y-31080071D01*
X104737000Y-31022928D01*
X104508428Y-30965785D01*
X104394142Y-30908642D01*
X104337000Y-30851500D01*
X104279857Y-30737214D01*
X104279857Y-30622928D01*
X104337000Y-30508642D01*
X104394142Y-30451500D01*
X104508428Y-30394357D01*
X104794142Y-30394357D01*
X104965571Y-30451500D01*
X105479857Y-30965785D02*
X105879857Y-30965785D01*
X106051285Y-31594357D02*
X105479857Y-31594357D01*
X105479857Y-30394357D01*
X106051285Y-30394357D01*
X106565571Y-31594357D02*
X106565571Y-30394357D01*
X107251285Y-31594357D01*
X107251285Y-30394357D01*
X107765571Y-31537214D02*
X107937000Y-31594357D01*
X108222714Y-31594357D01*
X108337000Y-31537214D01*
X108394142Y-31480071D01*
X108451285Y-31365785D01*
X108451285Y-31251500D01*
X108394142Y-31137214D01*
X108337000Y-31080071D01*
X108222714Y-31022928D01*
X107994142Y-30965785D01*
X107879857Y-30908642D01*
X107822714Y-30851500D01*
X107765571Y-30737214D01*
X107765571Y-30622928D01*
X107822714Y-30508642D01*
X107879857Y-30451500D01*
X107994142Y-30394357D01*
X108279857Y-30394357D01*
X108451285Y-30451500D01*
X109194142Y-30394357D02*
X109422714Y-30394357D01*
X109537000Y-30451500D01*
X109651285Y-30565785D01*
X109708428Y-30794357D01*
X109708428Y-31194357D01*
X109651285Y-31422928D01*
X109537000Y-31537214D01*
X109422714Y-31594357D01*
X109194142Y-31594357D01*
X109079857Y-31537214D01*
X108965571Y-31422928D01*
X108908428Y-31194357D01*
X108908428Y-30794357D01*
X108965571Y-30565785D01*
X109079857Y-30451500D01*
X109194142Y-30394357D01*
X110908428Y-31594357D02*
X110508428Y-31022928D01*
X110222714Y-31594357D02*
X110222714Y-30394357D01*
X110679857Y-30394357D01*
X110794142Y-30451500D01*
X110851285Y-30508642D01*
X110908428Y-30622928D01*
X110908428Y-30794357D01*
X110851285Y-30908642D01*
X110794142Y-30965785D01*
X110679857Y-31022928D01*
X110222714Y-31022928D01*
X112222714Y-30794357D02*
X112508428Y-31594357D01*
X112794142Y-30794357D01*
X113879857Y-31594357D02*
X113194142Y-31594357D01*
X113537000Y-31594357D02*
X113537000Y-30394357D01*
X113422714Y-30565785D01*
X113308428Y-30680071D01*
X113194142Y-30737214D01*
X94813428Y-70119095D02*
X94813428Y-69357190D01*
X95194380Y-69738142D02*
X94432476Y-69738142D01*
X94194380Y-68976238D02*
X94194380Y-68357190D01*
X94575333Y-68690523D01*
X94575333Y-68547666D01*
X94622952Y-68452428D01*
X94670571Y-68404809D01*
X94765809Y-68357190D01*
X95003904Y-68357190D01*
X95099142Y-68404809D01*
X95146761Y-68452428D01*
X95194380Y-68547666D01*
X95194380Y-68833380D01*
X95146761Y-68928619D01*
X95099142Y-68976238D01*
X94194380Y-68071476D02*
X95194380Y-67738142D01*
X94194380Y-67404809D01*
X94194380Y-67166714D02*
X94194380Y-66547666D01*
X94575333Y-66881000D01*
X94575333Y-66738142D01*
X94622952Y-66642904D01*
X94670571Y-66595285D01*
X94765809Y-66547666D01*
X95003904Y-66547666D01*
X95099142Y-66595285D01*
X95146761Y-66642904D01*
X95194380Y-66738142D01*
X95194380Y-67023857D01*
X95146761Y-67119095D01*
X95099142Y-67166714D01*
X94908666Y-64642904D02*
X94908666Y-64166714D01*
X95194380Y-64738142D02*
X94194380Y-64404809D01*
X95194380Y-64071476D01*
X94194380Y-63738142D02*
X95003904Y-63738142D01*
X95099142Y-63690523D01*
X95146761Y-63642904D01*
X95194380Y-63547666D01*
X95194380Y-63357190D01*
X95146761Y-63261952D01*
X95099142Y-63214333D01*
X95003904Y-63166714D01*
X94194380Y-63166714D01*
X94194380Y-62785761D02*
X95194380Y-62119095D01*
X94194380Y-62119095D02*
X95194380Y-62785761D01*
X94242000Y-59690523D02*
X94194380Y-59785761D01*
X94194380Y-59928619D01*
X94242000Y-60071476D01*
X94337238Y-60166714D01*
X94432476Y-60214333D01*
X94622952Y-60261952D01*
X94765809Y-60261952D01*
X94956285Y-60214333D01*
X95051523Y-60166714D01*
X95146761Y-60071476D01*
X95194380Y-59928619D01*
X95194380Y-59833380D01*
X95146761Y-59690523D01*
X95099142Y-59642904D01*
X94765809Y-59642904D01*
X94765809Y-59833380D01*
X95194380Y-59214333D02*
X94194380Y-59214333D01*
X95194380Y-58642904D01*
X94194380Y-58642904D01*
X95194380Y-58166714D02*
X94194380Y-58166714D01*
X94194380Y-57928619D01*
X94242000Y-57785761D01*
X94337238Y-57690523D01*
X94432476Y-57642904D01*
X94622952Y-57595285D01*
X94765809Y-57595285D01*
X94956285Y-57642904D01*
X95051523Y-57690523D01*
X95146761Y-57785761D01*
X95194380Y-57928619D01*
X95194380Y-58166714D01*
X94813428Y-52743952D02*
X94813428Y-51982047D01*
X95194380Y-52363000D02*
X94432476Y-52363000D01*
X94194380Y-51601095D02*
X94194380Y-50982047D01*
X94575333Y-51315380D01*
X94575333Y-51172523D01*
X94622952Y-51077285D01*
X94670571Y-51029666D01*
X94765809Y-50982047D01*
X95003904Y-50982047D01*
X95099142Y-51029666D01*
X95146761Y-51077285D01*
X95194380Y-51172523D01*
X95194380Y-51458238D01*
X95146761Y-51553476D01*
X95099142Y-51601095D01*
X94194380Y-50696333D02*
X95194380Y-50363000D01*
X94194380Y-50029666D01*
X94194380Y-49791571D02*
X94194380Y-49172523D01*
X94575333Y-49505857D01*
X94575333Y-49363000D01*
X94622952Y-49267761D01*
X94670571Y-49220142D01*
X94765809Y-49172523D01*
X95003904Y-49172523D01*
X95099142Y-49220142D01*
X95146761Y-49267761D01*
X95194380Y-49363000D01*
X95194380Y-49648714D01*
X95146761Y-49743952D01*
X95099142Y-49791571D01*
X95146761Y-47267761D02*
X95194380Y-47124904D01*
X95194380Y-46886809D01*
X95146761Y-46791571D01*
X95099142Y-46743952D01*
X95003904Y-46696333D01*
X94908666Y-46696333D01*
X94813428Y-46743952D01*
X94765809Y-46791571D01*
X94718190Y-46886809D01*
X94670571Y-47077285D01*
X94622952Y-47172523D01*
X94575333Y-47220142D01*
X94480095Y-47267761D01*
X94384857Y-47267761D01*
X94289619Y-47220142D01*
X94242000Y-47172523D01*
X94194380Y-47077285D01*
X94194380Y-46839190D01*
X94242000Y-46696333D01*
X94670571Y-46267761D02*
X94670571Y-45934428D01*
X95194380Y-45791571D02*
X95194380Y-46267761D01*
X94194380Y-46267761D01*
X94194380Y-45791571D01*
X95194380Y-45363000D02*
X94194380Y-45363000D01*
X95194380Y-44791571D01*
X94194380Y-44791571D01*
X94242000Y-43029666D02*
X94194380Y-43124904D01*
X94194380Y-43267761D01*
X94242000Y-43410619D01*
X94337238Y-43505857D01*
X94432476Y-43553476D01*
X94622952Y-43601095D01*
X94765809Y-43601095D01*
X94956285Y-43553476D01*
X95051523Y-43505857D01*
X95146761Y-43410619D01*
X95194380Y-43267761D01*
X95194380Y-43172523D01*
X95146761Y-43029666D01*
X95099142Y-42982047D01*
X94765809Y-42982047D01*
X94765809Y-43172523D01*
X95194380Y-42553476D02*
X94194380Y-42553476D01*
X95194380Y-41982047D01*
X94194380Y-41982047D01*
X95194380Y-41505857D02*
X94194380Y-41505857D01*
X94194380Y-41267761D01*
X94242000Y-41124904D01*
X94337238Y-41029666D01*
X94432476Y-40982047D01*
X94622952Y-40934428D01*
X94765809Y-40934428D01*
X94956285Y-40982047D01*
X95051523Y-41029666D01*
X95146761Y-41124904D01*
X95194380Y-41267761D01*
X95194380Y-41505857D01*
X94003880Y-37718547D02*
X95003880Y-37385214D01*
X94003880Y-37051880D01*
X94908642Y-36147119D02*
X94956261Y-36194738D01*
X95003880Y-36337595D01*
X95003880Y-36432833D01*
X94956261Y-36575690D01*
X94861023Y-36670928D01*
X94765785Y-36718547D01*
X94575309Y-36766166D01*
X94432452Y-36766166D01*
X94241976Y-36718547D01*
X94146738Y-36670928D01*
X94051500Y-36575690D01*
X94003880Y-36432833D01*
X94003880Y-36337595D01*
X94051500Y-36194738D01*
X94099119Y-36147119D01*
X94908642Y-35147119D02*
X94956261Y-35194738D01*
X95003880Y-35337595D01*
X95003880Y-35432833D01*
X94956261Y-35575690D01*
X94861023Y-35670928D01*
X94765785Y-35718547D01*
X94575309Y-35766166D01*
X94432452Y-35766166D01*
X94241976Y-35718547D01*
X94146738Y-35670928D01*
X94051500Y-35575690D01*
X94003880Y-35432833D01*
X94003880Y-35337595D01*
X94051500Y-35194738D01*
X94099119Y-35147119D01*
X94051500Y-32670928D02*
X94003880Y-32766166D01*
X94003880Y-32909023D01*
X94051500Y-33051880D01*
X94146738Y-33147119D01*
X94241976Y-33194738D01*
X94432452Y-33242357D01*
X94575309Y-33242357D01*
X94765785Y-33194738D01*
X94861023Y-33147119D01*
X94956261Y-33051880D01*
X95003880Y-32909023D01*
X95003880Y-32813785D01*
X94956261Y-32670928D01*
X94908642Y-32623309D01*
X94575309Y-32623309D01*
X94575309Y-32813785D01*
X95003880Y-32194738D02*
X94003880Y-32194738D01*
X95003880Y-31623309D01*
X94003880Y-31623309D01*
X95003880Y-31147119D02*
X94003880Y-31147119D01*
X94003880Y-30909023D01*
X94051500Y-30766166D01*
X94146738Y-30670928D01*
X94241976Y-30623309D01*
X94432452Y-30575690D01*
X94575309Y-30575690D01*
X94765785Y-30623309D01*
X94861023Y-30670928D01*
X94956261Y-30766166D01*
X95003880Y-30909023D01*
X95003880Y-31147119D01*
D11*
X137062500Y-58681500D02*
X139747500Y-58681500D01*
X137062500Y-56761500D02*
X137062500Y-58681500D01*
X139747500Y-56761500D02*
X137062500Y-56761500D01*
X116078000Y-32029400D02*
X116078000Y-54329400D01*
X133350000Y-32030600D02*
X133350000Y-54330600D01*
X116078000Y-54330600D02*
X116484400Y-54331800D01*
X116078000Y-32029400D02*
X116484400Y-32029400D01*
X133350000Y-32030600D02*
X133045200Y-32030600D01*
X133350000Y-54330600D02*
X133045200Y-54330600D01*
X109235200Y-72324000D02*
X109235200Y-70424000D01*
X111135200Y-72324000D02*
X109235200Y-72324000D01*
X111135200Y-70424000D02*
X111135200Y-72324000D01*
X109235200Y-70424000D02*
X111135200Y-70424000D01*
X106720600Y-72324000D02*
X106720600Y-70424000D01*
X108620600Y-72324000D02*
X106720600Y-72324000D01*
X108620600Y-70424000D02*
X108620600Y-72324000D01*
X106720600Y-70424000D02*
X108620600Y-70424000D01*
X101640600Y-72324000D02*
X101640600Y-70424000D01*
X103540600Y-72324000D02*
X101640600Y-72324000D01*
X103540600Y-70424000D02*
X103540600Y-72324000D01*
X101640600Y-70424000D02*
X103540600Y-70424000D01*
X104180600Y-72324000D02*
X104180600Y-70424000D01*
X106080600Y-72324000D02*
X104180600Y-72324000D01*
X106080600Y-70424000D02*
X106080600Y-72324000D01*
X104180600Y-70424000D02*
X106080600Y-70424000D01*
X138568500Y-54741578D02*
X138568500Y-54224422D01*
X137148500Y-54741578D02*
X137148500Y-54224422D01*
X139172800Y-39081000D02*
X136772800Y-39081000D01*
X141182800Y-39081000D02*
X140772800Y-39081000D01*
X141182800Y-45501000D02*
X141182800Y-39081000D01*
X140772800Y-45501000D02*
X141182800Y-45501000D01*
X136772800Y-45501000D02*
X139172800Y-45501000D01*
X134762800Y-45501000D02*
X135042800Y-45501000D01*
X134762800Y-39081000D02*
X134762800Y-45501000D01*
X135172800Y-39081000D02*
X134762800Y-39081000D01*
X138942578Y-49201000D02*
X138425422Y-49201000D01*
X138942578Y-50621000D02*
X138425422Y-50621000D01*
X86079500Y-56901500D02*
X86079500Y-58401500D01*
X87819500Y-56901500D02*
X86079500Y-56901500D01*
X93439500Y-68461500D02*
X86319500Y-68461500D01*
X93439500Y-57141500D02*
X86319500Y-57141500D01*
X86319500Y-57141500D02*
X86319500Y-68461500D01*
X93439500Y-57141500D02*
X93439500Y-68461500D01*
X87879500Y-57141500D02*
X87879500Y-68461500D01*
X91534500Y-66301500D02*
G75*
G03X91534500Y-66301500I-1555000J0D01*
G01*
X91534500Y-62801500D02*
G75*
G03X91534500Y-62801500I-1555000J0D01*
G01*
X88424008Y-59328511D02*
G75*
G02X88547500Y-58693500I1555492J27011D01*
G01*
X89371758Y-57869391D02*
G75*
G02X90587500Y-57869500I607742J-1432109D01*
G01*
X91411609Y-58693758D02*
G75*
G02X91411500Y-59909500I-1432109J-607742D01*
G01*
X90587242Y-60733609D02*
G75*
G02X89371500Y-60733500I-607742J1432109D01*
G01*
X88548115Y-59909087D02*
G75*
G02X88424500Y-59301500I1431385J607587D01*
G01*
X91968822Y-56361400D02*
X92485978Y-56361400D01*
X91968822Y-54941400D02*
X92485978Y-54941400D01*
X91968822Y-53973800D02*
X92485978Y-53973800D01*
X91968822Y-52553800D02*
X92485978Y-52553800D01*
X86066800Y-40195800D02*
X86066800Y-41695800D01*
X87806800Y-40195800D02*
X86066800Y-40195800D01*
X93426800Y-51755800D02*
X86306800Y-51755800D01*
X93426800Y-40435800D02*
X86306800Y-40435800D01*
X86306800Y-40435800D02*
X86306800Y-51755800D01*
X93426800Y-40435800D02*
X93426800Y-51755800D01*
X87866800Y-40435800D02*
X87866800Y-51755800D01*
X91521800Y-49595800D02*
G75*
G03X91521800Y-49595800I-1555000J0D01*
G01*
X91521800Y-46095800D02*
G75*
G03X91521800Y-46095800I-1555000J0D01*
G01*
X88411308Y-42622811D02*
G75*
G02X88534800Y-41987800I1555492J27011D01*
G01*
X89359058Y-41163691D02*
G75*
G02X90574800Y-41163800I607742J-1432109D01*
G01*
X91398909Y-41988058D02*
G75*
G02X91398800Y-43203800I-1432109J-607742D01*
G01*
X90574542Y-44027909D02*
G75*
G02X89358800Y-44027800I-607742J1432109D01*
G01*
X88535415Y-43203387D02*
G75*
G02X88411800Y-42595800I1431385J607587D01*
G01*
X86016000Y-29883400D02*
X86016000Y-31383400D01*
X87756000Y-29883400D02*
X86016000Y-29883400D01*
X93376000Y-37943400D02*
X86256000Y-37943400D01*
X93376000Y-30123400D02*
X86256000Y-30123400D01*
X86256000Y-30123400D02*
X86256000Y-37943400D01*
X93376000Y-30123400D02*
X93376000Y-37943400D01*
X87816000Y-30123400D02*
X87816000Y-37943400D01*
X91471000Y-35783400D02*
G75*
G03X91471000Y-35783400I-1555000J0D01*
G01*
X88360508Y-32310411D02*
G75*
G02X88484000Y-31675400I1555492J27011D01*
G01*
X89308258Y-30851291D02*
G75*
G02X90524000Y-30851400I607742J-1432109D01*
G01*
X91348109Y-31675658D02*
G75*
G02X91348000Y-32891400I-1432109J-607742D01*
G01*
X90523742Y-33715509D02*
G75*
G02X89308000Y-33715400I-607742J1432109D01*
G01*
X88484615Y-32890987D02*
G75*
G02X88361000Y-32283400I1431385J607587D01*
G01*
D12*
X96078200Y-68267900D02*
X96078200Y-35171700D01*
X113985200Y-68267900D02*
X96078200Y-68267900D01*
X113985200Y-35171700D02*
X113985200Y-68267900D01*
X96078200Y-35171700D02*
X113985200Y-35171700D01*
X100586700Y-39019800D02*
G75*
G03X100586700Y-39019800I-635000J0D01*
G01*
D11*
X139866500Y-70890000D02*
X139866500Y-71690000D01*
X139666500Y-70890000D02*
X139866500Y-70890000D01*
X139866500Y-73890000D02*
X139666500Y-73890000D01*
X139866500Y-73090000D02*
X139866500Y-73890000D01*
X136866500Y-73890000D02*
X136866500Y-73090000D01*
X137066500Y-73890000D02*
X136866500Y-73890000D01*
X136866500Y-71090000D02*
X137066500Y-70890000D01*
X136866500Y-71690000D02*
X136866500Y-71090000D01*
X136866500Y-71690000D02*
X136366500Y-71690000D01*
X136866500Y-73090000D02*
X136366500Y-73090000D01*
X117630000Y-59102800D02*
X116730000Y-59102800D01*
X117630000Y-58752800D02*
X117630000Y-59102800D01*
X133830000Y-74952800D02*
X133830000Y-74552800D01*
X117630000Y-74952800D02*
X133830000Y-74952800D01*
X117630000Y-74552800D02*
X117630000Y-74952800D01*
X133830000Y-58752800D02*
X133830000Y-59152800D01*
X117630000Y-58752800D02*
X133830000Y-58752800D01*
X138149400Y-67111378D02*
X138149400Y-66594222D01*
X136729400Y-67111378D02*
X136729400Y-66594222D01*
D10*
X135088404Y-58046880D02*
X135088404Y-57046880D01*
X135326500Y-57046880D01*
X135469357Y-57094500D01*
X135564595Y-57189738D01*
X135612214Y-57284976D01*
X135659833Y-57475452D01*
X135659833Y-57618309D01*
X135612214Y-57808785D01*
X135564595Y-57904023D01*
X135469357Y-57999261D01*
X135326500Y-58046880D01*
X135088404Y-58046880D01*
X136612214Y-58046880D02*
X136040785Y-58046880D01*
X136326500Y-58046880D02*
X136326500Y-57046880D01*
X136231261Y-57189738D01*
X136136023Y-57284976D01*
X136040785Y-57332595D01*
X123142476Y-31249880D02*
X123142476Y-30249880D01*
X123475809Y-30964166D01*
X123809142Y-30249880D01*
X123809142Y-31249880D01*
X124809142Y-31249880D02*
X124237714Y-31249880D01*
X124523428Y-31249880D02*
X124523428Y-30249880D01*
X124428190Y-30392738D01*
X124332952Y-30487976D01*
X124237714Y-30535595D01*
X109470914Y-73382166D02*
X109947104Y-73382166D01*
X109375676Y-73667880D02*
X109709009Y-72667880D01*
X110042342Y-73667880D01*
X110280438Y-72667880D02*
X110947104Y-72667880D01*
X110518533Y-73667880D01*
X106981714Y-73382166D02*
X107457904Y-73382166D01*
X106886476Y-73667880D02*
X107219809Y-72667880D01*
X107553142Y-73667880D01*
X108315047Y-72667880D02*
X108124571Y-72667880D01*
X108029333Y-72715500D01*
X107981714Y-72763119D01*
X107886476Y-72905976D01*
X107838857Y-73096452D01*
X107838857Y-73477404D01*
X107886476Y-73572642D01*
X107934095Y-73620261D01*
X108029333Y-73667880D01*
X108219809Y-73667880D01*
X108315047Y-73620261D01*
X108362666Y-73572642D01*
X108410285Y-73477404D01*
X108410285Y-73239309D01*
X108362666Y-73144071D01*
X108315047Y-73096452D01*
X108219809Y-73048833D01*
X108029333Y-73048833D01*
X107934095Y-73096452D01*
X107886476Y-73144071D01*
X107838857Y-73239309D01*
X101901714Y-73382166D02*
X102377904Y-73382166D01*
X101806476Y-73667880D02*
X102139809Y-72667880D01*
X102473142Y-73667880D01*
X102711238Y-72667880D02*
X103330285Y-72667880D01*
X102996952Y-73048833D01*
X103139809Y-73048833D01*
X103235047Y-73096452D01*
X103282666Y-73144071D01*
X103330285Y-73239309D01*
X103330285Y-73477404D01*
X103282666Y-73572642D01*
X103235047Y-73620261D01*
X103139809Y-73667880D01*
X102854095Y-73667880D01*
X102758857Y-73620261D01*
X102711238Y-73572642D01*
X104378214Y-73382166D02*
X104854404Y-73382166D01*
X104282976Y-73667880D02*
X104616309Y-72667880D01*
X104949642Y-73667880D01*
X105235357Y-72763119D02*
X105282976Y-72715500D01*
X105378214Y-72667880D01*
X105616309Y-72667880D01*
X105711547Y-72715500D01*
X105759166Y-72763119D01*
X105806785Y-72858357D01*
X105806785Y-72953595D01*
X105759166Y-73096452D01*
X105187738Y-73667880D01*
X105806785Y-73667880D01*
X135659833Y-55316380D02*
X135326500Y-54840190D01*
X135088404Y-55316380D02*
X135088404Y-54316380D01*
X135469357Y-54316380D01*
X135564595Y-54364000D01*
X135612214Y-54411619D01*
X135659833Y-54506857D01*
X135659833Y-54649714D01*
X135612214Y-54744952D01*
X135564595Y-54792571D01*
X135469357Y-54840190D01*
X135088404Y-54840190D01*
X135993166Y-54316380D02*
X136612214Y-54316380D01*
X136278880Y-54697333D01*
X136421738Y-54697333D01*
X136516976Y-54744952D01*
X136564595Y-54792571D01*
X136612214Y-54887809D01*
X136612214Y-55125904D01*
X136564595Y-55221142D01*
X136516976Y-55268761D01*
X136421738Y-55316380D01*
X136136023Y-55316380D01*
X136040785Y-55268761D01*
X135993166Y-55221142D01*
X134620166Y-37298261D02*
X134763023Y-37345880D01*
X135001119Y-37345880D01*
X135096357Y-37298261D01*
X135143976Y-37250642D01*
X135191595Y-37155404D01*
X135191595Y-37060166D01*
X135143976Y-36964928D01*
X135096357Y-36917309D01*
X135001119Y-36869690D01*
X134810642Y-36822071D01*
X134715404Y-36774452D01*
X134667785Y-36726833D01*
X134620166Y-36631595D01*
X134620166Y-36536357D01*
X134667785Y-36441119D01*
X134715404Y-36393500D01*
X134810642Y-36345880D01*
X135048738Y-36345880D01*
X135191595Y-36393500D01*
X135524928Y-36345880D02*
X135763023Y-37345880D01*
X135953500Y-36631595D01*
X136143976Y-37345880D01*
X136382071Y-36345880D01*
X137286833Y-37345880D02*
X136715404Y-37345880D01*
X137001119Y-37345880D02*
X137001119Y-36345880D01*
X136905880Y-36488738D01*
X136810642Y-36583976D01*
X136715404Y-36631595D01*
X135723333Y-51696880D02*
X135390000Y-51220690D01*
X135151904Y-51696880D02*
X135151904Y-50696880D01*
X135532857Y-50696880D01*
X135628095Y-50744500D01*
X135675714Y-50792119D01*
X135723333Y-50887357D01*
X135723333Y-51030214D01*
X135675714Y-51125452D01*
X135628095Y-51173071D01*
X135532857Y-51220690D01*
X135151904Y-51220690D01*
X136580476Y-51030214D02*
X136580476Y-51696880D01*
X136342380Y-50649261D02*
X136104285Y-51363547D01*
X136723333Y-51363547D01*
X87283966Y-68824980D02*
X87283966Y-69539266D01*
X87236347Y-69682123D01*
X87141109Y-69777361D01*
X86998252Y-69824980D01*
X86903014Y-69824980D01*
X88188728Y-68824980D02*
X87998252Y-68824980D01*
X87903014Y-68872600D01*
X87855395Y-68920219D01*
X87760157Y-69063076D01*
X87712538Y-69253552D01*
X87712538Y-69634504D01*
X87760157Y-69729742D01*
X87807776Y-69777361D01*
X87903014Y-69824980D01*
X88093490Y-69824980D01*
X88188728Y-69777361D01*
X88236347Y-69729742D01*
X88283966Y-69634504D01*
X88283966Y-69396409D01*
X88236347Y-69301171D01*
X88188728Y-69253552D01*
X88093490Y-69205933D01*
X87903014Y-69205933D01*
X87807776Y-69253552D01*
X87760157Y-69301171D01*
X87712538Y-69396409D01*
X89342933Y-56179980D02*
X89009600Y-55703790D01*
X88771504Y-56179980D02*
X88771504Y-55179980D01*
X89152457Y-55179980D01*
X89247695Y-55227600D01*
X89295314Y-55275219D01*
X89342933Y-55370457D01*
X89342933Y-55513314D01*
X89295314Y-55608552D01*
X89247695Y-55656171D01*
X89152457Y-55703790D01*
X88771504Y-55703790D01*
X89723885Y-55275219D02*
X89771504Y-55227600D01*
X89866742Y-55179980D01*
X90104838Y-55179980D01*
X90200076Y-55227600D01*
X90247695Y-55275219D01*
X90295314Y-55370457D01*
X90295314Y-55465695D01*
X90247695Y-55608552D01*
X89676266Y-56179980D01*
X90295314Y-56179980D01*
X89368333Y-53728880D02*
X89035000Y-53252690D01*
X88796904Y-53728880D02*
X88796904Y-52728880D01*
X89177857Y-52728880D01*
X89273095Y-52776500D01*
X89320714Y-52824119D01*
X89368333Y-52919357D01*
X89368333Y-53062214D01*
X89320714Y-53157452D01*
X89273095Y-53205071D01*
X89177857Y-53252690D01*
X88796904Y-53252690D01*
X90320714Y-53728880D02*
X89749285Y-53728880D01*
X90035000Y-53728880D02*
X90035000Y-52728880D01*
X89939761Y-52871738D01*
X89844523Y-52966976D01*
X89749285Y-53014595D01*
X87106166Y-52220880D02*
X87106166Y-52935166D01*
X87058547Y-53078023D01*
X86963309Y-53173261D01*
X86820452Y-53220880D01*
X86725214Y-53220880D01*
X88010928Y-52554214D02*
X88010928Y-53220880D01*
X87772833Y-52173261D02*
X87534738Y-52887547D01*
X88153785Y-52887547D01*
X87106166Y-38377880D02*
X87106166Y-39092166D01*
X87058547Y-39235023D01*
X86963309Y-39330261D01*
X86820452Y-39377880D01*
X86725214Y-39377880D01*
X87487119Y-38377880D02*
X88106166Y-38377880D01*
X87772833Y-38758833D01*
X87915690Y-38758833D01*
X88010928Y-38806452D01*
X88058547Y-38854071D01*
X88106166Y-38949309D01*
X88106166Y-39187404D01*
X88058547Y-39282642D01*
X88010928Y-39330261D01*
X87915690Y-39377880D01*
X87629976Y-39377880D01*
X87534738Y-39330261D01*
X87487119Y-39282642D01*
X98171095Y-68984880D02*
X98171095Y-69794404D01*
X98218714Y-69889642D01*
X98266333Y-69937261D01*
X98361571Y-69984880D01*
X98552047Y-69984880D01*
X98647285Y-69937261D01*
X98694904Y-69889642D01*
X98742523Y-69794404D01*
X98742523Y-68984880D01*
X99171095Y-69080119D02*
X99218714Y-69032500D01*
X99313952Y-68984880D01*
X99552047Y-68984880D01*
X99647285Y-69032500D01*
X99694904Y-69080119D01*
X99742523Y-69175357D01*
X99742523Y-69270595D01*
X99694904Y-69413452D01*
X99123476Y-69984880D01*
X99742523Y-69984880D01*
X138477666Y-68667380D02*
X138477666Y-69381666D01*
X138430047Y-69524523D01*
X138334809Y-69619761D01*
X138191952Y-69667380D01*
X138096714Y-69667380D01*
X139477666Y-69667380D02*
X138906238Y-69667380D01*
X139191952Y-69667380D02*
X139191952Y-68667380D01*
X139096714Y-68810238D01*
X139001476Y-68905476D01*
X138906238Y-68953095D01*
X124968095Y-57105180D02*
X124968095Y-57914704D01*
X125015714Y-58009942D01*
X125063333Y-58057561D01*
X125158571Y-58105180D01*
X125349047Y-58105180D01*
X125444285Y-58057561D01*
X125491904Y-58009942D01*
X125539523Y-57914704D01*
X125539523Y-57105180D01*
X126539523Y-58105180D02*
X125968095Y-58105180D01*
X126253809Y-58105180D02*
X126253809Y-57105180D01*
X126158571Y-57248038D01*
X126063333Y-57343276D01*
X125968095Y-57390895D01*
X137310833Y-64619142D02*
X137263214Y-64666761D01*
X137120357Y-64714380D01*
X137025119Y-64714380D01*
X136882261Y-64666761D01*
X136787023Y-64571523D01*
X136739404Y-64476285D01*
X136691785Y-64285809D01*
X136691785Y-64142952D01*
X136739404Y-63952476D01*
X136787023Y-63857238D01*
X136882261Y-63762000D01*
X137025119Y-63714380D01*
X137120357Y-63714380D01*
X137263214Y-63762000D01*
X137310833Y-63809619D01*
X138263214Y-64714380D02*
X137691785Y-64714380D01*
X137977500Y-64714380D02*
X137977500Y-63714380D01*
X137882261Y-63857238D01*
X137787023Y-63952476D01*
X137691785Y-64000095D01*
M02*
