M48
; DRILL file {KiCad 5.1.4-e60b266~84~ubuntu18.04.1} date dom 10 nov 2019 18:43:04 CET
; FORMAT={3:3/ absolute / metric / suppress leading zeros}
; #@! TF.CreationDate,2019-11-10T18:43:04+01:00
; #@! TF.GenerationSoftware,Kicad,Pcbnew,5.1.4-e60b266~84~ubuntu18.04.1
FMAT,2
METRIC,TZ
T1C0.400
T2C1.100
T3C1.200
T4C3.200
%
G90
G05
T1
X88519Y-39053
X89472Y-53277
X89472Y-55690
X90805Y-38989
X93663Y-38926
X94437Y-59944
X94488Y-57404
X94551Y-72644
X94551Y-74295
X97854Y-33274
X99060Y-74295
X99504Y-33274
X101283Y-33274
X112649Y-74549
X114148Y-73279
X114872Y-49340
X114872Y-51689
X114872Y-58039
X115062Y-36322
X115062Y-38989
X115062Y-41656
X115062Y-44196
X115164Y-69012
X115265Y-65837
X115443Y-74549
X115888Y-59880
X116142Y-58039
X126238Y-30607
X126238Y-31940
X126619Y-54419
X126619Y-56007
X128016Y-58039
X130175Y-58039
X132207Y-58039
X134049Y-30607
X134049Y-32258
X134112Y-36386
X134112Y-42228
X134176Y-48387
X134176Y-55817
X134938Y-53530
X135636Y-71184
X135700Y-69850
X136042Y-63830
X136068Y-59842
X136068Y-61849
X136271Y-74422
X136398Y-49911
X138176Y-47815
X138557Y-36767
X140462Y-65977
X140462Y-68644
X140462Y-70294
X140462Y-74422
T2
X97412Y-39020
X97412Y-41560
X97412Y-44100
X97412Y-46640
X97412Y-49180
X97412Y-51720
X97412Y-54260
X97412Y-56800
X97412Y-59340
X97412Y-61880
X97412Y-64420
X97412Y-66960
X98682Y-36480
X101222Y-36480
X103762Y-36480
X105032Y-66960
X106302Y-36480
X107572Y-66960
X108842Y-36480
X109731Y-47783
X109731Y-50323
X110112Y-66960
X111382Y-36480
X112652Y-39020
X112652Y-41560
X112652Y-44100
X112652Y-46640
X112652Y-49180
X112652Y-51720
X112652Y-54260
X112652Y-56800
X112652Y-59340
X112652Y-61880
X112652Y-64420
X112652Y-66960
T3
X89967Y-42596
X89967Y-46096
X89967Y-49596
X89916Y-32283
X89916Y-35783
X89980Y-59302
X89980Y-62802
X89980Y-66301
T4
X138557Y-32448
X89472Y-72581
T0
M30
