G04 #@! TF.GenerationSoftware,KiCad,Pcbnew,5.1.4-e60b266~84~ubuntu18.04.1*
G04 #@! TF.CreationDate,2019-11-10T18:42:59+01:00*
G04 #@! TF.ProjectId,LoRaModule,4c6f5261-4d6f-4647-956c-652e6b696361,rev?*
G04 #@! TF.SameCoordinates,Original*
G04 #@! TF.FileFunction,Soldermask,Top*
G04 #@! TF.FilePolarity,Negative*
%FSLAX46Y46*%
G04 Gerber Fmt 4.6, Leading zero omitted, Abs format (unit mm)*
G04 Created by KiCad (PCBNEW 5.1.4-e60b266~84~ubuntu18.04.1) date 2019-11-10 18:42:59*
%MOMM*%
%LPD*%
G04 APERTURE LIST*
%ADD10C,0.100000*%
G04 APERTURE END LIST*
D10*
G36*
X139517500Y-74441000D02*
G01*
X137215500Y-74441000D01*
X137215500Y-73289000D01*
X139517500Y-73289000D01*
X139517500Y-74441000D01*
X139517500Y-74441000D01*
G37*
G36*
X134781000Y-74403800D02*
G01*
X132679000Y-74403800D01*
X132679000Y-73301800D01*
X134781000Y-73301800D01*
X134781000Y-74403800D01*
X134781000Y-74403800D01*
G37*
G36*
X118781000Y-74403800D02*
G01*
X116679000Y-74403800D01*
X116679000Y-73301800D01*
X118781000Y-73301800D01*
X118781000Y-74403800D01*
X118781000Y-74403800D01*
G37*
G36*
X89846756Y-70971798D02*
G01*
X89953079Y-70992947D01*
X90253542Y-71117403D01*
X90523951Y-71298085D01*
X90753915Y-71528049D01*
X90753916Y-71528051D01*
X90934598Y-71798460D01*
X91059053Y-72098922D01*
X91119698Y-72403800D01*
X91122500Y-72417891D01*
X91122500Y-72743109D01*
X91059053Y-73062079D01*
X90934597Y-73362542D01*
X90753915Y-73632951D01*
X90523951Y-73862915D01*
X90253542Y-74043597D01*
X89953079Y-74168053D01*
X89846756Y-74189202D01*
X89634111Y-74231500D01*
X89308889Y-74231500D01*
X89096244Y-74189202D01*
X88989921Y-74168053D01*
X88689458Y-74043597D01*
X88419049Y-73862915D01*
X88189085Y-73632951D01*
X88008403Y-73362542D01*
X87883947Y-73062079D01*
X87820500Y-72743109D01*
X87820500Y-72417891D01*
X87823303Y-72403800D01*
X87883947Y-72098922D01*
X88008402Y-71798460D01*
X88189084Y-71528051D01*
X88189085Y-71528049D01*
X88419049Y-71298085D01*
X88689458Y-71117403D01*
X88989921Y-70992947D01*
X89096244Y-70971798D01*
X89308889Y-70929500D01*
X89634111Y-70929500D01*
X89846756Y-70971798D01*
X89846756Y-70971798D01*
G37*
G36*
X140417500Y-72941000D02*
G01*
X139315500Y-72941000D01*
X139315500Y-71839000D01*
X140417500Y-71839000D01*
X140417500Y-72941000D01*
X140417500Y-72941000D01*
G37*
G36*
X137417500Y-72941000D02*
G01*
X136315500Y-72941000D01*
X136315500Y-71839000D01*
X137417500Y-71839000D01*
X137417500Y-72941000D01*
X137417500Y-72941000D01*
G37*
G36*
X134781000Y-72403800D02*
G01*
X132679000Y-72403800D01*
X132679000Y-71301800D01*
X134781000Y-71301800D01*
X134781000Y-72403800D01*
X134781000Y-72403800D01*
G37*
G36*
X118781000Y-72403800D02*
G01*
X116679000Y-72403800D01*
X116679000Y-71301800D01*
X118781000Y-71301800D01*
X118781000Y-72403800D01*
X118781000Y-72403800D01*
G37*
G36*
X110986200Y-72175000D02*
G01*
X109384200Y-72175000D01*
X109384200Y-70573000D01*
X110986200Y-70573000D01*
X110986200Y-72175000D01*
X110986200Y-72175000D01*
G37*
G36*
X108471600Y-72175000D02*
G01*
X106869600Y-72175000D01*
X106869600Y-70573000D01*
X108471600Y-70573000D01*
X108471600Y-72175000D01*
X108471600Y-72175000D01*
G37*
G36*
X103391600Y-72175000D02*
G01*
X101789600Y-72175000D01*
X101789600Y-70573000D01*
X103391600Y-70573000D01*
X103391600Y-72175000D01*
X103391600Y-72175000D01*
G37*
G36*
X105931600Y-72175000D02*
G01*
X104329600Y-72175000D01*
X104329600Y-70573000D01*
X105931600Y-70573000D01*
X105931600Y-72175000D01*
X105931600Y-72175000D01*
G37*
G36*
X139517500Y-71491000D02*
G01*
X137215500Y-71491000D01*
X137215500Y-70339000D01*
X139517500Y-70339000D01*
X139517500Y-71491000D01*
X139517500Y-71491000D01*
G37*
G36*
X134781000Y-70403800D02*
G01*
X132679000Y-70403800D01*
X132679000Y-69301800D01*
X134781000Y-69301800D01*
X134781000Y-70403800D01*
X134781000Y-70403800D01*
G37*
G36*
X118781000Y-70403800D02*
G01*
X116679000Y-70403800D01*
X116679000Y-69301800D01*
X118781000Y-69301800D01*
X118781000Y-70403800D01*
X118781000Y-70403800D01*
G37*
G36*
X134781000Y-68403800D02*
G01*
X132679000Y-68403800D01*
X132679000Y-67301800D01*
X134781000Y-67301800D01*
X134781000Y-68403800D01*
X134781000Y-68403800D01*
G37*
G36*
X118781000Y-68403800D02*
G01*
X116679000Y-68403800D01*
X116679000Y-67301800D01*
X118781000Y-67301800D01*
X118781000Y-68403800D01*
X118781000Y-68403800D01*
G37*
G36*
X138023868Y-67256365D02*
G01*
X138062538Y-67268096D01*
X138098177Y-67287146D01*
X138129417Y-67312783D01*
X138155054Y-67344023D01*
X138174104Y-67379662D01*
X138185835Y-67418332D01*
X138190400Y-67464688D01*
X138190400Y-68115912D01*
X138185835Y-68162268D01*
X138174104Y-68200938D01*
X138155054Y-68236577D01*
X138129417Y-68267817D01*
X138098177Y-68293454D01*
X138062538Y-68312504D01*
X138023868Y-68324235D01*
X137977512Y-68328800D01*
X136901288Y-68328800D01*
X136854932Y-68324235D01*
X136816262Y-68312504D01*
X136780623Y-68293454D01*
X136749383Y-68267817D01*
X136723746Y-68236577D01*
X136704696Y-68200938D01*
X136692965Y-68162268D01*
X136688400Y-68115912D01*
X136688400Y-67464688D01*
X136692965Y-67418332D01*
X136704696Y-67379662D01*
X136723746Y-67344023D01*
X136749383Y-67312783D01*
X136780623Y-67287146D01*
X136816262Y-67268096D01*
X136854932Y-67256365D01*
X136901288Y-67251800D01*
X137977512Y-67251800D01*
X138023868Y-67256365D01*
X138023868Y-67256365D01*
G37*
G36*
X107798048Y-66213620D02*
G01*
X107798050Y-66213621D01*
X107798051Y-66213621D01*
X107939274Y-66272117D01*
X107939277Y-66272119D01*
X108066369Y-66357039D01*
X108174461Y-66465131D01*
X108259381Y-66592223D01*
X108259383Y-66592226D01*
X108317879Y-66733449D01*
X108317880Y-66733452D01*
X108347700Y-66883369D01*
X108347700Y-67036231D01*
X108335222Y-67098964D01*
X108317879Y-67186151D01*
X108259383Y-67327374D01*
X108259381Y-67327377D01*
X108174461Y-67454469D01*
X108066369Y-67562561D01*
X107939277Y-67647481D01*
X107939274Y-67647483D01*
X107798051Y-67705979D01*
X107798050Y-67705979D01*
X107798048Y-67705980D01*
X107648131Y-67735800D01*
X107495269Y-67735800D01*
X107345352Y-67705980D01*
X107345350Y-67705979D01*
X107345349Y-67705979D01*
X107204126Y-67647483D01*
X107204123Y-67647481D01*
X107077031Y-67562561D01*
X106968939Y-67454469D01*
X106884019Y-67327377D01*
X106884017Y-67327374D01*
X106825521Y-67186151D01*
X106808179Y-67098964D01*
X106795700Y-67036231D01*
X106795700Y-66883369D01*
X106825520Y-66733452D01*
X106825521Y-66733449D01*
X106884017Y-66592226D01*
X106884019Y-66592223D01*
X106968939Y-66465131D01*
X107077031Y-66357039D01*
X107204123Y-66272119D01*
X107204126Y-66272117D01*
X107345349Y-66213621D01*
X107345350Y-66213621D01*
X107345352Y-66213620D01*
X107495269Y-66183800D01*
X107648131Y-66183800D01*
X107798048Y-66213620D01*
X107798048Y-66213620D01*
G37*
G36*
X110338048Y-66213620D02*
G01*
X110338050Y-66213621D01*
X110338051Y-66213621D01*
X110479274Y-66272117D01*
X110479277Y-66272119D01*
X110606369Y-66357039D01*
X110714461Y-66465131D01*
X110799381Y-66592223D01*
X110799383Y-66592226D01*
X110857879Y-66733449D01*
X110857880Y-66733452D01*
X110887700Y-66883369D01*
X110887700Y-67036231D01*
X110875222Y-67098964D01*
X110857879Y-67186151D01*
X110799383Y-67327374D01*
X110799381Y-67327377D01*
X110714461Y-67454469D01*
X110606369Y-67562561D01*
X110479277Y-67647481D01*
X110479274Y-67647483D01*
X110338051Y-67705979D01*
X110338050Y-67705979D01*
X110338048Y-67705980D01*
X110188131Y-67735800D01*
X110035269Y-67735800D01*
X109885352Y-67705980D01*
X109885350Y-67705979D01*
X109885349Y-67705979D01*
X109744126Y-67647483D01*
X109744123Y-67647481D01*
X109617031Y-67562561D01*
X109508939Y-67454469D01*
X109424019Y-67327377D01*
X109424017Y-67327374D01*
X109365521Y-67186151D01*
X109348179Y-67098964D01*
X109335700Y-67036231D01*
X109335700Y-66883369D01*
X109365520Y-66733452D01*
X109365521Y-66733449D01*
X109424017Y-66592226D01*
X109424019Y-66592223D01*
X109508939Y-66465131D01*
X109617031Y-66357039D01*
X109744123Y-66272119D01*
X109744126Y-66272117D01*
X109885349Y-66213621D01*
X109885350Y-66213621D01*
X109885352Y-66213620D01*
X110035269Y-66183800D01*
X110188131Y-66183800D01*
X110338048Y-66213620D01*
X110338048Y-66213620D01*
G37*
G36*
X112878048Y-66213620D02*
G01*
X112878050Y-66213621D01*
X112878051Y-66213621D01*
X113019274Y-66272117D01*
X113019277Y-66272119D01*
X113146369Y-66357039D01*
X113254461Y-66465131D01*
X113339381Y-66592223D01*
X113339383Y-66592226D01*
X113397879Y-66733449D01*
X113397880Y-66733452D01*
X113427700Y-66883369D01*
X113427700Y-67036231D01*
X113415222Y-67098964D01*
X113397879Y-67186151D01*
X113339383Y-67327374D01*
X113339381Y-67327377D01*
X113254461Y-67454469D01*
X113146369Y-67562561D01*
X113019277Y-67647481D01*
X113019274Y-67647483D01*
X112878051Y-67705979D01*
X112878050Y-67705979D01*
X112878048Y-67705980D01*
X112728131Y-67735800D01*
X112575269Y-67735800D01*
X112425352Y-67705980D01*
X112425350Y-67705979D01*
X112425349Y-67705979D01*
X112284126Y-67647483D01*
X112284123Y-67647481D01*
X112157031Y-67562561D01*
X112048939Y-67454469D01*
X111964019Y-67327377D01*
X111964017Y-67327374D01*
X111905521Y-67186151D01*
X111888179Y-67098964D01*
X111875700Y-67036231D01*
X111875700Y-66883369D01*
X111905520Y-66733452D01*
X111905521Y-66733449D01*
X111964017Y-66592226D01*
X111964019Y-66592223D01*
X112048939Y-66465131D01*
X112157031Y-66357039D01*
X112284123Y-66272119D01*
X112284126Y-66272117D01*
X112425349Y-66213621D01*
X112425350Y-66213621D01*
X112425352Y-66213620D01*
X112575269Y-66183800D01*
X112728131Y-66183800D01*
X112878048Y-66213620D01*
X112878048Y-66213620D01*
G37*
G36*
X97638048Y-66213620D02*
G01*
X97638050Y-66213621D01*
X97638051Y-66213621D01*
X97779274Y-66272117D01*
X97779277Y-66272119D01*
X97906369Y-66357039D01*
X98014461Y-66465131D01*
X98099381Y-66592223D01*
X98099383Y-66592226D01*
X98157879Y-66733449D01*
X98157880Y-66733452D01*
X98187700Y-66883369D01*
X98187700Y-67036231D01*
X98175222Y-67098964D01*
X98157879Y-67186151D01*
X98099383Y-67327374D01*
X98099381Y-67327377D01*
X98014461Y-67454469D01*
X97906369Y-67562561D01*
X97779277Y-67647481D01*
X97779274Y-67647483D01*
X97638051Y-67705979D01*
X97638050Y-67705979D01*
X97638048Y-67705980D01*
X97488131Y-67735800D01*
X97335269Y-67735800D01*
X97185352Y-67705980D01*
X97185350Y-67705979D01*
X97185349Y-67705979D01*
X97044126Y-67647483D01*
X97044123Y-67647481D01*
X96917031Y-67562561D01*
X96808939Y-67454469D01*
X96724019Y-67327377D01*
X96724017Y-67327374D01*
X96665521Y-67186151D01*
X96648179Y-67098964D01*
X96635700Y-67036231D01*
X96635700Y-66883369D01*
X96665520Y-66733452D01*
X96665521Y-66733449D01*
X96724017Y-66592226D01*
X96724019Y-66592223D01*
X96808939Y-66465131D01*
X96917031Y-66357039D01*
X97044123Y-66272119D01*
X97044126Y-66272117D01*
X97185349Y-66213621D01*
X97185350Y-66213621D01*
X97185352Y-66213620D01*
X97335269Y-66183800D01*
X97488131Y-66183800D01*
X97638048Y-66213620D01*
X97638048Y-66213620D01*
G37*
G36*
X105807700Y-67735800D02*
G01*
X104255700Y-67735800D01*
X104255700Y-66183800D01*
X105807700Y-66183800D01*
X105807700Y-67735800D01*
X105807700Y-67735800D01*
G37*
G36*
X90344403Y-65098575D02*
G01*
X90507134Y-65165980D01*
X90572071Y-65192878D01*
X90776966Y-65329785D01*
X90951215Y-65504034D01*
X90977259Y-65543012D01*
X91088123Y-65708931D01*
X91182425Y-65936597D01*
X91230500Y-66178286D01*
X91230500Y-66424714D01*
X91197180Y-66592223D01*
X91182425Y-66666403D01*
X91088122Y-66894071D01*
X90951215Y-67098966D01*
X90776966Y-67273215D01*
X90572071Y-67410122D01*
X90572070Y-67410123D01*
X90572069Y-67410123D01*
X90344403Y-67504425D01*
X90102714Y-67552500D01*
X89856286Y-67552500D01*
X89614597Y-67504425D01*
X89386931Y-67410123D01*
X89386930Y-67410123D01*
X89386929Y-67410122D01*
X89182034Y-67273215D01*
X89007785Y-67098966D01*
X88870878Y-66894071D01*
X88776575Y-66666403D01*
X88761820Y-66592223D01*
X88728500Y-66424714D01*
X88728500Y-66178286D01*
X88776575Y-65936597D01*
X88870877Y-65708931D01*
X88981741Y-65543012D01*
X89007785Y-65504034D01*
X89182034Y-65329785D01*
X89386929Y-65192878D01*
X89451867Y-65165980D01*
X89614597Y-65098575D01*
X89856286Y-65050500D01*
X90102714Y-65050500D01*
X90344403Y-65098575D01*
X90344403Y-65098575D01*
G37*
G36*
X138023868Y-65381365D02*
G01*
X138062538Y-65393096D01*
X138098177Y-65412146D01*
X138129417Y-65437783D01*
X138155054Y-65469023D01*
X138174104Y-65504662D01*
X138185835Y-65543332D01*
X138190400Y-65589688D01*
X138190400Y-66240912D01*
X138185835Y-66287268D01*
X138174104Y-66325938D01*
X138155054Y-66361577D01*
X138129417Y-66392817D01*
X138098177Y-66418454D01*
X138062538Y-66437504D01*
X138023868Y-66449235D01*
X137977512Y-66453800D01*
X136901288Y-66453800D01*
X136854932Y-66449235D01*
X136816262Y-66437504D01*
X136780623Y-66418454D01*
X136749383Y-66392817D01*
X136723746Y-66361577D01*
X136704696Y-66325938D01*
X136692965Y-66287268D01*
X136688400Y-66240912D01*
X136688400Y-65589688D01*
X136692965Y-65543332D01*
X136704696Y-65504662D01*
X136723746Y-65469023D01*
X136749383Y-65437783D01*
X136780623Y-65412146D01*
X136816262Y-65393096D01*
X136854932Y-65381365D01*
X136901288Y-65376800D01*
X137977512Y-65376800D01*
X138023868Y-65381365D01*
X138023868Y-65381365D01*
G37*
G36*
X118781000Y-66403800D02*
G01*
X116679000Y-66403800D01*
X116679000Y-65301800D01*
X118781000Y-65301800D01*
X118781000Y-66403800D01*
X118781000Y-66403800D01*
G37*
G36*
X134781000Y-66403800D02*
G01*
X132679000Y-66403800D01*
X132679000Y-65301800D01*
X134781000Y-65301800D01*
X134781000Y-66403800D01*
X134781000Y-66403800D01*
G37*
G36*
X97638048Y-63673620D02*
G01*
X97638050Y-63673621D01*
X97638051Y-63673621D01*
X97779274Y-63732117D01*
X97779277Y-63732119D01*
X97906369Y-63817039D01*
X98014461Y-63925131D01*
X98067443Y-64004425D01*
X98099383Y-64052226D01*
X98157879Y-64193449D01*
X98187700Y-64343371D01*
X98187700Y-64496229D01*
X98157879Y-64646151D01*
X98099383Y-64787374D01*
X98099381Y-64787377D01*
X98014461Y-64914469D01*
X97906369Y-65022561D01*
X97864555Y-65050500D01*
X97779274Y-65107483D01*
X97638051Y-65165979D01*
X97638050Y-65165979D01*
X97638048Y-65165980D01*
X97488131Y-65195800D01*
X97335269Y-65195800D01*
X97185352Y-65165980D01*
X97185350Y-65165979D01*
X97185349Y-65165979D01*
X97044126Y-65107483D01*
X96958845Y-65050500D01*
X96917031Y-65022561D01*
X96808939Y-64914469D01*
X96724019Y-64787377D01*
X96724017Y-64787374D01*
X96665521Y-64646151D01*
X96635700Y-64496229D01*
X96635700Y-64343371D01*
X96665521Y-64193449D01*
X96724017Y-64052226D01*
X96755957Y-64004425D01*
X96808939Y-63925131D01*
X96917031Y-63817039D01*
X97044123Y-63732119D01*
X97044126Y-63732117D01*
X97185349Y-63673621D01*
X97185350Y-63673621D01*
X97185352Y-63673620D01*
X97335269Y-63643800D01*
X97488131Y-63643800D01*
X97638048Y-63673620D01*
X97638048Y-63673620D01*
G37*
G36*
X112878048Y-63673620D02*
G01*
X112878050Y-63673621D01*
X112878051Y-63673621D01*
X113019274Y-63732117D01*
X113019277Y-63732119D01*
X113146369Y-63817039D01*
X113254461Y-63925131D01*
X113307443Y-64004425D01*
X113339383Y-64052226D01*
X113397879Y-64193449D01*
X113427700Y-64343371D01*
X113427700Y-64496229D01*
X113397879Y-64646151D01*
X113339383Y-64787374D01*
X113339381Y-64787377D01*
X113254461Y-64914469D01*
X113146369Y-65022561D01*
X113104555Y-65050500D01*
X113019274Y-65107483D01*
X112878051Y-65165979D01*
X112878050Y-65165979D01*
X112878048Y-65165980D01*
X112728131Y-65195800D01*
X112575269Y-65195800D01*
X112425352Y-65165980D01*
X112425350Y-65165979D01*
X112425349Y-65165979D01*
X112284126Y-65107483D01*
X112198845Y-65050500D01*
X112157031Y-65022561D01*
X112048939Y-64914469D01*
X111964019Y-64787377D01*
X111964017Y-64787374D01*
X111905521Y-64646151D01*
X111875700Y-64496229D01*
X111875700Y-64343371D01*
X111905521Y-64193449D01*
X111964017Y-64052226D01*
X111995957Y-64004425D01*
X112048939Y-63925131D01*
X112157031Y-63817039D01*
X112284123Y-63732119D01*
X112284126Y-63732117D01*
X112425349Y-63673621D01*
X112425350Y-63673621D01*
X112425352Y-63673620D01*
X112575269Y-63643800D01*
X112728131Y-63643800D01*
X112878048Y-63673620D01*
X112878048Y-63673620D01*
G37*
G36*
X134781000Y-64403800D02*
G01*
X132679000Y-64403800D01*
X132679000Y-63301800D01*
X134781000Y-63301800D01*
X134781000Y-64403800D01*
X134781000Y-64403800D01*
G37*
G36*
X118781000Y-64403800D02*
G01*
X116679000Y-64403800D01*
X116679000Y-63301800D01*
X118781000Y-63301800D01*
X118781000Y-64403800D01*
X118781000Y-64403800D01*
G37*
G36*
X90344403Y-61598575D02*
G01*
X90572071Y-61692878D01*
X90776966Y-61829785D01*
X90951215Y-62004034D01*
X91088122Y-62208929D01*
X91088123Y-62208931D01*
X91104048Y-62247377D01*
X91182425Y-62436597D01*
X91230500Y-62678287D01*
X91230500Y-62924713D01*
X91182425Y-63166403D01*
X91088122Y-63394071D01*
X90951215Y-63598966D01*
X90776966Y-63773215D01*
X90572071Y-63910122D01*
X90572070Y-63910123D01*
X90572069Y-63910123D01*
X90344403Y-64004425D01*
X90102714Y-64052500D01*
X89856286Y-64052500D01*
X89614597Y-64004425D01*
X89386931Y-63910123D01*
X89386930Y-63910123D01*
X89386929Y-63910122D01*
X89182034Y-63773215D01*
X89007785Y-63598966D01*
X88870878Y-63394071D01*
X88776575Y-63166403D01*
X88728500Y-62924713D01*
X88728500Y-62678287D01*
X88776575Y-62436597D01*
X88854952Y-62247377D01*
X88870877Y-62208931D01*
X88870878Y-62208929D01*
X89007785Y-62004034D01*
X89182034Y-61829785D01*
X89386929Y-61692878D01*
X89614597Y-61598575D01*
X89856286Y-61550500D01*
X90102714Y-61550500D01*
X90344403Y-61598575D01*
X90344403Y-61598575D01*
G37*
G36*
X112878048Y-61133620D02*
G01*
X112878050Y-61133621D01*
X112878051Y-61133621D01*
X113019274Y-61192117D01*
X113019277Y-61192119D01*
X113146369Y-61277039D01*
X113254461Y-61385131D01*
X113339381Y-61512223D01*
X113339383Y-61512226D01*
X113397879Y-61653449D01*
X113397880Y-61653452D01*
X113427700Y-61803369D01*
X113427700Y-61956231D01*
X113418192Y-62004034D01*
X113397879Y-62106151D01*
X113339383Y-62247374D01*
X113339381Y-62247377D01*
X113254461Y-62374469D01*
X113146369Y-62482561D01*
X113019277Y-62567481D01*
X113019274Y-62567483D01*
X112878051Y-62625979D01*
X112878050Y-62625979D01*
X112878048Y-62625980D01*
X112728131Y-62655800D01*
X112575269Y-62655800D01*
X112425352Y-62625980D01*
X112425350Y-62625979D01*
X112425349Y-62625979D01*
X112284126Y-62567483D01*
X112284123Y-62567481D01*
X112157031Y-62482561D01*
X112048939Y-62374469D01*
X111964019Y-62247377D01*
X111964017Y-62247374D01*
X111905521Y-62106151D01*
X111885209Y-62004034D01*
X111875700Y-61956231D01*
X111875700Y-61803369D01*
X111905520Y-61653452D01*
X111905521Y-61653449D01*
X111964017Y-61512226D01*
X111964019Y-61512223D01*
X112048939Y-61385131D01*
X112157031Y-61277039D01*
X112284123Y-61192119D01*
X112284126Y-61192117D01*
X112425349Y-61133621D01*
X112425350Y-61133621D01*
X112425352Y-61133620D01*
X112575269Y-61103800D01*
X112728131Y-61103800D01*
X112878048Y-61133620D01*
X112878048Y-61133620D01*
G37*
G36*
X97638048Y-61133620D02*
G01*
X97638050Y-61133621D01*
X97638051Y-61133621D01*
X97779274Y-61192117D01*
X97779277Y-61192119D01*
X97906369Y-61277039D01*
X98014461Y-61385131D01*
X98099381Y-61512223D01*
X98099383Y-61512226D01*
X98157879Y-61653449D01*
X98157880Y-61653452D01*
X98187700Y-61803369D01*
X98187700Y-61956231D01*
X98178192Y-62004034D01*
X98157879Y-62106151D01*
X98099383Y-62247374D01*
X98099381Y-62247377D01*
X98014461Y-62374469D01*
X97906369Y-62482561D01*
X97779277Y-62567481D01*
X97779274Y-62567483D01*
X97638051Y-62625979D01*
X97638050Y-62625979D01*
X97638048Y-62625980D01*
X97488131Y-62655800D01*
X97335269Y-62655800D01*
X97185352Y-62625980D01*
X97185350Y-62625979D01*
X97185349Y-62625979D01*
X97044126Y-62567483D01*
X97044123Y-62567481D01*
X96917031Y-62482561D01*
X96808939Y-62374469D01*
X96724019Y-62247377D01*
X96724017Y-62247374D01*
X96665521Y-62106151D01*
X96645209Y-62004034D01*
X96635700Y-61956231D01*
X96635700Y-61803369D01*
X96665520Y-61653452D01*
X96665521Y-61653449D01*
X96724017Y-61512226D01*
X96724019Y-61512223D01*
X96808939Y-61385131D01*
X96917031Y-61277039D01*
X97044123Y-61192119D01*
X97044126Y-61192117D01*
X97185349Y-61133621D01*
X97185350Y-61133621D01*
X97185352Y-61133620D01*
X97335269Y-61103800D01*
X97488131Y-61103800D01*
X97638048Y-61133620D01*
X97638048Y-61133620D01*
G37*
G36*
X134781000Y-62403800D02*
G01*
X132679000Y-62403800D01*
X132679000Y-61301800D01*
X134781000Y-61301800D01*
X134781000Y-62403800D01*
X134781000Y-62403800D01*
G37*
G36*
X118781000Y-62403800D02*
G01*
X116679000Y-62403800D01*
X116679000Y-61301800D01*
X118781000Y-61301800D01*
X118781000Y-62403800D01*
X118781000Y-62403800D01*
G37*
G36*
X91230500Y-60552500D02*
G01*
X88728500Y-60552500D01*
X88728500Y-58050500D01*
X91230500Y-58050500D01*
X91230500Y-60552500D01*
X91230500Y-60552500D01*
G37*
G36*
X134781000Y-60403800D02*
G01*
X132679000Y-60403800D01*
X132679000Y-59301800D01*
X134781000Y-59301800D01*
X134781000Y-60403800D01*
X134781000Y-60403800D01*
G37*
G36*
X118781000Y-60403800D02*
G01*
X116679000Y-60403800D01*
X116679000Y-59301800D01*
X118781000Y-59301800D01*
X118781000Y-60403800D01*
X118781000Y-60403800D01*
G37*
G36*
X112878048Y-58593620D02*
G01*
X112878050Y-58593621D01*
X112878051Y-58593621D01*
X113019274Y-58652117D01*
X113019277Y-58652119D01*
X113146369Y-58737039D01*
X113254461Y-58845131D01*
X113339381Y-58972223D01*
X113339383Y-58972226D01*
X113397879Y-59113449D01*
X113427700Y-59263371D01*
X113427700Y-59416229D01*
X113397879Y-59566151D01*
X113339383Y-59707374D01*
X113339381Y-59707377D01*
X113254461Y-59834469D01*
X113146369Y-59942561D01*
X113019277Y-60027481D01*
X113019274Y-60027483D01*
X112878051Y-60085979D01*
X112878050Y-60085979D01*
X112878048Y-60085980D01*
X112728131Y-60115800D01*
X112575269Y-60115800D01*
X112425352Y-60085980D01*
X112425350Y-60085979D01*
X112425349Y-60085979D01*
X112284126Y-60027483D01*
X112284123Y-60027481D01*
X112157031Y-59942561D01*
X112048939Y-59834469D01*
X111964019Y-59707377D01*
X111964017Y-59707374D01*
X111905521Y-59566151D01*
X111875700Y-59416229D01*
X111875700Y-59263371D01*
X111905521Y-59113449D01*
X111964017Y-58972226D01*
X111964019Y-58972223D01*
X112048939Y-58845131D01*
X112157031Y-58737039D01*
X112284123Y-58652119D01*
X112284126Y-58652117D01*
X112425349Y-58593621D01*
X112425350Y-58593621D01*
X112425352Y-58593620D01*
X112575269Y-58563800D01*
X112728131Y-58563800D01*
X112878048Y-58593620D01*
X112878048Y-58593620D01*
G37*
G36*
X97638048Y-58593620D02*
G01*
X97638050Y-58593621D01*
X97638051Y-58593621D01*
X97779274Y-58652117D01*
X97779277Y-58652119D01*
X97906369Y-58737039D01*
X98014461Y-58845131D01*
X98099381Y-58972223D01*
X98099383Y-58972226D01*
X98157879Y-59113449D01*
X98187700Y-59263371D01*
X98187700Y-59416229D01*
X98157879Y-59566151D01*
X98099383Y-59707374D01*
X98099381Y-59707377D01*
X98014461Y-59834469D01*
X97906369Y-59942561D01*
X97779277Y-60027481D01*
X97779274Y-60027483D01*
X97638051Y-60085979D01*
X97638050Y-60085979D01*
X97638048Y-60085980D01*
X97488131Y-60115800D01*
X97335269Y-60115800D01*
X97185352Y-60085980D01*
X97185350Y-60085979D01*
X97185349Y-60085979D01*
X97044126Y-60027483D01*
X97044123Y-60027481D01*
X96917031Y-59942561D01*
X96808939Y-59834469D01*
X96724019Y-59707377D01*
X96724017Y-59707374D01*
X96665521Y-59566151D01*
X96635700Y-59416229D01*
X96635700Y-59263371D01*
X96665521Y-59113449D01*
X96724017Y-58972226D01*
X96724019Y-58972223D01*
X96808939Y-58845131D01*
X96917031Y-58737039D01*
X97044123Y-58652119D01*
X97044126Y-58652117D01*
X97185349Y-58593621D01*
X97185350Y-58593621D01*
X97185352Y-58593620D01*
X97335269Y-58563800D01*
X97488131Y-58563800D01*
X97638048Y-58593620D01*
X97638048Y-58593620D01*
G37*
G36*
X140056968Y-56975065D02*
G01*
X140095638Y-56986796D01*
X140131277Y-57005846D01*
X140162517Y-57031483D01*
X140188154Y-57062723D01*
X140207204Y-57098362D01*
X140218935Y-57137032D01*
X140223500Y-57183388D01*
X140223500Y-58259612D01*
X140218935Y-58305968D01*
X140207204Y-58344638D01*
X140188154Y-58380277D01*
X140162517Y-58411517D01*
X140131277Y-58437154D01*
X140095638Y-58456204D01*
X140056968Y-58467935D01*
X140010612Y-58472500D01*
X139359388Y-58472500D01*
X139313032Y-58467935D01*
X139274362Y-58456204D01*
X139238723Y-58437154D01*
X139207483Y-58411517D01*
X139181846Y-58380277D01*
X139162796Y-58344638D01*
X139151065Y-58305968D01*
X139146500Y-58259612D01*
X139146500Y-57183388D01*
X139151065Y-57137032D01*
X139162796Y-57098362D01*
X139181846Y-57062723D01*
X139207483Y-57031483D01*
X139238723Y-57005846D01*
X139274362Y-56986796D01*
X139313032Y-56975065D01*
X139359388Y-56970500D01*
X140010612Y-56970500D01*
X140056968Y-56975065D01*
X140056968Y-56975065D01*
G37*
G36*
X138181968Y-56975065D02*
G01*
X138220638Y-56986796D01*
X138256277Y-57005846D01*
X138287517Y-57031483D01*
X138313154Y-57062723D01*
X138332204Y-57098362D01*
X138343935Y-57137032D01*
X138348500Y-57183388D01*
X138348500Y-58259612D01*
X138343935Y-58305968D01*
X138332204Y-58344638D01*
X138313154Y-58380277D01*
X138287517Y-58411517D01*
X138256277Y-58437154D01*
X138220638Y-58456204D01*
X138181968Y-58467935D01*
X138135612Y-58472500D01*
X137484388Y-58472500D01*
X137438032Y-58467935D01*
X137399362Y-58456204D01*
X137363723Y-58437154D01*
X137332483Y-58411517D01*
X137306846Y-58380277D01*
X137287796Y-58344638D01*
X137276065Y-58305968D01*
X137271500Y-58259612D01*
X137271500Y-57183388D01*
X137276065Y-57137032D01*
X137287796Y-57098362D01*
X137306846Y-57062723D01*
X137332483Y-57031483D01*
X137363723Y-57005846D01*
X137399362Y-56986796D01*
X137438032Y-56975065D01*
X137484388Y-56970500D01*
X138135612Y-56970500D01*
X138181968Y-56975065D01*
X138181968Y-56975065D01*
G37*
G36*
X112878048Y-56053620D02*
G01*
X112878050Y-56053621D01*
X112878051Y-56053621D01*
X113019274Y-56112117D01*
X113019277Y-56112119D01*
X113146369Y-56197039D01*
X113254461Y-56305131D01*
X113308565Y-56386104D01*
X113339383Y-56432226D01*
X113397879Y-56573449D01*
X113397880Y-56573452D01*
X113427700Y-56723369D01*
X113427700Y-56876231D01*
X113405708Y-56986796D01*
X113397879Y-57026151D01*
X113339383Y-57167374D01*
X113339381Y-57167377D01*
X113254461Y-57294469D01*
X113146369Y-57402561D01*
X113019277Y-57487481D01*
X113019274Y-57487483D01*
X112878051Y-57545979D01*
X112878050Y-57545979D01*
X112878048Y-57545980D01*
X112728131Y-57575800D01*
X112575269Y-57575800D01*
X112425352Y-57545980D01*
X112425350Y-57545979D01*
X112425349Y-57545979D01*
X112284126Y-57487483D01*
X112284123Y-57487481D01*
X112157031Y-57402561D01*
X112048939Y-57294469D01*
X111964019Y-57167377D01*
X111964017Y-57167374D01*
X111905521Y-57026151D01*
X111897693Y-56986796D01*
X111875700Y-56876231D01*
X111875700Y-56723369D01*
X111905520Y-56573452D01*
X111905521Y-56573449D01*
X111964017Y-56432226D01*
X111994835Y-56386104D01*
X112048939Y-56305131D01*
X112157031Y-56197039D01*
X112284123Y-56112119D01*
X112284126Y-56112117D01*
X112425349Y-56053621D01*
X112425350Y-56053621D01*
X112425352Y-56053620D01*
X112575269Y-56023800D01*
X112728131Y-56023800D01*
X112878048Y-56053620D01*
X112878048Y-56053620D01*
G37*
G36*
X97638048Y-56053620D02*
G01*
X97638050Y-56053621D01*
X97638051Y-56053621D01*
X97779274Y-56112117D01*
X97779277Y-56112119D01*
X97906369Y-56197039D01*
X98014461Y-56305131D01*
X98068565Y-56386104D01*
X98099383Y-56432226D01*
X98157879Y-56573449D01*
X98157880Y-56573452D01*
X98187700Y-56723369D01*
X98187700Y-56876231D01*
X98165708Y-56986796D01*
X98157879Y-57026151D01*
X98099383Y-57167374D01*
X98099381Y-57167377D01*
X98014461Y-57294469D01*
X97906369Y-57402561D01*
X97779277Y-57487481D01*
X97779274Y-57487483D01*
X97638051Y-57545979D01*
X97638050Y-57545979D01*
X97638048Y-57545980D01*
X97488131Y-57575800D01*
X97335269Y-57575800D01*
X97185352Y-57545980D01*
X97185350Y-57545979D01*
X97185349Y-57545979D01*
X97044126Y-57487483D01*
X97044123Y-57487481D01*
X96917031Y-57402561D01*
X96808939Y-57294469D01*
X96724019Y-57167377D01*
X96724017Y-57167374D01*
X96665521Y-57026151D01*
X96657693Y-56986796D01*
X96635700Y-56876231D01*
X96635700Y-56723369D01*
X96665520Y-56573452D01*
X96665521Y-56573449D01*
X96724017Y-56432226D01*
X96754835Y-56386104D01*
X96808939Y-56305131D01*
X96917031Y-56197039D01*
X97044123Y-56112119D01*
X97044126Y-56112117D01*
X97185349Y-56053621D01*
X97185350Y-56053621D01*
X97185352Y-56053620D01*
X97335269Y-56023800D01*
X97488131Y-56023800D01*
X97638048Y-56053620D01*
X97638048Y-56053620D01*
G37*
G36*
X129928600Y-56940400D02*
G01*
X127626600Y-56940400D01*
X127626600Y-52838400D01*
X129928600Y-52838400D01*
X129928600Y-56940400D01*
X129928600Y-56940400D01*
G37*
G36*
X121698600Y-56940400D02*
G01*
X119396600Y-56940400D01*
X119396600Y-52838400D01*
X121698600Y-52838400D01*
X121698600Y-56940400D01*
X121698600Y-56940400D01*
G37*
G36*
X132718600Y-56940400D02*
G01*
X130416600Y-56940400D01*
X130416600Y-52838400D01*
X132718600Y-52838400D01*
X132718600Y-56940400D01*
X132718600Y-56940400D01*
G37*
G36*
X118948600Y-56940400D02*
G01*
X116646600Y-56940400D01*
X116646600Y-52838400D01*
X118948600Y-52838400D01*
X118948600Y-56940400D01*
X118948600Y-56940400D01*
G37*
G36*
X93536868Y-54904965D02*
G01*
X93575538Y-54916696D01*
X93611177Y-54935746D01*
X93642417Y-54961383D01*
X93668054Y-54992623D01*
X93687104Y-55028262D01*
X93698835Y-55066932D01*
X93703400Y-55113288D01*
X93703400Y-56189512D01*
X93698835Y-56235868D01*
X93687104Y-56274538D01*
X93668054Y-56310177D01*
X93642417Y-56341417D01*
X93611177Y-56367054D01*
X93575538Y-56386104D01*
X93536868Y-56397835D01*
X93490512Y-56402400D01*
X92839288Y-56402400D01*
X92792932Y-56397835D01*
X92754262Y-56386104D01*
X92718623Y-56367054D01*
X92687383Y-56341417D01*
X92661746Y-56310177D01*
X92642696Y-56274538D01*
X92630965Y-56235868D01*
X92626400Y-56189512D01*
X92626400Y-55113288D01*
X92630965Y-55066932D01*
X92642696Y-55028262D01*
X92661746Y-54992623D01*
X92687383Y-54961383D01*
X92718623Y-54935746D01*
X92754262Y-54916696D01*
X92792932Y-54904965D01*
X92839288Y-54900400D01*
X93490512Y-54900400D01*
X93536868Y-54904965D01*
X93536868Y-54904965D01*
G37*
G36*
X91661868Y-54904965D02*
G01*
X91700538Y-54916696D01*
X91736177Y-54935746D01*
X91767417Y-54961383D01*
X91793054Y-54992623D01*
X91812104Y-55028262D01*
X91823835Y-55066932D01*
X91828400Y-55113288D01*
X91828400Y-56189512D01*
X91823835Y-56235868D01*
X91812104Y-56274538D01*
X91793054Y-56310177D01*
X91767417Y-56341417D01*
X91736177Y-56367054D01*
X91700538Y-56386104D01*
X91661868Y-56397835D01*
X91615512Y-56402400D01*
X90964288Y-56402400D01*
X90917932Y-56397835D01*
X90879262Y-56386104D01*
X90843623Y-56367054D01*
X90812383Y-56341417D01*
X90786746Y-56310177D01*
X90767696Y-56274538D01*
X90755965Y-56235868D01*
X90751400Y-56189512D01*
X90751400Y-55113288D01*
X90755965Y-55066932D01*
X90767696Y-55028262D01*
X90786746Y-54992623D01*
X90812383Y-54961383D01*
X90843623Y-54935746D01*
X90879262Y-54916696D01*
X90917932Y-54904965D01*
X90964288Y-54900400D01*
X91615512Y-54900400D01*
X91661868Y-54904965D01*
X91661868Y-54904965D01*
G37*
G36*
X138442968Y-54886565D02*
G01*
X138481638Y-54898296D01*
X138517277Y-54917346D01*
X138548517Y-54942983D01*
X138574154Y-54974223D01*
X138593204Y-55009862D01*
X138604935Y-55048532D01*
X138609500Y-55094888D01*
X138609500Y-55746112D01*
X138604935Y-55792468D01*
X138593204Y-55831138D01*
X138574154Y-55866777D01*
X138548517Y-55898017D01*
X138517277Y-55923654D01*
X138481638Y-55942704D01*
X138442968Y-55954435D01*
X138396612Y-55959000D01*
X137320388Y-55959000D01*
X137274032Y-55954435D01*
X137235362Y-55942704D01*
X137199723Y-55923654D01*
X137168483Y-55898017D01*
X137142846Y-55866777D01*
X137123796Y-55831138D01*
X137112065Y-55792468D01*
X137107500Y-55746112D01*
X137107500Y-55094888D01*
X137112065Y-55048532D01*
X137123796Y-55009862D01*
X137142846Y-54974223D01*
X137168483Y-54942983D01*
X137199723Y-54917346D01*
X137235362Y-54898296D01*
X137274032Y-54886565D01*
X137320388Y-54882000D01*
X138396612Y-54882000D01*
X138442968Y-54886565D01*
X138442968Y-54886565D01*
G37*
G36*
X112878048Y-53513620D02*
G01*
X112878050Y-53513621D01*
X112878051Y-53513621D01*
X113019274Y-53572117D01*
X113019277Y-53572119D01*
X113146369Y-53657039D01*
X113254461Y-53765131D01*
X113276475Y-53798078D01*
X113339383Y-53892226D01*
X113390154Y-54014800D01*
X113397880Y-54033452D01*
X113427700Y-54183369D01*
X113427700Y-54336229D01*
X113397879Y-54486151D01*
X113339383Y-54627374D01*
X113339381Y-54627377D01*
X113254461Y-54754469D01*
X113146369Y-54862561D01*
X113081995Y-54905574D01*
X113019274Y-54947483D01*
X112878051Y-55005979D01*
X112878050Y-55005979D01*
X112878048Y-55005980D01*
X112728131Y-55035800D01*
X112575269Y-55035800D01*
X112425352Y-55005980D01*
X112425350Y-55005979D01*
X112425349Y-55005979D01*
X112284126Y-54947483D01*
X112221405Y-54905574D01*
X112157031Y-54862561D01*
X112048939Y-54754469D01*
X111964019Y-54627377D01*
X111964017Y-54627374D01*
X111905521Y-54486151D01*
X111875700Y-54336229D01*
X111875700Y-54183369D01*
X111905520Y-54033452D01*
X111913246Y-54014800D01*
X111964017Y-53892226D01*
X112026925Y-53798078D01*
X112048939Y-53765131D01*
X112157031Y-53657039D01*
X112284123Y-53572119D01*
X112284126Y-53572117D01*
X112425349Y-53513621D01*
X112425350Y-53513621D01*
X112425352Y-53513620D01*
X112575269Y-53483800D01*
X112728131Y-53483800D01*
X112878048Y-53513620D01*
X112878048Y-53513620D01*
G37*
G36*
X97638048Y-53513620D02*
G01*
X97638050Y-53513621D01*
X97638051Y-53513621D01*
X97779274Y-53572117D01*
X97779277Y-53572119D01*
X97906369Y-53657039D01*
X98014461Y-53765131D01*
X98036475Y-53798078D01*
X98099383Y-53892226D01*
X98150154Y-54014800D01*
X98157880Y-54033452D01*
X98187700Y-54183369D01*
X98187700Y-54336229D01*
X98157879Y-54486151D01*
X98099383Y-54627374D01*
X98099381Y-54627377D01*
X98014461Y-54754469D01*
X97906369Y-54862561D01*
X97841995Y-54905574D01*
X97779274Y-54947483D01*
X97638051Y-55005979D01*
X97638050Y-55005979D01*
X97638048Y-55005980D01*
X97488131Y-55035800D01*
X97335269Y-55035800D01*
X97185352Y-55005980D01*
X97185350Y-55005979D01*
X97185349Y-55005979D01*
X97044126Y-54947483D01*
X96981405Y-54905574D01*
X96917031Y-54862561D01*
X96808939Y-54754469D01*
X96724019Y-54627377D01*
X96724017Y-54627374D01*
X96665521Y-54486151D01*
X96635700Y-54336229D01*
X96635700Y-54183369D01*
X96665520Y-54033452D01*
X96673246Y-54014800D01*
X96724017Y-53892226D01*
X96786925Y-53798078D01*
X96808939Y-53765131D01*
X96917031Y-53657039D01*
X97044123Y-53572119D01*
X97044126Y-53572117D01*
X97185349Y-53513621D01*
X97185350Y-53513621D01*
X97185352Y-53513620D01*
X97335269Y-53483800D01*
X97488131Y-53483800D01*
X97638048Y-53513620D01*
X97638048Y-53513620D01*
G37*
G36*
X138442968Y-53011565D02*
G01*
X138481638Y-53023296D01*
X138517277Y-53042346D01*
X138548517Y-53067983D01*
X138574154Y-53099223D01*
X138593204Y-53134862D01*
X138604935Y-53173532D01*
X138609500Y-53219888D01*
X138609500Y-53871112D01*
X138604935Y-53917468D01*
X138593204Y-53956138D01*
X138574154Y-53991777D01*
X138548517Y-54023017D01*
X138517277Y-54048654D01*
X138481638Y-54067704D01*
X138442968Y-54079435D01*
X138396612Y-54084000D01*
X137320388Y-54084000D01*
X137274032Y-54079435D01*
X137235362Y-54067704D01*
X137199723Y-54048654D01*
X137168483Y-54023017D01*
X137142846Y-53991777D01*
X137123796Y-53956138D01*
X137112065Y-53917468D01*
X137107500Y-53871112D01*
X137107500Y-53219888D01*
X137112065Y-53173532D01*
X137123796Y-53134862D01*
X137142846Y-53099223D01*
X137168483Y-53067983D01*
X137199723Y-53042346D01*
X137235362Y-53023296D01*
X137274032Y-53011565D01*
X137320388Y-53007000D01*
X138396612Y-53007000D01*
X138442968Y-53011565D01*
X138442968Y-53011565D01*
G37*
G36*
X91661868Y-52517365D02*
G01*
X91700538Y-52529096D01*
X91736177Y-52548146D01*
X91767417Y-52573783D01*
X91793054Y-52605023D01*
X91812104Y-52640662D01*
X91823835Y-52679332D01*
X91828400Y-52725688D01*
X91828400Y-53801912D01*
X91823835Y-53848268D01*
X91812104Y-53886938D01*
X91793054Y-53922577D01*
X91767417Y-53953817D01*
X91736177Y-53979454D01*
X91700538Y-53998504D01*
X91661868Y-54010235D01*
X91615512Y-54014800D01*
X90964288Y-54014800D01*
X90917932Y-54010235D01*
X90879262Y-53998504D01*
X90843623Y-53979454D01*
X90812383Y-53953817D01*
X90786746Y-53922577D01*
X90767696Y-53886938D01*
X90755965Y-53848268D01*
X90751400Y-53801912D01*
X90751400Y-52725688D01*
X90755965Y-52679332D01*
X90767696Y-52640662D01*
X90786746Y-52605023D01*
X90812383Y-52573783D01*
X90843623Y-52548146D01*
X90879262Y-52529096D01*
X90917932Y-52517365D01*
X90964288Y-52512800D01*
X91615512Y-52512800D01*
X91661868Y-52517365D01*
X91661868Y-52517365D01*
G37*
G36*
X93536868Y-52517365D02*
G01*
X93575538Y-52529096D01*
X93611177Y-52548146D01*
X93642417Y-52573783D01*
X93668054Y-52605023D01*
X93687104Y-52640662D01*
X93698835Y-52679332D01*
X93703400Y-52725688D01*
X93703400Y-53801912D01*
X93698835Y-53848268D01*
X93687104Y-53886938D01*
X93668054Y-53922577D01*
X93642417Y-53953817D01*
X93611177Y-53979454D01*
X93575538Y-53998504D01*
X93536868Y-54010235D01*
X93490512Y-54014800D01*
X92839288Y-54014800D01*
X92792932Y-54010235D01*
X92754262Y-53998504D01*
X92718623Y-53979454D01*
X92687383Y-53953817D01*
X92661746Y-53922577D01*
X92642696Y-53886938D01*
X92630965Y-53848268D01*
X92626400Y-53801912D01*
X92626400Y-52725688D01*
X92630965Y-52679332D01*
X92642696Y-52640662D01*
X92661746Y-52605023D01*
X92687383Y-52573783D01*
X92718623Y-52548146D01*
X92754262Y-52529096D01*
X92792932Y-52517365D01*
X92839288Y-52512800D01*
X93490512Y-52512800D01*
X93536868Y-52517365D01*
X93536868Y-52517365D01*
G37*
G36*
X97638048Y-50973620D02*
G01*
X97638050Y-50973621D01*
X97638051Y-50973621D01*
X97779274Y-51032117D01*
X97779277Y-51032119D01*
X97906369Y-51117039D01*
X98014461Y-51225131D01*
X98099381Y-51352223D01*
X98099383Y-51352226D01*
X98157879Y-51493449D01*
X98187700Y-51643371D01*
X98187700Y-51796229D01*
X98157879Y-51946151D01*
X98099383Y-52087374D01*
X98099381Y-52087377D01*
X98014461Y-52214469D01*
X97906369Y-52322561D01*
X97779277Y-52407481D01*
X97779274Y-52407483D01*
X97638051Y-52465979D01*
X97638050Y-52465979D01*
X97638048Y-52465980D01*
X97488131Y-52495800D01*
X97335269Y-52495800D01*
X97185352Y-52465980D01*
X97185350Y-52465979D01*
X97185349Y-52465979D01*
X97044126Y-52407483D01*
X97044123Y-52407481D01*
X96917031Y-52322561D01*
X96808939Y-52214469D01*
X96724019Y-52087377D01*
X96724017Y-52087374D01*
X96665521Y-51946151D01*
X96635700Y-51796229D01*
X96635700Y-51643371D01*
X96665521Y-51493449D01*
X96724017Y-51352226D01*
X96724019Y-51352223D01*
X96808939Y-51225131D01*
X96917031Y-51117039D01*
X97044123Y-51032119D01*
X97044126Y-51032117D01*
X97185349Y-50973621D01*
X97185350Y-50973621D01*
X97185352Y-50973620D01*
X97335269Y-50943800D01*
X97488131Y-50943800D01*
X97638048Y-50973620D01*
X97638048Y-50973620D01*
G37*
G36*
X112878048Y-50973620D02*
G01*
X112878050Y-50973621D01*
X112878051Y-50973621D01*
X113019274Y-51032117D01*
X113019277Y-51032119D01*
X113146369Y-51117039D01*
X113254461Y-51225131D01*
X113339381Y-51352223D01*
X113339383Y-51352226D01*
X113397879Y-51493449D01*
X113427700Y-51643371D01*
X113427700Y-51796229D01*
X113397879Y-51946151D01*
X113339383Y-52087374D01*
X113339381Y-52087377D01*
X113254461Y-52214469D01*
X113146369Y-52322561D01*
X113019277Y-52407481D01*
X113019274Y-52407483D01*
X112878051Y-52465979D01*
X112878050Y-52465979D01*
X112878048Y-52465980D01*
X112728131Y-52495800D01*
X112575269Y-52495800D01*
X112425352Y-52465980D01*
X112425350Y-52465979D01*
X112425349Y-52465979D01*
X112284126Y-52407483D01*
X112284123Y-52407481D01*
X112157031Y-52322561D01*
X112048939Y-52214469D01*
X111964019Y-52087377D01*
X111964017Y-52087374D01*
X111905521Y-51946151D01*
X111875700Y-51796229D01*
X111875700Y-51643371D01*
X111905521Y-51493449D01*
X111964017Y-51352226D01*
X111964019Y-51352223D01*
X112048939Y-51225131D01*
X112157031Y-51117039D01*
X112284123Y-51032119D01*
X112284126Y-51032117D01*
X112425349Y-50973621D01*
X112425350Y-50973621D01*
X112425352Y-50973620D01*
X112575269Y-50943800D01*
X112728131Y-50943800D01*
X112878048Y-50973620D01*
X112878048Y-50973620D01*
G37*
G36*
X109957048Y-49576620D02*
G01*
X109957050Y-49576621D01*
X109957051Y-49576621D01*
X110098274Y-49635117D01*
X110098277Y-49635119D01*
X110225369Y-49720039D01*
X110333461Y-49828131D01*
X110359755Y-49867483D01*
X110418383Y-49955226D01*
X110476879Y-50096449D01*
X110476880Y-50096452D01*
X110506700Y-50246369D01*
X110506700Y-50399231D01*
X110478235Y-50542337D01*
X110476879Y-50549151D01*
X110418383Y-50690374D01*
X110418381Y-50690377D01*
X110333461Y-50817469D01*
X110225369Y-50925561D01*
X110198072Y-50943800D01*
X110098274Y-51010483D01*
X109957051Y-51068979D01*
X109957050Y-51068979D01*
X109957048Y-51068980D01*
X109807131Y-51098800D01*
X109654269Y-51098800D01*
X109504352Y-51068980D01*
X109504350Y-51068979D01*
X109504349Y-51068979D01*
X109363126Y-51010483D01*
X109263328Y-50943800D01*
X109236031Y-50925561D01*
X109127939Y-50817469D01*
X109043019Y-50690377D01*
X109043017Y-50690374D01*
X108984521Y-50549151D01*
X108983166Y-50542337D01*
X108954700Y-50399231D01*
X108954700Y-50246369D01*
X108984520Y-50096452D01*
X108984521Y-50096449D01*
X109043017Y-49955226D01*
X109101645Y-49867483D01*
X109127939Y-49828131D01*
X109236031Y-49720039D01*
X109363123Y-49635119D01*
X109363126Y-49635117D01*
X109504349Y-49576621D01*
X109504350Y-49576621D01*
X109504352Y-49576620D01*
X109654269Y-49546800D01*
X109807131Y-49546800D01*
X109957048Y-49576620D01*
X109957048Y-49576620D01*
G37*
G36*
X90294923Y-48385559D02*
G01*
X90331703Y-48392875D01*
X90559371Y-48487178D01*
X90764266Y-48624085D01*
X90938515Y-48798334D01*
X90938516Y-48798336D01*
X91075423Y-49003231D01*
X91169725Y-49230897D01*
X91204585Y-49406148D01*
X91217800Y-49472587D01*
X91217800Y-49719013D01*
X91169725Y-49960703D01*
X91075422Y-50188371D01*
X90938515Y-50393266D01*
X90764266Y-50567515D01*
X90559371Y-50704422D01*
X90559370Y-50704423D01*
X90559369Y-50704423D01*
X90331703Y-50798725D01*
X90090014Y-50846800D01*
X89843586Y-50846800D01*
X89601897Y-50798725D01*
X89374231Y-50704423D01*
X89374230Y-50704423D01*
X89374229Y-50704422D01*
X89169334Y-50567515D01*
X88995085Y-50393266D01*
X88858178Y-50188371D01*
X88763875Y-49960703D01*
X88715800Y-49719013D01*
X88715800Y-49472587D01*
X88729016Y-49406148D01*
X88763875Y-49230897D01*
X88858177Y-49003231D01*
X88995084Y-48798336D01*
X88995085Y-48798334D01*
X89169334Y-48624085D01*
X89374229Y-48487178D01*
X89601897Y-48392875D01*
X89638677Y-48385559D01*
X89843586Y-48344800D01*
X90090014Y-48344800D01*
X90294923Y-48385559D01*
X90294923Y-48385559D01*
G37*
G36*
X139993468Y-49164565D02*
G01*
X140032138Y-49176296D01*
X140067777Y-49195346D01*
X140099017Y-49220983D01*
X140124654Y-49252223D01*
X140143704Y-49287862D01*
X140155435Y-49326532D01*
X140160000Y-49372888D01*
X140160000Y-50449112D01*
X140155435Y-50495468D01*
X140143704Y-50534138D01*
X140124654Y-50569777D01*
X140099017Y-50601017D01*
X140067777Y-50626654D01*
X140032138Y-50645704D01*
X139993468Y-50657435D01*
X139947112Y-50662000D01*
X139295888Y-50662000D01*
X139249532Y-50657435D01*
X139210862Y-50645704D01*
X139175223Y-50626654D01*
X139143983Y-50601017D01*
X139118346Y-50569777D01*
X139099296Y-50534138D01*
X139087565Y-50495468D01*
X139083000Y-50449112D01*
X139083000Y-49372888D01*
X139087565Y-49326532D01*
X139099296Y-49287862D01*
X139118346Y-49252223D01*
X139143983Y-49220983D01*
X139175223Y-49195346D01*
X139210862Y-49176296D01*
X139249532Y-49164565D01*
X139295888Y-49160000D01*
X139947112Y-49160000D01*
X139993468Y-49164565D01*
X139993468Y-49164565D01*
G37*
G36*
X138118468Y-49164565D02*
G01*
X138157138Y-49176296D01*
X138192777Y-49195346D01*
X138224017Y-49220983D01*
X138249654Y-49252223D01*
X138268704Y-49287862D01*
X138280435Y-49326532D01*
X138285000Y-49372888D01*
X138285000Y-50449112D01*
X138280435Y-50495468D01*
X138268704Y-50534138D01*
X138249654Y-50569777D01*
X138224017Y-50601017D01*
X138192777Y-50626654D01*
X138157138Y-50645704D01*
X138118468Y-50657435D01*
X138072112Y-50662000D01*
X137420888Y-50662000D01*
X137374532Y-50657435D01*
X137335862Y-50645704D01*
X137300223Y-50626654D01*
X137268983Y-50601017D01*
X137243346Y-50569777D01*
X137224296Y-50534138D01*
X137212565Y-50495468D01*
X137208000Y-50449112D01*
X137208000Y-49372888D01*
X137212565Y-49326532D01*
X137224296Y-49287862D01*
X137243346Y-49252223D01*
X137268983Y-49220983D01*
X137300223Y-49195346D01*
X137335862Y-49176296D01*
X137374532Y-49164565D01*
X137420888Y-49160000D01*
X138072112Y-49160000D01*
X138118468Y-49164565D01*
X138118468Y-49164565D01*
G37*
G36*
X112878048Y-48433620D02*
G01*
X112878050Y-48433621D01*
X112878051Y-48433621D01*
X113019274Y-48492117D01*
X113019277Y-48492119D01*
X113146369Y-48577039D01*
X113254461Y-48685131D01*
X113330101Y-48798334D01*
X113339383Y-48812226D01*
X113397879Y-48953449D01*
X113397880Y-48953452D01*
X113427700Y-49103369D01*
X113427700Y-49256231D01*
X113404496Y-49372888D01*
X113397879Y-49406151D01*
X113339383Y-49547374D01*
X113339381Y-49547377D01*
X113254461Y-49674469D01*
X113146369Y-49782561D01*
X113019277Y-49867481D01*
X113019274Y-49867483D01*
X112878051Y-49925979D01*
X112878050Y-49925979D01*
X112878048Y-49925980D01*
X112728131Y-49955800D01*
X112575269Y-49955800D01*
X112425352Y-49925980D01*
X112425350Y-49925979D01*
X112425349Y-49925979D01*
X112284126Y-49867483D01*
X112284123Y-49867481D01*
X112157031Y-49782561D01*
X112048939Y-49674469D01*
X111964019Y-49547377D01*
X111964017Y-49547374D01*
X111905521Y-49406151D01*
X111898905Y-49372888D01*
X111875700Y-49256231D01*
X111875700Y-49103369D01*
X111905520Y-48953452D01*
X111905521Y-48953449D01*
X111964017Y-48812226D01*
X111973299Y-48798334D01*
X112048939Y-48685131D01*
X112157031Y-48577039D01*
X112284123Y-48492119D01*
X112284126Y-48492117D01*
X112425349Y-48433621D01*
X112425350Y-48433621D01*
X112425352Y-48433620D01*
X112575269Y-48403800D01*
X112728131Y-48403800D01*
X112878048Y-48433620D01*
X112878048Y-48433620D01*
G37*
G36*
X97638048Y-48433620D02*
G01*
X97638050Y-48433621D01*
X97638051Y-48433621D01*
X97779274Y-48492117D01*
X97779277Y-48492119D01*
X97906369Y-48577039D01*
X98014461Y-48685131D01*
X98090101Y-48798334D01*
X98099383Y-48812226D01*
X98157879Y-48953449D01*
X98157880Y-48953452D01*
X98187700Y-49103369D01*
X98187700Y-49256231D01*
X98164496Y-49372888D01*
X98157879Y-49406151D01*
X98099383Y-49547374D01*
X98099381Y-49547377D01*
X98014461Y-49674469D01*
X97906369Y-49782561D01*
X97779277Y-49867481D01*
X97779274Y-49867483D01*
X97638051Y-49925979D01*
X97638050Y-49925979D01*
X97638048Y-49925980D01*
X97488131Y-49955800D01*
X97335269Y-49955800D01*
X97185352Y-49925980D01*
X97185350Y-49925979D01*
X97185349Y-49925979D01*
X97044126Y-49867483D01*
X97044123Y-49867481D01*
X96917031Y-49782561D01*
X96808939Y-49674469D01*
X96724019Y-49547377D01*
X96724017Y-49547374D01*
X96665521Y-49406151D01*
X96658905Y-49372888D01*
X96635700Y-49256231D01*
X96635700Y-49103369D01*
X96665520Y-48953452D01*
X96665521Y-48953449D01*
X96724017Y-48812226D01*
X96733299Y-48798334D01*
X96808939Y-48685131D01*
X96917031Y-48577039D01*
X97044123Y-48492119D01*
X97044126Y-48492117D01*
X97185349Y-48433621D01*
X97185350Y-48433621D01*
X97185352Y-48433620D01*
X97335269Y-48403800D01*
X97488131Y-48403800D01*
X97638048Y-48433620D01*
X97638048Y-48433620D01*
G37*
G36*
X109957048Y-47036620D02*
G01*
X109957050Y-47036621D01*
X109957051Y-47036621D01*
X110098274Y-47095117D01*
X110098277Y-47095119D01*
X110225369Y-47180039D01*
X110333461Y-47288131D01*
X110359755Y-47327483D01*
X110418383Y-47415226D01*
X110476879Y-47556449D01*
X110506700Y-47706371D01*
X110506700Y-47859229D01*
X110476879Y-48009151D01*
X110418383Y-48150374D01*
X110418381Y-48150377D01*
X110333461Y-48277469D01*
X110225369Y-48385561D01*
X110198072Y-48403800D01*
X110098274Y-48470483D01*
X109957051Y-48528979D01*
X109957050Y-48528979D01*
X109957048Y-48528980D01*
X109807131Y-48558800D01*
X109654269Y-48558800D01*
X109504352Y-48528980D01*
X109504350Y-48528979D01*
X109504349Y-48528979D01*
X109363126Y-48470483D01*
X109263328Y-48403800D01*
X109236031Y-48385561D01*
X109127939Y-48277469D01*
X109043019Y-48150377D01*
X109043017Y-48150374D01*
X108984521Y-48009151D01*
X108954700Y-47859229D01*
X108954700Y-47706371D01*
X108984521Y-47556449D01*
X109043017Y-47415226D01*
X109101645Y-47327483D01*
X109127939Y-47288131D01*
X109236031Y-47180039D01*
X109363123Y-47095119D01*
X109363126Y-47095117D01*
X109504349Y-47036621D01*
X109504350Y-47036621D01*
X109504352Y-47036620D01*
X109654269Y-47006800D01*
X109807131Y-47006800D01*
X109957048Y-47036620D01*
X109957048Y-47036620D01*
G37*
G36*
X112878048Y-45893620D02*
G01*
X112878050Y-45893621D01*
X112878051Y-45893621D01*
X113019274Y-45952117D01*
X113019277Y-45952119D01*
X113146369Y-46037039D01*
X113254461Y-46145131D01*
X113303827Y-46219013D01*
X113339383Y-46272226D01*
X113397879Y-46413449D01*
X113397880Y-46413452D01*
X113427700Y-46563369D01*
X113427700Y-46716229D01*
X113397879Y-46866151D01*
X113339383Y-47007374D01*
X113339381Y-47007377D01*
X113254461Y-47134469D01*
X113146369Y-47242561D01*
X113062313Y-47298725D01*
X113019274Y-47327483D01*
X112878051Y-47385979D01*
X112878050Y-47385979D01*
X112878048Y-47385980D01*
X112728131Y-47415800D01*
X112575269Y-47415800D01*
X112425352Y-47385980D01*
X112425350Y-47385979D01*
X112425349Y-47385979D01*
X112284126Y-47327483D01*
X112241087Y-47298725D01*
X112157031Y-47242561D01*
X112048939Y-47134469D01*
X111964019Y-47007377D01*
X111964017Y-47007374D01*
X111905521Y-46866151D01*
X111875700Y-46716229D01*
X111875700Y-46563369D01*
X111905520Y-46413452D01*
X111905521Y-46413449D01*
X111964017Y-46272226D01*
X111999573Y-46219013D01*
X112048939Y-46145131D01*
X112157031Y-46037039D01*
X112284123Y-45952119D01*
X112284126Y-45952117D01*
X112425349Y-45893621D01*
X112425350Y-45893621D01*
X112425352Y-45893620D01*
X112575269Y-45863800D01*
X112728131Y-45863800D01*
X112878048Y-45893620D01*
X112878048Y-45893620D01*
G37*
G36*
X98187700Y-47415800D02*
G01*
X96635700Y-47415800D01*
X96635700Y-45863800D01*
X98187700Y-45863800D01*
X98187700Y-47415800D01*
X98187700Y-47415800D01*
G37*
G36*
X90245861Y-44875800D02*
G01*
X90331703Y-44892875D01*
X90559371Y-44987178D01*
X90764266Y-45124085D01*
X90938515Y-45298334D01*
X90938516Y-45298336D01*
X91075423Y-45503231D01*
X91169725Y-45730897D01*
X91217800Y-45972586D01*
X91217800Y-46219014D01*
X91169725Y-46460703D01*
X91094630Y-46642000D01*
X91075422Y-46688371D01*
X90938515Y-46893266D01*
X90764266Y-47067515D01*
X90559371Y-47204422D01*
X90559370Y-47204423D01*
X90559369Y-47204423D01*
X90331703Y-47298725D01*
X90090014Y-47346800D01*
X89843586Y-47346800D01*
X89601897Y-47298725D01*
X89374231Y-47204423D01*
X89374230Y-47204423D01*
X89374229Y-47204422D01*
X89169334Y-47067515D01*
X88995085Y-46893266D01*
X88858178Y-46688371D01*
X88838971Y-46642000D01*
X88763875Y-46460703D01*
X88715800Y-46219014D01*
X88715800Y-45972586D01*
X88763875Y-45730897D01*
X88858177Y-45503231D01*
X88995084Y-45298336D01*
X88995085Y-45298334D01*
X89169334Y-45124085D01*
X89374229Y-44987178D01*
X89601897Y-44892875D01*
X89687739Y-44875800D01*
X89843586Y-44844800D01*
X90090014Y-44844800D01*
X90245861Y-44875800D01*
X90245861Y-44875800D01*
G37*
G36*
X136523800Y-46642000D02*
G01*
X135421800Y-46642000D01*
X135421800Y-43740000D01*
X136523800Y-43740000D01*
X136523800Y-46642000D01*
X136523800Y-46642000D01*
G37*
G36*
X140523800Y-46642000D02*
G01*
X139421800Y-46642000D01*
X139421800Y-43740000D01*
X140523800Y-43740000D01*
X140523800Y-46642000D01*
X140523800Y-46642000D01*
G37*
G36*
X97638048Y-43353620D02*
G01*
X97638050Y-43353621D01*
X97638051Y-43353621D01*
X97779274Y-43412117D01*
X97779277Y-43412119D01*
X97906369Y-43497039D01*
X98014461Y-43605131D01*
X98099381Y-43732223D01*
X98099383Y-43732226D01*
X98157879Y-43873449D01*
X98187700Y-44023371D01*
X98187700Y-44176229D01*
X98157879Y-44326151D01*
X98099383Y-44467374D01*
X98099381Y-44467377D01*
X98014461Y-44594469D01*
X97906369Y-44702561D01*
X97779277Y-44787481D01*
X97779274Y-44787483D01*
X97638051Y-44845979D01*
X97638050Y-44845979D01*
X97638048Y-44845980D01*
X97488131Y-44875800D01*
X97335269Y-44875800D01*
X97185352Y-44845980D01*
X97185350Y-44845979D01*
X97185349Y-44845979D01*
X97044126Y-44787483D01*
X97044123Y-44787481D01*
X96917031Y-44702561D01*
X96808939Y-44594469D01*
X96724019Y-44467377D01*
X96724017Y-44467374D01*
X96665521Y-44326151D01*
X96635700Y-44176229D01*
X96635700Y-44023371D01*
X96665521Y-43873449D01*
X96724017Y-43732226D01*
X96724019Y-43732223D01*
X96808939Y-43605131D01*
X96917031Y-43497039D01*
X97044123Y-43412119D01*
X97044126Y-43412117D01*
X97185349Y-43353621D01*
X97185350Y-43353621D01*
X97185352Y-43353620D01*
X97335269Y-43323800D01*
X97488131Y-43323800D01*
X97638048Y-43353620D01*
X97638048Y-43353620D01*
G37*
G36*
X112878048Y-43353620D02*
G01*
X112878050Y-43353621D01*
X112878051Y-43353621D01*
X113019274Y-43412117D01*
X113019277Y-43412119D01*
X113146369Y-43497039D01*
X113254461Y-43605131D01*
X113339381Y-43732223D01*
X113339383Y-43732226D01*
X113397879Y-43873449D01*
X113427700Y-44023371D01*
X113427700Y-44176229D01*
X113397879Y-44326151D01*
X113339383Y-44467374D01*
X113339381Y-44467377D01*
X113254461Y-44594469D01*
X113146369Y-44702561D01*
X113019277Y-44787481D01*
X113019274Y-44787483D01*
X112878051Y-44845979D01*
X112878050Y-44845979D01*
X112878048Y-44845980D01*
X112728131Y-44875800D01*
X112575269Y-44875800D01*
X112425352Y-44845980D01*
X112425350Y-44845979D01*
X112425349Y-44845979D01*
X112284126Y-44787483D01*
X112284123Y-44787481D01*
X112157031Y-44702561D01*
X112048939Y-44594469D01*
X111964019Y-44467377D01*
X111964017Y-44467374D01*
X111905521Y-44326151D01*
X111875700Y-44176229D01*
X111875700Y-44023371D01*
X111905521Y-43873449D01*
X111964017Y-43732226D01*
X111964019Y-43732223D01*
X112048939Y-43605131D01*
X112157031Y-43497039D01*
X112284123Y-43412119D01*
X112284126Y-43412117D01*
X112425349Y-43353621D01*
X112425350Y-43353621D01*
X112425352Y-43353620D01*
X112575269Y-43323800D01*
X112728131Y-43323800D01*
X112878048Y-43353620D01*
X112878048Y-43353620D01*
G37*
G36*
X91217800Y-43846800D02*
G01*
X88715800Y-43846800D01*
X88715800Y-41344800D01*
X91217800Y-41344800D01*
X91217800Y-43846800D01*
X91217800Y-43846800D01*
G37*
G36*
X97638048Y-40813620D02*
G01*
X97638050Y-40813621D01*
X97638051Y-40813621D01*
X97779274Y-40872117D01*
X97779277Y-40872119D01*
X97906369Y-40957039D01*
X98014461Y-41065131D01*
X98099381Y-41192223D01*
X98099383Y-41192226D01*
X98157879Y-41333449D01*
X98187700Y-41483371D01*
X98187700Y-41636229D01*
X98157879Y-41786151D01*
X98099383Y-41927374D01*
X98099381Y-41927377D01*
X98014461Y-42054469D01*
X97906369Y-42162561D01*
X97779277Y-42247481D01*
X97779274Y-42247483D01*
X97638051Y-42305979D01*
X97638050Y-42305979D01*
X97638048Y-42305980D01*
X97488131Y-42335800D01*
X97335269Y-42335800D01*
X97185352Y-42305980D01*
X97185350Y-42305979D01*
X97185349Y-42305979D01*
X97044126Y-42247483D01*
X97044123Y-42247481D01*
X96917031Y-42162561D01*
X96808939Y-42054469D01*
X96724019Y-41927377D01*
X96724017Y-41927374D01*
X96665521Y-41786151D01*
X96635700Y-41636229D01*
X96635700Y-41483371D01*
X96665521Y-41333449D01*
X96724017Y-41192226D01*
X96724019Y-41192223D01*
X96808939Y-41065131D01*
X96917031Y-40957039D01*
X97044123Y-40872119D01*
X97044126Y-40872117D01*
X97185349Y-40813621D01*
X97185350Y-40813621D01*
X97185352Y-40813620D01*
X97335269Y-40783800D01*
X97488131Y-40783800D01*
X97638048Y-40813620D01*
X97638048Y-40813620D01*
G37*
G36*
X113427700Y-42335800D02*
G01*
X111875700Y-42335800D01*
X111875700Y-40783800D01*
X113427700Y-40783800D01*
X113427700Y-42335800D01*
X113427700Y-42335800D01*
G37*
G36*
X140523800Y-40842000D02*
G01*
X139421800Y-40842000D01*
X139421800Y-37940000D01*
X140523800Y-37940000D01*
X140523800Y-40842000D01*
X140523800Y-40842000D01*
G37*
G36*
X136523800Y-40842000D02*
G01*
X135421800Y-40842000D01*
X135421800Y-37940000D01*
X136523800Y-37940000D01*
X136523800Y-40842000D01*
X136523800Y-40842000D01*
G37*
G36*
X112878048Y-38273620D02*
G01*
X112878050Y-38273621D01*
X112878051Y-38273621D01*
X113019274Y-38332117D01*
X113019277Y-38332119D01*
X113146369Y-38417039D01*
X113254461Y-38525131D01*
X113339381Y-38652223D01*
X113339383Y-38652226D01*
X113397879Y-38793449D01*
X113427700Y-38943371D01*
X113427700Y-39096229D01*
X113397879Y-39246151D01*
X113339383Y-39387374D01*
X113339381Y-39387377D01*
X113254461Y-39514469D01*
X113146369Y-39622561D01*
X113019277Y-39707481D01*
X113019274Y-39707483D01*
X112878051Y-39765979D01*
X112878050Y-39765979D01*
X112878048Y-39765980D01*
X112728131Y-39795800D01*
X112575269Y-39795800D01*
X112425352Y-39765980D01*
X112425350Y-39765979D01*
X112425349Y-39765979D01*
X112284126Y-39707483D01*
X112284123Y-39707481D01*
X112157031Y-39622561D01*
X112048939Y-39514469D01*
X111964019Y-39387377D01*
X111964017Y-39387374D01*
X111905521Y-39246151D01*
X111875700Y-39096229D01*
X111875700Y-38943371D01*
X111905521Y-38793449D01*
X111964017Y-38652226D01*
X111964019Y-38652223D01*
X112048939Y-38525131D01*
X112157031Y-38417039D01*
X112284123Y-38332119D01*
X112284126Y-38332117D01*
X112425349Y-38273621D01*
X112425350Y-38273621D01*
X112425352Y-38273620D01*
X112575269Y-38243800D01*
X112728131Y-38243800D01*
X112878048Y-38273620D01*
X112878048Y-38273620D01*
G37*
G36*
X97638048Y-38273620D02*
G01*
X97638050Y-38273621D01*
X97638051Y-38273621D01*
X97779274Y-38332117D01*
X97779277Y-38332119D01*
X97906369Y-38417039D01*
X98014461Y-38525131D01*
X98099381Y-38652223D01*
X98099383Y-38652226D01*
X98157879Y-38793449D01*
X98187700Y-38943371D01*
X98187700Y-39096229D01*
X98157879Y-39246151D01*
X98099383Y-39387374D01*
X98099381Y-39387377D01*
X98014461Y-39514469D01*
X97906369Y-39622561D01*
X97779277Y-39707481D01*
X97779274Y-39707483D01*
X97638051Y-39765979D01*
X97638050Y-39765979D01*
X97638048Y-39765980D01*
X97488131Y-39795800D01*
X97335269Y-39795800D01*
X97185352Y-39765980D01*
X97185350Y-39765979D01*
X97185349Y-39765979D01*
X97044126Y-39707483D01*
X97044123Y-39707481D01*
X96917031Y-39622561D01*
X96808939Y-39514469D01*
X96724019Y-39387377D01*
X96724017Y-39387374D01*
X96665521Y-39246151D01*
X96635700Y-39096229D01*
X96635700Y-38943371D01*
X96665521Y-38793449D01*
X96724017Y-38652226D01*
X96724019Y-38652223D01*
X96808939Y-38525131D01*
X96917031Y-38417039D01*
X97044123Y-38332119D01*
X97044126Y-38332117D01*
X97185349Y-38273621D01*
X97185350Y-38273621D01*
X97185352Y-38273620D01*
X97335269Y-38243800D01*
X97488131Y-38243800D01*
X97638048Y-38273620D01*
X97638048Y-38273620D01*
G37*
G36*
X101448048Y-35733620D02*
G01*
X101448050Y-35733621D01*
X101448051Y-35733621D01*
X101589274Y-35792117D01*
X101589277Y-35792119D01*
X101716369Y-35877039D01*
X101824461Y-35985131D01*
X101909381Y-36112223D01*
X101909383Y-36112226D01*
X101924326Y-36148303D01*
X101967880Y-36253452D01*
X101997700Y-36403369D01*
X101997700Y-36556231D01*
X101992800Y-36580866D01*
X101967879Y-36706151D01*
X101909383Y-36847374D01*
X101909381Y-36847377D01*
X101824461Y-36974469D01*
X101716369Y-37082561D01*
X101589277Y-37167481D01*
X101589274Y-37167483D01*
X101448051Y-37225979D01*
X101448050Y-37225979D01*
X101448048Y-37225980D01*
X101298131Y-37255800D01*
X101145269Y-37255800D01*
X100995352Y-37225980D01*
X100995350Y-37225979D01*
X100995349Y-37225979D01*
X100854126Y-37167483D01*
X100854123Y-37167481D01*
X100727031Y-37082561D01*
X100618939Y-36974469D01*
X100534019Y-36847377D01*
X100534017Y-36847374D01*
X100475521Y-36706151D01*
X100450601Y-36580866D01*
X100445700Y-36556231D01*
X100445700Y-36403369D01*
X100475520Y-36253452D01*
X100519074Y-36148303D01*
X100534017Y-36112226D01*
X100534019Y-36112223D01*
X100618939Y-35985131D01*
X100727031Y-35877039D01*
X100854123Y-35792119D01*
X100854126Y-35792117D01*
X100995349Y-35733621D01*
X100995350Y-35733621D01*
X100995352Y-35733620D01*
X101145269Y-35703800D01*
X101298131Y-35703800D01*
X101448048Y-35733620D01*
X101448048Y-35733620D01*
G37*
G36*
X109617700Y-37255800D02*
G01*
X108065700Y-37255800D01*
X108065700Y-35703800D01*
X109617700Y-35703800D01*
X109617700Y-37255800D01*
X109617700Y-37255800D01*
G37*
G36*
X106528048Y-35733620D02*
G01*
X106528050Y-35733621D01*
X106528051Y-35733621D01*
X106669274Y-35792117D01*
X106669277Y-35792119D01*
X106796369Y-35877039D01*
X106904461Y-35985131D01*
X106989381Y-36112223D01*
X106989383Y-36112226D01*
X107004326Y-36148303D01*
X107047880Y-36253452D01*
X107077700Y-36403369D01*
X107077700Y-36556231D01*
X107072800Y-36580866D01*
X107047879Y-36706151D01*
X106989383Y-36847374D01*
X106989381Y-36847377D01*
X106904461Y-36974469D01*
X106796369Y-37082561D01*
X106669277Y-37167481D01*
X106669274Y-37167483D01*
X106528051Y-37225979D01*
X106528050Y-37225979D01*
X106528048Y-37225980D01*
X106378131Y-37255800D01*
X106225269Y-37255800D01*
X106075352Y-37225980D01*
X106075350Y-37225979D01*
X106075349Y-37225979D01*
X105934126Y-37167483D01*
X105934123Y-37167481D01*
X105807031Y-37082561D01*
X105698939Y-36974469D01*
X105614019Y-36847377D01*
X105614017Y-36847374D01*
X105555521Y-36706151D01*
X105530601Y-36580866D01*
X105525700Y-36556231D01*
X105525700Y-36403369D01*
X105555520Y-36253452D01*
X105599074Y-36148303D01*
X105614017Y-36112226D01*
X105614019Y-36112223D01*
X105698939Y-35985131D01*
X105807031Y-35877039D01*
X105934123Y-35792119D01*
X105934126Y-35792117D01*
X106075349Y-35733621D01*
X106075350Y-35733621D01*
X106075352Y-35733620D01*
X106225269Y-35703800D01*
X106378131Y-35703800D01*
X106528048Y-35733620D01*
X106528048Y-35733620D01*
G37*
G36*
X103988048Y-35733620D02*
G01*
X103988050Y-35733621D01*
X103988051Y-35733621D01*
X104129274Y-35792117D01*
X104129277Y-35792119D01*
X104256369Y-35877039D01*
X104364461Y-35985131D01*
X104449381Y-36112223D01*
X104449383Y-36112226D01*
X104464326Y-36148303D01*
X104507880Y-36253452D01*
X104537700Y-36403369D01*
X104537700Y-36556231D01*
X104532800Y-36580866D01*
X104507879Y-36706151D01*
X104449383Y-36847374D01*
X104449381Y-36847377D01*
X104364461Y-36974469D01*
X104256369Y-37082561D01*
X104129277Y-37167481D01*
X104129274Y-37167483D01*
X103988051Y-37225979D01*
X103988050Y-37225979D01*
X103988048Y-37225980D01*
X103838131Y-37255800D01*
X103685269Y-37255800D01*
X103535352Y-37225980D01*
X103535350Y-37225979D01*
X103535349Y-37225979D01*
X103394126Y-37167483D01*
X103394123Y-37167481D01*
X103267031Y-37082561D01*
X103158939Y-36974469D01*
X103074019Y-36847377D01*
X103074017Y-36847374D01*
X103015521Y-36706151D01*
X102990601Y-36580866D01*
X102985700Y-36556231D01*
X102985700Y-36403369D01*
X103015520Y-36253452D01*
X103059074Y-36148303D01*
X103074017Y-36112226D01*
X103074019Y-36112223D01*
X103158939Y-35985131D01*
X103267031Y-35877039D01*
X103394123Y-35792119D01*
X103394126Y-35792117D01*
X103535349Y-35733621D01*
X103535350Y-35733621D01*
X103535352Y-35733620D01*
X103685269Y-35703800D01*
X103838131Y-35703800D01*
X103988048Y-35733620D01*
X103988048Y-35733620D01*
G37*
G36*
X112157700Y-37255800D02*
G01*
X110605700Y-37255800D01*
X110605700Y-35703800D01*
X112157700Y-35703800D01*
X112157700Y-37255800D01*
X112157700Y-37255800D01*
G37*
G36*
X98908048Y-35733620D02*
G01*
X98908050Y-35733621D01*
X98908051Y-35733621D01*
X99049274Y-35792117D01*
X99049277Y-35792119D01*
X99176369Y-35877039D01*
X99284461Y-35985131D01*
X99369381Y-36112223D01*
X99369383Y-36112226D01*
X99384326Y-36148303D01*
X99427880Y-36253452D01*
X99457700Y-36403369D01*
X99457700Y-36556231D01*
X99452800Y-36580866D01*
X99427879Y-36706151D01*
X99369383Y-36847374D01*
X99369381Y-36847377D01*
X99284461Y-36974469D01*
X99176369Y-37082561D01*
X99049277Y-37167481D01*
X99049274Y-37167483D01*
X98908051Y-37225979D01*
X98908050Y-37225979D01*
X98908048Y-37225980D01*
X98758131Y-37255800D01*
X98605269Y-37255800D01*
X98455352Y-37225980D01*
X98455350Y-37225979D01*
X98455349Y-37225979D01*
X98314126Y-37167483D01*
X98314123Y-37167481D01*
X98187031Y-37082561D01*
X98078939Y-36974469D01*
X97994019Y-36847377D01*
X97994017Y-36847374D01*
X97935521Y-36706151D01*
X97910601Y-36580866D01*
X97905700Y-36556231D01*
X97905700Y-36403369D01*
X97935520Y-36253452D01*
X97979074Y-36148303D01*
X97994017Y-36112226D01*
X97994019Y-36112223D01*
X98078939Y-35985131D01*
X98187031Y-35877039D01*
X98314123Y-35792119D01*
X98314126Y-35792117D01*
X98455349Y-35733621D01*
X98455350Y-35733621D01*
X98455352Y-35733620D01*
X98605269Y-35703800D01*
X98758131Y-35703800D01*
X98908048Y-35733620D01*
X98908048Y-35733620D01*
G37*
G36*
X90280903Y-34580475D02*
G01*
X90508571Y-34674778D01*
X90713466Y-34811685D01*
X90887715Y-34985934D01*
X91024622Y-35190829D01*
X91118925Y-35418497D01*
X91167000Y-35660187D01*
X91167000Y-35906613D01*
X91118925Y-36148303D01*
X91024622Y-36375971D01*
X90887715Y-36580866D01*
X90713466Y-36755115D01*
X90508571Y-36892022D01*
X90508570Y-36892023D01*
X90508569Y-36892023D01*
X90280903Y-36986325D01*
X90039214Y-37034400D01*
X89792786Y-37034400D01*
X89551097Y-36986325D01*
X89323431Y-36892023D01*
X89323430Y-36892023D01*
X89323429Y-36892022D01*
X89118534Y-36755115D01*
X88944285Y-36580866D01*
X88807378Y-36375971D01*
X88713075Y-36148303D01*
X88665000Y-35906613D01*
X88665000Y-35660187D01*
X88713075Y-35418497D01*
X88807378Y-35190829D01*
X88944285Y-34985934D01*
X89118534Y-34811685D01*
X89323429Y-34674778D01*
X89551097Y-34580475D01*
X89792786Y-34532400D01*
X90039214Y-34532400D01*
X90280903Y-34580475D01*
X90280903Y-34580475D01*
G37*
G36*
X138932256Y-30839798D02*
G01*
X139038579Y-30860947D01*
X139339042Y-30985403D01*
X139609451Y-31166085D01*
X139839415Y-31396049D01*
X140020097Y-31666458D01*
X140144553Y-31966921D01*
X140208000Y-32285891D01*
X140208000Y-32611109D01*
X140144553Y-32930079D01*
X140020097Y-33230542D01*
X139839415Y-33500951D01*
X139609451Y-33730915D01*
X139339042Y-33911597D01*
X139038579Y-34036053D01*
X138932256Y-34057202D01*
X138719611Y-34099500D01*
X138394389Y-34099500D01*
X138181744Y-34057202D01*
X138075421Y-34036053D01*
X137774958Y-33911597D01*
X137504549Y-33730915D01*
X137274585Y-33500951D01*
X137093903Y-33230542D01*
X136969447Y-32930079D01*
X136906000Y-32611109D01*
X136906000Y-32285891D01*
X136969447Y-31966921D01*
X137093903Y-31666458D01*
X137274585Y-31396049D01*
X137504549Y-31166085D01*
X137774958Y-30985403D01*
X138075421Y-30860947D01*
X138181744Y-30839798D01*
X138394389Y-30797500D01*
X138719611Y-30797500D01*
X138932256Y-30839798D01*
X138932256Y-30839798D01*
G37*
G36*
X132718600Y-34080400D02*
G01*
X130416600Y-34080400D01*
X130416600Y-29978400D01*
X132718600Y-29978400D01*
X132718600Y-34080400D01*
X132718600Y-34080400D01*
G37*
G36*
X129928600Y-34080400D02*
G01*
X127626600Y-34080400D01*
X127626600Y-29978400D01*
X129928600Y-29978400D01*
X129928600Y-34080400D01*
X129928600Y-34080400D01*
G37*
G36*
X121698600Y-34080400D02*
G01*
X119396600Y-34080400D01*
X119396600Y-29978400D01*
X121698600Y-29978400D01*
X121698600Y-34080400D01*
X121698600Y-34080400D01*
G37*
G36*
X118948600Y-34080400D02*
G01*
X116646600Y-34080400D01*
X116646600Y-29978400D01*
X118948600Y-29978400D01*
X118948600Y-34080400D01*
X118948600Y-34080400D01*
G37*
G36*
X91167000Y-33534400D02*
G01*
X88665000Y-33534400D01*
X88665000Y-31032400D01*
X91167000Y-31032400D01*
X91167000Y-33534400D01*
X91167000Y-33534400D01*
G37*
M02*
